<?xml version="1.0" encoding="UTF-8" standalone="no"?>
<svg
   version="2.0"
   viewBox="0 0 2048 3120"
   id="svg7"
   sodipodi:docname="neogob_legs.svg"
   inkscape:export-filename="..\png\neogob_legs.png"
   inkscape:export-xdpi="12"
   inkscape:export-ydpi="12"
   inkscape:version="1.3.2 (091e20e, 2023-11-25, custom)"
   xml:space="preserve"
   xmlns:inkscape="http://www.inkscape.org/namespaces/inkscape"
   xmlns:sodipodi="http://sodipodi.sourceforge.net/DTD/sodipodi-0.dtd"
   xmlns:xlink="http://www.w3.org/1999/xlink"
   xmlns="http://www.w3.org/2000/svg"
   xmlns:svg="http://www.w3.org/2000/svg"><defs
     id="defs7"><inkscape:path-effect
       effect="envelope"
       id="path-effect15"
       is_visible="true"
       lpeversion="1"
       yy="true"
       xx="true"
       bendpath1="M 770.46344,2865.9788 H 951.36433"
       bendpath2="m 951.36433,2865.9788 v 431.5789"
       bendpath3="M 770.46344,3297.5577 H 951.36433"
       bendpath4="m 770.46344,2865.9788 v 431.5789" /><inkscape:path-effect
       effect="envelope"
       id="path-effect14"
       is_visible="true"
       lpeversion="1"
       yy="true"
       xx="true"
       bendpath1="M 770.46344,2865.9788 H 951.36433"
       bendpath2="m 951.36433,2865.9788 v 431.5789"
       bendpath3="M 770.46344,3297.5577 H 951.36433"
       bendpath4="m 770.46344,2865.9788 v 431.5789" /><inkscape:path-effect
       effect="clone_original"
       css_properties=""
       attributes="style,clip-path,mask"
       linkeditem="#rect11"
       is_visible="true"
       method="d"
       allow_transforms="true"
       id="path-effect13"
       lpeversion="1" /><inkscape:path-effect
       effect="perspective-envelope"
       up_left_point="538.33,2640.76"
       up_right_point="707.36844,2643.158"
       down_left_point="532.63159,3074.7369"
       down_right_point="707.36844,3074.7369"
       id="path-effect12"
       is_visible="true"
       lpeversion="1"
       deform_type="perspective"
       horizontal_mirror="false"
       vertical_mirror="false"
       overflow_perspective="false" /></defs><sodipodi:namedview
     id="namedview7"
     pagecolor="#ffffff"
     bordercolor="#666666"
     borderopacity="1.0"
     inkscape:showpageshadow="2"
     inkscape:pageopacity="0.0"
     inkscape:pagecheckerboard="0"
     inkscape:deskcolor="#d1d1d1"
     inkscape:zoom="0.2375"
     inkscape:cx="760"
     inkscape:cy="1585.2632"
     inkscape:window-width="1920"
     inkscape:window-height="1001"
     inkscape:window-x="-9"
     inkscape:window-y="-9"
     inkscape:window-maximized="1"
     inkscape:current-layer="svg7" /><style
     id="style1">
    .fur{fill:#8bb9a0}
    .paw{fill:#8bb9a0}
    .hand{fill:#8bb9a0}
    .outline{stroke:#000; stroke-width:256px; paint-order: markers stroke fill;}
    .iris{fill:#000}
    .sclera{fill:#ff6a00}
    .mouth{stroke:#542912}
    .tooth{fill:#fefbba}
    .left_leg,.right_leg{transform-origin: 50% 0%;}
    .right_leg{transform: translateX(0px);}
    .left_leg{transform: translateX(0px);}
  </style><path
     class="outline right_leg"
     d="m 600,1292 v 945 H 464 c -93,-2 -170,73 -170,166 0,95 76,170 170,170 h 299 c 99,3 179,-82 170,-181 V 1292"
     id="path1"
     inkscape:label="right_leg_outline"
     sodipodi:nodetypes="cccssccc" /><g
     id="g18"
     inkscape:label="bucket"><ellipse
       style="fill:#5f3e1d;fill-opacity:1;stroke:#000000;stroke-width:128;stroke-linejoin:round;stroke-dasharray:none;stroke-opacity:1;paint-order:normal"
       id="ellipse11"
       cx="605.77295"
       cy="2959.7122"
       rx="535.11395"
       ry="98.378883" /><path
       id="path15"
       style="fill:#5f3e1d;stroke:#000000;stroke-width:64;stroke-linejoin:round;paint-order:markers stroke fill"
       d="m 741.05264,2643.158 182.10527,-36.8421 66.31579,435.2631 -202.10527,28.9474 z"
       sodipodi:nodetypes="ccccc" /><path
       id="rect11"
       style="fill:#5f3e1d;stroke:#000000;stroke-width:64;stroke-linejoin:round;paint-order:markers stroke fill"
       d="m 492.63159,2643.158 214.73685,0 50.52632,429.4736 -306.3158,2.1053 z"
       sodipodi:nodetypes="ccccc" /><path
       id="path17"
       style="fill:#5f3e1d;stroke:#000000;stroke-width:64;stroke-linejoin:round;paint-order:markers stroke fill"
       d="M 260.52611,2595.7896 133.68405,2528.8422 37.894555,2955.158 185.78925,3027.3685 Z"
       sodipodi:nodetypes="ccccc" /><path
       id="path18"
       style="fill:#5f3e1d;stroke:#000000;stroke-width:64;stroke-linejoin:round;paint-order:markers stroke fill"
       d="m 471.0524,2643.158 -182.10525,-36.8421 -66.31579,435.2631 202.10524,28.9474 z"
       sodipodi:nodetypes="ccccc" /><path
       id="path16"
       style="fill:#5f3e1d;stroke:#000000;stroke-width:64;stroke-linejoin:round;paint-order:markers stroke fill"
       d="m 951.57895,2595.7896 126.84205,-66.9474 95.7895,434.3158 -147.8947,64.2105 z"
       sodipodi:nodetypes="ccccc" /><ellipse
       style="fill:#5f3e1d;fill-opacity:1;stroke:#000000;stroke-width:48;stroke-linejoin:round;stroke-dasharray:none;stroke-opacity:1;paint-order:normal"
       id="path11"
       cx="605.77295"
       cy="2527.7122"
       rx="479.85339"
       ry="88.219429" /><path
       style="fill:none;stroke:#666666;stroke-width:128;stroke-linecap:butt;stroke-linejoin:miter;stroke-dasharray:none;stroke-opacity:1"
       d="m 61.052632,2749.4737 c 0,0 274.761948,120 541.052638,120 266.29069,0 541.05263,-120 541.05263,-120"
       id="path19"
       sodipodi:nodetypes="czc" /><path
       id="ellipse23"
       style="fill:none;fill-opacity:1;stroke:#000000;stroke-width:64;stroke-linejoin:round;stroke-dasharray:none;stroke-opacity:1;paint-order:normal"
       d="m 605.77344,2439.4922 c -127.26625,0 -249.31992,9.2947 -339.31011,25.8393 -89.9902,16.5446 -140.54524,38.9839 -140.54341,62.3814 0.16239,4.1431 1.91217,8.279 5.23633,12.3769 l -93.261719,415.0684 39.560547,19.3164 c 11.273855,13.5752 37.881712,26.5661 78.111332,38.1367 l 30.22265,14.7578 1.16211,-6.7109 c 11.78912,2.7396 24.36357,5.3618 37.66992,7.8555 l -1.99023,13.0644 202.10547,28.9492 1.97461,-18.2168 c 8.87627,0.5562 17.83053,1.0694 26.85351,1.5391 l -1.98633,20.8867 306.31641,-2.1054 -2.19336,-18.6524 c 9.98404,-0.5141 19.8847,-1.0814 29.68945,-1.7012 l 1.97852,18.25 202.10547,-28.9492 -2.00586,-13.164 c 13.30815,-2.5019 25.88075,-5.1326 37.66405,-7.8809 l 1.1836,6.8359 44.0996,-19.1464 c 20.1665,-6.5486 36.1794,-13.501 47.7246,-20.7207 l 56.0703,-24.3438 -93.4023,-423.4902 c 3.0787,-3.9603 4.6886,-7.9546 4.8184,-11.9551 0,-23.3975 -50.5532,-45.8368 -140.54342,-62.3814 -89.9902,-16.5446 -212.04388,-25.8393 -339.31014,-25.8393 z"
       sodipodi:nodetypes="ssccccccccccccccccccccccccccss" /><circle
       style="fill:#1a1a1a;fill-opacity:1;stroke:none;stroke-width:268.8;stroke-linejoin:round;stroke-dasharray:none;stroke-opacity:1;paint-order:markers stroke fill"
       id="path20"
       cx="613.32208"
       cy="2868.6206"
       r="31.261562" /><use
       x="0"
       y="0"
       xlink:href="#path20"
       id="use21"
       transform="translate(-467.71318,-89.318751)" /><use
       x="0"
       y="0"
       xlink:href="#path20"
       id="use30"
       transform="translate(440.36079,-89.318751)" /></g><path
     class="outline right_leg"
     d="m 1328.3311,1692 v 945 h -136 c -93,-2 -170,73 -170,166 0,95 76,170 170,170 h 299 c 99,3 179,-82 170,-181 V 1692"
     id="path30"
     inkscape:label="right_leg_outline"
     sodipodi:nodetypes="cccssccc" /><path
     id="outline"
     class="outline"
     stroke-width="130"
     d="M95 91c-9 0-14 11-11 18 30 130 59 260 92 390 8 22 29 38 51 44 41 15 82 30 120 50-34 26-71 49-104 77a70 70 0 0 0-19 59c2 16 7 32 12 48 10 30 22 60 26 92 1 8 0 17-5 24-6 15-13 29-18 45-26 67-39 138-47 209-6 59-4 117-5 176a580 580 0 0 0 528 587c47 4 94 2 141 3l585-1a447 447 0 0 0 425-463c-1-112 1-224-3-336a733 733 0 0 0-52-231c-2-4 1-9 2-13l17-78 62-289 62-293c4-31 37-107 6-112-17-3-92 46-106 55l-160 82a7960 7960 0 0 1-351 166c-55-11-111-20-168-25a1146 1146 0 0 0-374 28c-167-73-333-147-499-222L100 91z"
     style="stroke:#000000;stroke-width:128;stroke-dasharray:none;fill:#000000;fill-opacity:1;stroke-opacity:1" /><path
     id="body"
     class="fur"
     d="M1443 1849a388 388 0 0 0 359-361c2-21 1-355-1-372-17-181-65-216-53-246 9-24 136-639 143-663 1-4 1-5-1-3-3 2-509 263-545 261-306-71-526-3-549 5-25-9-629-280-629-280s66 289 69 289c88 32 170 66 182 88 9 18 7 41-7 56-13 14-124 88-125 92-6 27 61 139 32 197-41 82-58 174-66 264-2 19-3 161-1 185a518 518 0 0 0 483 488c19 2 694 2 709 0z" /><path
     class="fur right_leg"
     d="M 600,1212 V 2237 H 464 c -93,-2 -170,73 -170,166 0,95 76,170 170,170 h 299 c 99,3 179,-82 170,-181 V 1212"
     id="path2"
     inkscape:label="right_leg_fill" /><path
     class="fur right_leg"
     d="m 1328.3081,1612 v 1025 h -136 c -93,-2 -170,73 -170,166 0,95 76,170 170,170 h 299 c 99,3 179,-82 170,-181 V 1612"
     id="path31"
     inkscape:label="left_leg_fill" /><g
     id="g30"
     inkscape:label="laces"><path
       style="fill:none;stroke:#ff0000;stroke-width:48;stroke-linecap:round;stroke-linejoin:miter;stroke-dasharray:none;stroke-opacity:1"
       d="m 868.81241,2834.8022 c 0,0 -117.04625,-551.2195 -300.14969,-601.8334"
       id="path27"
       sodipodi:nodetypes="cc" /><path
       style="fill:none;stroke:#ff0000;stroke-width:48;stroke-linecap:round;stroke-linejoin:miter;stroke-dasharray:none;stroke-opacity:1"
       d="m 342.2523,2834.4271 c 0,0 9.06812,-421.3321 117.73927,-596.9924"
       id="path28"
       sodipodi:nodetypes="cc" /><use
       x="0"
       y="0"
       xlink:href="#path20"
       id="use28"
       transform="translate(-270.51302,-31.539948)" /><use
       x="0"
       y="0"
       xlink:href="#path20"
       id="use29"
       transform="translate(257.95626,-31.539948)" /></g><g
     id="left_eye"><circle
       class="sclera"
       cx="1255"
       cy="976"
       r="227"
       id="circle4" /><circle
       cx="1220"
       cy="980"
       r="195"
       id="circle5" /><ellipse
       cx="153"
       cy="1469"
       fill="#fff"
       rx="99"
       ry="77"
       transform="rotate(-45)"
       id="ellipse5" /><path
       class="fur"
       style="mix-blend-mode:luminosity"
       d="M1294 1024c-8 3-15 9-18 16-9 17-20 29-32 34a32 32 0 1 0 24 60c31-13 52-38 66-64a32 32 0 0 0-40-46z"
       id="path5" /></g><use
     id="right_eye"
     href="#left_eye"
     transform="translate(-646)" /><path
     class="mouth"
     fill="none"
     stroke-linecap="round"
     stroke-linejoin="round"
     stroke-width="80"
     d="m640 1305 99 157 127-162 158 165 193-162"
     id="path6"
     inkscape:label="mouth" /><path
     class="tooth"
     d="m1135 1434 65 80a6 6 0 0 0 11-3l15-149a6 6 0 0 0-10-5l-80 66c-3 3-3 8-1 11z"
     id="path7"
     inkscape:label="tooth" /></svg>
