<?xml version="1.0" encoding="UTF-8" standalone="no"?>
<svg
   viewBox="0 0 2048 2048"
   version="1.1"
   id="svg1"
   sodipodi:docname="neogob_authority.svg"
   inkscape:export-filename="../neogob/neogob_authority.png"
   inkscape:export-xdpi="96"
   inkscape:export-ydpi="96"
   inkscape:version="1.3.2 (091e20e, 2023-11-25, custom)"
   xml:space="preserve"
   xmlns:inkscape="http://www.inkscape.org/namespaces/inkscape"
   xmlns:sodipodi="http://sodipodi.sourceforge.net/DTD/sodipodi-0.dtd"
   xmlns:xlink="http://www.w3.org/1999/xlink"
   xmlns="http://www.w3.org/2000/svg"
   xmlns:svg="http://www.w3.org/2000/svg"><defs
     id="defs1"><linearGradient
       id="linearGradient8"
       inkscape:collect="always"><stop
         style="stop-color:#23a1c6;stop-opacity:1;"
         offset="0"
         id="stop8" /><stop
         style="stop-color:#0c3744;stop-opacity:1;"
         offset="1"
         id="stop9" /></linearGradient><inkscape:path-effect
       effect="fillet_chamfer"
       id="path-effect6"
       is_visible="true"
       lpeversion="1"
       nodesatellites_param="F,0,0,1,0,0,0,1 @ F,0,0,1,0,0,0,1 @ F,0,0,1,0,20.354361,0,1 @ F,0,0,1,0,0,0,1 @ F,0,0,1,0,0,0,1 @ F,0,0,1,0,0,0,1 @ F,0,0,1,0,0,0,1 @ F,0,0,1,0,24.171759,0,1 @ F,0,0,1,0,0,0,1 @ F,0,0,1,0,0,0,1 @ F,0,0,1,0,0,0,1 @ F,0,0,1,0,0,0,1 @ F,0,0,1,0,25.130702,0,1 @ F,0,0,1,0,0,0,1 @ F,0,0,1,0,0,0,1 @ F,0,0,1,0,0,0,1 @ F,0,0,1,0,0,0,1 @ F,0,0,1,0,21.036697,0,1 @ F,0,0,1,0,0,0,1 @ F,0,0,1,0,0,0,1"
       radius="0"
       unit="px"
       method="auto"
       mode="F"
       chamfer_steps="1"
       flexible="false"
       use_knot_distance="true"
       apply_no_radius="true"
       apply_with_radius="true"
       only_selected="false"
       hide_knots="false" /><inkscape:path-effect
       effect="fillet_chamfer"
       id="path-effect4"
       is_visible="true"
       lpeversion="1"
       nodesatellites_param="F,0,0,1,0,0,0,1 @ F,0,0,1,0,0,0,1 @ F,0,0,1,0,20.354361,0,1 @ F,0,0,1,0,0,0,1 @ F,0,0,1,0,0,0,1 @ F,0,0,1,0,0,0,1 @ F,0,0,1,0,0,0,1 @ F,0,0,1,0,24.171759,0,1 @ F,0,0,1,0,0,0,1 @ F,0,0,1,0,0,0,1 @ F,0,0,1,0,0,0,1 @ F,0,0,1,0,0,0,1 @ F,0,0,1,0,25.130702,0,1 @ F,0,0,1,0,0,0,1 @ F,0,0,1,0,0,0,1 @ F,0,0,1,0,0,0,1 @ F,0,0,1,0,0,0,1 @ F,0,0,1,0,21.036697,0,1 @ F,0,0,1,0,0,0,1 @ F,0,0,1,0,0,0,1"
       radius="0"
       unit="px"
       method="auto"
       mode="F"
       chamfer_steps="1"
       flexible="false"
       use_knot_distance="true"
       apply_no_radius="true"
       apply_with_radius="true"
       only_selected="false"
       hide_knots="false" /><radialGradient
       inkscape:collect="always"
       xlink:href="#linearGradient8"
       id="radialGradient9"
       cx="1886.144"
       cy="161.49303"
       fx="1886.144"
       fy="161.49303"
       r="120.09061"
       gradientUnits="userSpaceOnUse"
       gradientTransform="matrix(0.01150756,-1.3981129,1.3636035,0.01122352,1973.6902,2798.6888)" /><filter
       inkscape:collect="always"
       style="color-interpolation-filters:sRGB"
       id="filter12"
       x="-0.26330902"
       y="-0.26330902"
       width="1.526618"
       height="1.526618"><feGaussianBlur
         inkscape:collect="always"
         stdDeviation="12.731779"
         id="feGaussianBlur12" /></filter><filter
       inkscape:collect="always"
       style="color-interpolation-filters:sRGB"
       id="filter13"
       x="-0.24061155"
       y="-0.24061155"
       width="1.481223"
       height="1.481223"><feGaussianBlur
         inkscape:collect="always"
         stdDeviation="10.431606"
         id="feGaussianBlur13" /></filter><filter
       inkscape:collect="always"
       style="color-interpolation-filters:sRGB"
       id="filter14"
       x="-0.13767537"
       y="-0.13767537"
       width="1.2753507"
       height="1.2753507"><feGaussianBlur
         inkscape:collect="always"
         stdDeviation="13.952094"
         id="feGaussianBlur14" /></filter></defs><sodipodi:namedview
     id="namedview1"
     pagecolor="#ffffff"
     bordercolor="#666666"
     borderopacity="1.0"
     inkscape:showpageshadow="2"
     inkscape:pageopacity="0.0"
     inkscape:pagecheckerboard="0"
     inkscape:deskcolor="#d1d1d1"
     inkscape:zoom="0.25584284"
     inkscape:cx="830.58803"
     inkscape:cy="693.78529"
     inkscape:window-width="1920"
     inkscape:window-height="1001"
     inkscape:window-x="-9"
     inkscape:window-y="-9"
     inkscape:window-maximized="1"
     inkscape:current-layer="svg1" /><style
     id="style1">.iris{fill:#000000}</style><g
     id="g1"
     inkscape:label="neogob"
     style="display:inline"><path
       id="outline"
       fill="none"
       stroke="#000000"
       stroke-width="130"
       d="m 84,119 c -9,0 -14,11 -11,18 30,130 59,260 92,390 8,22 29,38 51,44 41,15 82,30 120,50 -34,26 -71,49 -104,77 a 70,70 0 0 0 -19,59 c 2,16 7,32 12,48 10,30 22,60 26,92 1,8 0,17 -5,24 -6,15 -13,29 -18,45 -26,67 -39,138 -47,209 -6,59 -4,117 -5,176 a 580,580 0 0 0 528,587 c 47,4 94,2 141,3 l 585,-1 a 447,447 0 0 0 425,-463 c -1,-112 1,-224 -3,-336 a 733,733 0 0 0 -52,-231 c -2,-4 1,-9 2,-13 l 17,-78 62,-289 62,-293 c 4,-31 37,-107 6,-112 -17,-3 -92,46 -106,55 l -160,82 a 7960,7960 0 0 1 -351,166 c -55,-11 -111,-20 -168,-25 A 1146,1146 0 0 0 790,431 C 623,358 457,284 291,209 L 89,119 Z" /><path
       id="body"
       fill="#8bb9a0"
       d="m 1432,1877 a 388,388 0 0 0 359,-361 c 2,-21 1,-355 -1,-372 -17,-181 -65,-216 -53,-246 9,-24 136,-639 143,-663 1,-4 1,-5 -1,-3 -3,2 -509,263 -545,261 -306,-71 -526,-3 -549,5 -25,-9 -629,-280 -629,-280 0,0 66,289 69,289 88,32 170,66 182,88 9,18 7,41 -7,56 -13,14 -124,88 -125,92 -6,27 61,139 32,197 -41,82 -58,174 -66,264 -2,19 -3,161 -1,185 a 518,518 0 0 0 483,488 c 19,2 694,2 709,0 z" /><use
       x="0"
       y="0"
       xlink:href="#tooth"
       id="use4"
       transform="rotate(173.88666,1119.4866,1455.6221)" /><path
       id="mouth"
       fill="none"
       stroke="#542912"
       stroke-linecap="round"
       stroke-linejoin="round"
       stroke-width="80"
       d="m 635,1375 99,157 127,-162 158,165 193,-162" /><path
       id="tooth"
       fill="#fefbba"
       d="m 1130,1504 65,80 a 6,6 0 0 0 11,-3 l 15,-149 a 6,6 0 0 0 -10,-5 l -80,66 c -3,3 -3,8 -1,11 z" /><g
       id="left_eye"
       style="display:inline"
       transform="matrix(1.0126406,0,0,1.0126406,4.900408,-27.46072)"><circle
         id="sclera"
         cx="1226"
         cy="1004"
         r="227"
         fill="#fc5900"
         style="display:inline" /><path
         id="left_eye-9"
         style="display:inline;opacity:1;fill:#000000;fill-opacity:1;stroke-width:0.71809"
         class="iris"
         d="m 1224.7142,827.36946 c -32.8251,0 -59.2511,26.42599 -59.2511,59.25103 v 16.73733 a 20.354361,20.354361 135 0 1 -20.3544,20.35436 h -36.4876 c -32.825,0 -59.251,26.426 -59.251,59.25108 v 2.5729 c 0,32.82504 26.426,59.25104 59.251,59.25104 h 32.6702 a 24.171759,24.171759 45 0 1 24.1718,24.1718 v 52.4206 c 0,32.825 26.426,59.251 59.2511,59.251 h 2.571 c 32.825,0 59.251,-26.426 59.251,-59.251 v -51.4617 a 25.130702,25.130702 135 0 1 25.1307,-25.1307 h 31.7114 c 32.825,0 59.251,-26.426 59.251,-59.25104 v -2.5729 c 0,-32.82508 -26.426,-59.25108 -59.251,-59.25108 h -35.8054 a 21.036697,21.036697 45 0 1 -21.0367,-21.0367 v -16.05499 c 0,-32.82504 -26.426,-59.25103 -59.251,-59.25103 z"
         inkscape:path-effect="#path-effect4"
         inkscape:original-d="m 1224.7142,827.36946 c -32.8251,0 -59.2511,26.42599 -59.2511,59.25103 v 37.09169 h -56.842 c -32.825,0 -59.251,26.426 -59.251,59.25108 v 2.5729 c 0,32.82504 26.426,59.25104 59.251,59.25104 h 56.842 v 76.5924 c 0,32.825 26.426,59.251 59.2511,59.251 h 2.571 c 32.825,0 59.251,-26.426 59.251,-59.251 v -76.5924 h 56.8421 c 32.825,0 59.251,-26.426 59.251,-59.25104 v -2.5729 c 0,-32.82508 -26.426,-59.25108 -59.251,-59.25108 h -56.8421 v -37.09169 c 0,-32.82504 -26.426,-59.25103 -59.251,-59.25103 z"
         sodipodi:nodetypes="sscsssscsssscsssscsss" /></g><g
       id="#right_eye"
       style="display:inline"
       transform="matrix(1.0126406,0,0,1.0126406,-641.09959,-27.46072)"
       inkscape:label="right_eye"><circle
         id="circle4"
         cx="1226"
         cy="1004"
         r="227"
         fill="#fc5900"
         style="display:inline;fill:#fefe00;fill-opacity:1" /><path
         id="path4"
         style="display:inline;opacity:1;fill:#000000;fill-opacity:1;stroke-width:0.71809"
         class="iris"
         d="m 1224.7142,827.36946 c -32.8251,0 -59.2511,26.42599 -59.2511,59.25103 l 13.0698,37.61521 a 14.475716,14.475716 125.41987 0 1 -13.6739,19.22682 h -36.4876 c -32.825,0 -59.251,26.426 -59.251,59.25108 v 2.5729 c 0,32.825 26.426,59.251 59.251,59.251 h 32.6702 a 17.190599,17.190599 54.580122 0 1 16.2384,22.8327 l -11.8169,34.0094 c -10.7736,31.0066 26.426,59.251 59.2511,59.251 h 2.571 c 32.825,0 59.251,-26.426 59.251,-59.251 l 11.5021,-33.1035 a 35.336364,35.336364 144.58012 0 1 33.3789,-23.7386 l 31.7114,0 c 32.825,0 59.251,-26.426 59.251,-59.251 v -2.5729 c 0,-32.82508 -26.426,-59.25108 -59.251,-59.25108 h -35.8054 a 29.579781,29.579781 35.419867 0 1 -27.9412,-19.87135 l -12.8458,-36.97068 c -10.7736,-31.00666 -26.426,-59.25103 -59.251,-59.25103 z"
         inkscape:path-effect="#path-effect6"
         inkscape:original-d="m 1224.7142,827.36946 c -32.8251,0 -59.2511,26.42599 -59.2511,59.25103 l 19.7503,56.84203 h -56.842 c -32.825,0 -59.251,26.426 -59.251,59.25108 v 2.5729 c 0,32.825 26.426,59.251 59.251,59.251 h 56.842 l -19.7503,56.8421 c -10.7736,31.0066 26.426,59.251 59.2511,59.251 h 2.571 c 32.825,0 59.251,-26.426 59.251,-59.251 l 19.7503,-56.8421 h 56.8421 c 32.825,0 59.251,-26.426 59.251,-59.251 v -2.5729 c 0,-32.82508 -26.426,-59.25108 -59.251,-59.25108 h -56.8421 l -19.7503,-56.84203 c -10.7736,-31.00666 -26.426,-59.25103 -59.251,-59.25103 z"
         sodipodi:nodetypes="sscsssscsssscsssscsss" /></g><g
       id="g6"
       inkscape:label="ear_mushroom"
       transform="translate(-390.86495,-11.725949)"><path
         id="use9"
         style="display:inline;opacity:1;mix-blend-mode:normal;fill:#000000;fill-opacity:1;stroke:none;stroke-width:197.253;stroke-linecap:round;stroke-linejoin:round;stroke-dasharray:none"
         d="m 2241.873,31.970703 c -42.7641,0.699217 -85.0844,18.034201 -115.8359,47.800781 -9.8576,9.552063 -18.6531,20.217408 -25.9961,31.820316 -49.7315,-10.04529 -103.0355,-2.74565 -147.7127,21.51038 -25.1846,13.67773 -47.4906,32.92625 -63.8516,56.52418 -17.608,25.28421 -27.9224,55.76195 -28.394,86.62802 -0.5352,30.86857 8.6753,61.73016 25.5735,87.52654 15.1536,23.3046 36.0401,42.69282 59.9226,56.83036 31.6474,18.77115 68.2636,28.79305 105.0015,29.61787 1.0396,0.0231 2.0791,0.0441 3.1189,0.0482 27.0496,39.77648 67.995,69.97608 114.1381,83.6779 41.655,12.6219 87.2433,12.1429 128.5109,-1.79052 34.5561,-11.52928 66.0789,-32.08566 90.4296,-59.19453 24.7218,-27.32817 42.1602,-61.20163 49.911,-97.23642 7.7145,-35.52597 6.2673,-73.06799 -4.6287,-107.77921 -4.3945,-14.11284 -10.2882,-27.76063 -17.5699,-40.62448 6.2084,-43.23329 -4.9351,-88.75254 -30.696,-124.05935 -21.9071,-30.484851 -54.0812,-53.507028 -90.1193,-64.105041 -16.7707,-5.001919 -34.3027,-7.438175 -51.8019,-7.194986 z" /><use
         x="0"
         y="0"
         xlink:href="#circle7"
         id="use7"
         transform="matrix(-1.2008826,0,0,1,4751.5697,75.241501)"
         style="opacity:0.8;mix-blend-mode:lighten;filter:url(#filter12)" /><use
         x="0"
         y="0"
         xlink:href="#circle7"
         id="use8"
         transform="matrix(1.2967071,-0.32773608,0.32773608,1.2967071,-748.33722,802.28645)"
         style="opacity:0.8;mix-blend-mode:lighten;filter:url(#filter13)" /><circle
         style="display:inline;opacity:0.8;mix-blend-mode:lighten;fill:url(#radialGradient9);fill-opacity:1;stroke:none;stroke-width:180;stroke-linecap:round;stroke-linejoin:round;stroke-dasharray:none;filter:url(#filter14)"
         id="circle7"
         cx="2244.6277"
         cy="203.53453"
         r="121.60863" /></g></g><g
     id="g829"
     transform="matrix(0.78225014,-0.13619517,0.13619517,0.78225014,-259.68369,133.16213)"
     style="display:inline"
     inkscape:label="authority_point"><path
       id="path2"
       style="fill:#000000;fill-opacity:1"
       d="m 1263.9609,59.339844 c -51.8851,5.222401 -89.5407,60.996326 -86.4146,109.734716 -19.1995,53.26292 -27.3822,125.19513 22.4915,164.71864 39.1116,33.43053 90.3332,7.794 135.5285,10.67774 49.6826,-7.17131 11.7905,67.59855 14.5119,98.01877 -15.4257,93.99271 -45.1498,192.20029 -14.4766,286.34037 -67.0387,3.54886 -103.776,75.3756 -102.6005,135.89024 -4.0972,78.23283 51.114,155.93248 129.7375,170.20658 63.6887,17.3294 145.5475,10.4507 183.3835,-50.99601 38.5728,-68.25678 43.358,-164.10557 -12.417,-224.72972 53.412,-110.17424 83.5505,-230.36395 106.3082,-350.2061 -0.2719,-31.77678 8.6174,-50.335 43.0445,-40.50561 62.3126,-0.4833 132.8752,-5.89092 180.4908,-50.83586 49.1015,-50.54092 35.033,-148.60315 -34.1329,-173.781 -93.5762,-32.888 -193.0092,-44.793813 -290.5535,-60.551953 -91.109,-12.586722 -182.7945,-23.846576 -274.9013,-23.980803 z" /><path
       id="shape06"
       style="fill:#ef7b93;fill-opacity:1"
       d="m 1402.6914,778.5918 c -6.5349,0.10431 -12.6073,3.76347 -16.636,8.76557 -7.2079,8.76101 -9.2414,21.14453 -6.1774,31.95629 3.1906,11.37348 11.565,21.2319 22.4273,25.95176 8.1405,3.69591 17.1366,4.76245 25.9583,5.47239 4.9727,0.4827 10.0266,0.71878 14.8516,2.1118 1.4922,0.47582 3.1198,1.30339 3.5673,2.93615 1.1039,2.9274 1.1163,6.1088 1.356,9.18888 0.1768,5.32266 -0.5824,10.95664 -3.6694,15.43356 -3.0551,4.24718 -8.1288,6.62553 -13.2236,7.29 -0.6892,0.099 -1.1156,0.15304 -1.8173,0.21786 -7.85,0.68406 -15.7316,-1.31361 -22.8223,-4.59575 -5.2456,-2.48793 -10.2284,-5.72129 -14.1912,-10.00014 -5.7977,-6.42682 -9.1234,-14.6162 -11.6017,-22.79967 -3.2316,-10.56449 -5.2662,-21.56552 -9.9962,-31.61816 -3.185,-6.51959 -7.9654,-12.52209 -14.4726,-15.94979 -6.3869,-3.4594 -14.0773,-4.85309 -21.1783,-3.03059 -6.8539,1.89438 -12.5276,6.7594 -16.607,12.45587 -6.1023,8.4092 -9.6263,18.37781 -11.9861,28.41457 -3.3721,14.77263 -3.9014,30.1669 -1.7921,45.16256 2.4171,16.79107 8.5571,33.23826 18.9328,46.75867 7.2439,9.50729 16.5173,17.44577 27.0162,23.1565 8.0272,4.4359 16.7351,7.50805 25.6024,9.77243 16.357,4.37847 33.2442,7.03506 50.2007,7.03784 11.617,-0.0606 23.3748,-1.52245 34.2742,-5.69993 8.7433,-3.39361 16.8617,-8.77214 22.6745,-16.20799 3.3247,-4.17729 5.7381,-8.9838 7.7588,-13.90201 7.2527,-16.7362 11.8224,-34.65784 13.2808,-52.84573 1.3662,-17.33052 -0.2557,-35.14467 -6.6388,-51.41915 -4.6918,-12.01022 -12.1269,-23.01084 -21.9052,-31.45985 -9.0482,-7.91972 -19.9213,-13.59165 -31.3799,-17.13307 -13.4931,-4.2176 -27.7187,-5.58468 -41.8058,-5.42087 z" /><path
       id="shape011"
       style="fill:#ef7b93;fill-opacity:1"
       d="m 1429.4043,243.61328 c -3.2784,3.77818 -6.5542,7.56193 -9.8301,11.34375 3.4552,11.9719 6.3084,24.13073 8.1387,36.46209 0.6031,3.93373 1.1503,8.10014 1.5941,12.15114 0.4936,4.45668 0.8801,8.92454 1.2047,13.39654 0.048,0.85371 0.1224,1.99641 0.1805,2.96112 0.2445,4.07743 0.4166,8.35082 0.5197,12.52053 0.1493,6.02136 0.1514,12.33104 0.025,18.36501 -0.145,6.02563 -0.3998,12.04434 -0.755,17.99709 -1.483,24.73564 -4.8165,49.44209 -8.8407,73.93644 -6.4748,39.10035 -14.8217,77.88481 -21.2461,117.02212 -4.5039,27.88541 -8.0175,56.05955 -7.6899,84.35617 0.2755,20.87334 2.853,41.88212 9.5028,61.73817 5.3507,15.8432 13.2692,30.92194 24.0095,43.78555 4.5725,5.11588 12.1369,7.31846 18.7253,5.34767 5.9128,-1.66578 10.7347,-5.86593 14.5593,-10.53019 6.8256,-8.27384 11.8901,-17.80486 16.6912,-27.34574 10.0807,-20.35572 18.3151,-41.55912 26.1196,-62.87151 11.6075,-31.8766 21.781,-64.26147 31.1145,-96.87074 12.8288,-44.89904 23.9249,-90.30567 32.8031,-136.15425 5.7166,-29.82429 10.4279,-59.8686 13.1811,-90.12072 1.1793,-13.51215 1.868,-27.06851 1.9531,-40.63282 -2.9239,-2.83649 -4.9825,-6.65502 -8.6949,-8.60207 -1.2411,-0.6263 -2.6865,-0.70203 -4.0348,-0.99124 -12.8681,-2.36799 -25.5273,-5.78433 -37.9366,-9.91867 -21.8289,-7.25384 -43.0749,-16.31531 -65.386,-22.07157 -11.5136,-3.00422 -23.2847,-4.92307 -35.1078,-6.19965 -0.2669,0.30859 -0.5339,0.61719 -0.8008,0.92578 z" /><path
       id="shape0111"
       style="fill:#ef7b93;fill-opacity:1"
       d="m 1021.4766,261.67969 c -81.49186,0.39564 -162.98761,2.29816 -244.37068,6.59136 -42.01838,2.23549 -84.00684,5.31615 -125.81295,10.1352 -1.19911,0.0614 -2.08964,1.00129 -2.625,1.99805 -3.7724,5.27497 -7.51157,10.57639 -11.27149,15.86132 0.97366,3.43378 2.07555,7.05374 2.61329,10.4629 0.56156,3.29836 0.57676,6.68476 -0.0255,9.97832 -1.47063,10.2315 -4.71514,20.21344 -4.91005,30.61738 -0.22758,9.98333 1.55287,20.19176 6.28603,29.05891 2.69238,3.95191 7.03977,6.23269 11.16369,8.39473 2.85264,1.65975 6.29236,2.06954 9.51254,1.50143 5.86194,-0.65121 11.48474,-2.53787 17.27242,-3.59598 8.24569,-1.73491 16.49831,-3.41616 24.81178,-4.8868 20.46782,-3.67044 41.0532,-6.52911 61.61499,-8.86968 16.47231,-1.88614 32.99743,-3.43916 49.5582,-4.78074 58.89878,-4.78846 118.05445,-6.90893 177.12115,-9.81053 42.76408,-2.10858 85.56318,-4.32371 128.11218,-9.24194 17.9682,-2.10636 35.8989,-4.67723 53.6238,-8.32826 15.1973,-3.15152 30.2781,-7.05202 44.832,-12.48363 8.1074,-3.06155 16.0828,-6.57263 23.5231,-11.03636 8.2539,-5.56493 12.2545,-16.79273 9.0762,-26.27592 -2.1936,-7.04999 -7.9836,-12.63755 -14.7834,-15.30521 -5.0231,-2.03235 -10.4229,-2.83357 -15.7358,-3.72391 -9.0262,-1.3091 -18.1346,-1.9011 -27.2221,-2.60256 -25.3719,-1.75158 -50.8047,-2.3482 -76.2251,-2.94097 -32.0421,-0.6286 -64.0917,-0.77771 -96.1393,-0.71711 z"
       transform="matrix(0.92809322,0.16158746,-0.24140327,1.386523,730.0851,-361.49109)" /></g></svg>
