<?xml version="1.0" encoding="UTF-8" standalone="no"?>
<svg
   viewBox="0 0 2048 2048"
   version="1.1"
   id="svg1"
   sodipodi:docname="neogob_blep.svg"
   inkscape:export-filename="..\png\neogob_blep.png"
   inkscape:export-xdpi="12"
   inkscape:export-ydpi="12"
   inkscape:version="1.3.2 (091e20e, 2023-11-25, custom)"
   xml:space="preserve"
   xmlns:inkscape="http://www.inkscape.org/namespaces/inkscape"
   xmlns:sodipodi="http://sodipodi.sourceforge.net/DTD/sodipodi-0.dtd"
   xmlns="http://www.w3.org/2000/svg"
   xmlns:svg="http://www.w3.org/2000/svg"><defs
     id="defs1"><inkscape:path-effect
       effect="powerclip"
       id="path-effect17509"
       is_visible="true"
       lpeversion="1"
       inverse="true"
       flatten="false"
       hide_clip="false"
       message="Use fill-rule evenodd on &lt;b&gt;fill and stroke&lt;/b&gt; dialog if no flatten result after convert clip to paths." /><inkscape:path-effect
       effect="powerclip"
       id="path-effect17492"
       is_visible="true"
       lpeversion="1"
       inverse="true"
       flatten="false"
       hide_clip="false"
       message="Use fill-rule evenodd on &lt;b&gt;fill and stroke&lt;/b&gt; dialog if no flatten result after convert clip to paths." /><inkscape:path-effect
       effect="powerclip"
       id="path-effect17482"
       is_visible="true"
       lpeversion="1"
       inverse="true"
       flatten="false"
       hide_clip="false"
       message="Use fill-rule evenodd on &lt;b&gt;fill and stroke&lt;/b&gt; dialog if no flatten result after convert clip to paths." /><inkscape:path-effect
       effect="powermask"
       id="path-effect7"
       is_visible="true"
       lpeversion="1"
       uri="#mask-powermask-path-effect7"
       invert="false"
       hide_mask="false"
       background="true"
       background_color="#ffffffff" /><linearGradient
       id="swatch3"
       inkscape:swatch="solid"><stop
         style="stop-color:#000000;stop-opacity:1;"
         offset="0"
         id="stop3" /></linearGradient><clipPath
       clipPathUnits="userSpaceOnUse"
       id="clipPath11"><ellipse
         style="fill:#d84848;fill-opacity:1;stroke:none;stroke-width:2.53246;stroke-linecap:round;stroke-linejoin:round;stroke-opacity:1"
         id="ellipse11"
         ry="4.6219215"
         rx="4.8717556"
         cy="59.085651"
         cx="33.935734" /></clipPath><clipPath
       clipPathUnits="userSpaceOnUse"
       id="clipPath17488"><path
         style="display:none;fill:none;stroke:none;stroke-width:0.0219128px;stroke-linecap:butt;stroke-linejoin:miter;stroke-opacity:1"
         d="m 72.021239,30.382498 11.80099,5.87171 4.67334,0.680511 0.08141,-15.183025 -10.746163,-1.424681 -8.873728,1.01763 -1.506087,8.833021 z"
         id="path17490" /><path
         id="lpe_path-effect17492"
         style="fill:none;stroke:none;stroke-width:0.0219128px;stroke-linecap:butt;stroke-linejoin:miter;stroke-opacity:1"
         class="powerclip"
         d="M 66.155438,22.148583 H 89.313342 V 45.306487 H 66.155438 Z m 5.865801,8.233915 11.80099,5.87171 4.67334,0.680511 0.08141,-15.183025 -10.746163,-1.424681 -8.873728,1.01763 -1.506087,8.833021 z" /></clipPath><clipPath
       clipPathUnits="userSpaceOnUse"
       id="clipPath17505"><path
         style="display:none;fill:#ff0000;stroke:none;stroke-width:0.0219128px;stroke-linecap:butt;stroke-linejoin:miter;stroke-opacity:1"
         d="M 83.698836,31.075033 71.279018,34.642366 62.259955,29.70756 86.149847,17.185502 Z"
         id="path17507"
         sodipodi:nodetypes="ccccc" /><path
         id="lpe_path-effect17509"
         style="display:block;fill:#ff0000;stroke:none;stroke-width:0.0219128px;stroke-linecap:butt;stroke-linejoin:miter;stroke-opacity:1"
         class="powerclip"
         d="M 66.155438,22.148583 H 89.313342 V 45.306487 H 66.155438 Z m 17.543398,8.92645 2.451011,-13.889531 -23.889892,12.522058 9.019063,4.934806 z" /></clipPath><filter
       style="color-interpolation-filters:sRGB;"
       inkscape:label="Silhouette"
       id="filter1503"><feFlood
         flood-opacity="1"
         flood-color="rgb(42,152,14)"
         result="flood"
         id="feFlood1497" /><feComposite
         in="flood"
         in2="SourceGraphic"
         operator="in"
         result="composite"
         id="feComposite1499" /><feGaussianBlur
         stdDeviation="0.01"
         id="feGaussianBlur1501" /></filter><filter
       style="color-interpolation-filters:sRGB;"
       inkscape:label="Silhouette"
       id="filter1555"><feFlood
         flood-opacity="1"
         flood-color="rgb(0,0,0)"
         result="flood"
         id="feFlood1549" /><feComposite
         in="flood"
         in2="SourceGraphic"
         operator="in"
         result="composite"
         id="feComposite1551" /><feGaussianBlur
         stdDeviation="0.01"
         id="feGaussianBlur1553" /></filter><filter
       style="color-interpolation-filters:sRGB;"
       inkscape:label="Silhouette"
       id="filter1482"><feFlood
         flood-opacity="1"
         flood-color="rgb(42,152,14)"
         result="flood"
         id="feFlood1476" /><feComposite
         in="flood"
         in2="SourceGraphic"
         operator="in"
         result="composite"
         id="feComposite1478" /><feGaussianBlur
         stdDeviation="0.01"
         id="feGaussianBlur1480" /></filter><filter
       style="color-interpolation-filters:sRGB;"
       inkscape:label="Silhouette"
       id="filter1490"><feFlood
         flood-opacity="1"
         flood-color="rgb(42,152,14)"
         result="flood"
         id="feFlood1484" /><feComposite
         in="flood"
         in2="SourceGraphic"
         operator="in"
         result="composite"
         id="feComposite1486" /><feGaussianBlur
         stdDeviation="0.01"
         id="feGaussianBlur1488" /></filter><inkscape:path-effect
       effect="fillet_chamfer"
       id="path-effect4"
       is_visible="true"
       lpeversion="1"
       nodesatellites_param="F,0,0,1,0,0,0,1 @ F,0,0,1,0,15,0,1 @ F,0,0,1,0,15,0,1 @ F,0,0,1,0,0,0,1"
       radius="0"
       unit="px"
       method="auto"
       mode="F"
       chamfer_steps="1"
       flexible="false"
       use_knot_distance="true"
       apply_no_radius="true"
       apply_with_radius="true"
       only_selected="false"
       hide_knots="false" /><inkscape:path-effect
       effect="fillet_chamfer"
       id="path-effect30-0-3-9"
       is_visible="true"
       lpeversion="1"
       nodesatellites_param="F,0,0,1,0,0,0,1 @ F,0,0,1,0,0,0,1 @ F,0,0,1,0,8.2056445,0,1 @ F,0,0,1,0,0,0,1 @ F,0,0,1,0,0,0,1"
       radius="0"
       unit="px"
       method="auto"
       mode="F"
       chamfer_steps="1"
       flexible="false"
       use_knot_distance="true"
       apply_no_radius="true"
       apply_with_radius="true"
       only_selected="false"
       hide_knots="false" /><inkscape:path-effect
       effect="fillet_chamfer"
       id="path-effect30-0-3-9-6"
       is_visible="true"
       lpeversion="1"
       nodesatellites_param="F,0,0,1,0,0,0,1 @ F,0,0,1,0,0,0,1 @ F,0,0,1,0,8.2056445,0,1 @ F,0,0,1,0,0,0,1 @ F,0,0,1,0,0,0,1"
       radius="0"
       unit="px"
       method="auto"
       mode="F"
       chamfer_steps="1"
       flexible="false"
       use_knot_distance="true"
       apply_no_radius="true"
       apply_with_radius="true"
       only_selected="false"
       hide_knots="false" /><clipPath
       clipPathUnits="userSpaceOnUse"
       id="clipPath2435"><circle
         style="fill:#2a980e;fill-opacity:1;stroke-width:4.62185;stroke-linecap:round;stroke-linejoin:round;paint-order:markers fill stroke"
         id="circle2437"
         cx="-184.52806"
         cy="392.00177"
         r="59.811947"
         clip-path="none"
         transform="rotate(-75)"
         mask="none"
         inkscape:label="eye_clip" /></clipPath></defs><sodipodi:namedview
     id="namedview1"
     pagecolor="#ffffff"
     bordercolor="#666666"
     borderopacity="1.0"
     inkscape:showpageshadow="2"
     inkscape:pageopacity="0.0"
     inkscape:pagecheckerboard="0"
     inkscape:deskcolor="#d1d1d1"
     inkscape:zoom="0.25584284"
     inkscape:cx="631.24691"
     inkscape:cy="1467.6979"
     inkscape:window-width="1920"
     inkscape:window-height="1001"
     inkscape:window-x="-9"
     inkscape:window-y="-9"
     inkscape:window-maximized="1"
     inkscape:current-layer="svg1" /><path
     id="outline"
     fill="none"
     stroke="#000"
     stroke-width="130"
     d="M84 119c-9 0-14 11-11 18 30 130 59 260 92 390 8 22 29 38 51 44 41 15 82 30 120 50-34 26-71 49-104 77a70 70 0 0 0-19 59c2 16 7 32 12 48 10 30 22 60 26 92 1 8 0 17-5 24-6 15-13 29-18 45-26 67-39 138-47 209-6 59-4 117-5 176a580 580 0 0 0 528 587c47 4 94 2 141 3l585-1a447 447 0 0 0 425-463c-1-112 1-224-3-336a733 733 0 0 0-52-231c-2-4 1-9 2-13l17-78 62-289 62-293c4-31 37-107 6-112-17-3-92 46-106 55l-160 82a7960 7960 0 0 1-351 166c-55-11-111-20-168-25a1146 1146 0 0 0-374 28c-167-73-333-147-499-222L89 119h-5Z" /><path
     id="body"
     fill="#8bb9a0"
     d="M1432 1877a388 388 0 0 0 359-361c2-21 1-355-1-372-17-181-65-216-53-246 9-24 136-639 143-663 1-4 1-5-1-3-3 2-509 263-545 261-306-71-526-3-549 5-25-9-629-280-629-280s66 289 69 289c88 32 170 66 182 88 9 18 7 41-7 56-13 14-124 88-125 92-6 27 61 139 32 197-41 82-58 174-66 264-2 19-3 161-1 185a518 518 0 0 0 483 488c19 2 694 2 709 0z" /><style
     id="style1">.iris{fill:#000000}</style><path
     id="tooth"
     fill="#fefbba"
     d="m 1130,1484 65,80 a 6,6 0 0 0 11,-3 l 15,-149 a 6,6 0 0 0 -10,-5 l -80,66 c -3,3 -3,8 -1,11 z" /><path
     id="tongue"
     style="display:inline;fill:#cf4d4c;stroke-width:1.00497"
     inkscape:label="blep tongue"
     d="m 774.31639,1391.5391 v 145.0915 h 0.0228 c 0.36084,0 0.66091,1.694 0.66471,3.7679 0.0114,6.4458 1.92196,15.9796 5.13914,25.6425 13.82593,41.5272 50.53682,71.1618 94.25183,76.0882 15.08318,1.7017 33.90772,-0.4747 49.33654,-5.6937 38.09728,-12.8953 68.8106,-49.9632 73.54332,-88.7518 0.92679,-10.3732 1.8308,-10.9316 1.8308,-10.9316 l -0.12915,-0.1215 h 0.12915 v -145.0915 z"
     sodipodi:nodetypes="ccscssscccccc"
     inkscape:transform-center-x="-1.7018764"
     inkscape:transform-center-y="51.373323"><animateTransform
       attributeName="transform"
       type="rotate"
       values="-30 234.0615 398.802;30 234.0615 398.802;-30 234.0615 398.802"
       dur="1s"
       repeatCount="indefinite" /></path><path
     id="mouth"
     fill="none"
     stroke="#542912"
     stroke-linecap="round"
     stroke-linejoin="round"
     stroke-width="80"
     d="m 635,1355 99,157 127,-162 158,165 193,-162"
     style="fill:#8bb9a0;fill-opacity:1" /><rect
     id="left_eye-9"
     class="iris"
     width="256"
     height="324"
     x="1085.8839"
     y="830.21594"
     ry="130"
     style="fill:#fc5900;fill-opacity:1" /><use
     id="right_eye"
     href="#left_eye-9"
     transform="translate(-576)"
     x="0"
     y="0" /></svg>
