<?xml version="1.0" encoding="UTF-8" standalone="no"?>
<svg
   viewBox="0 0 2048 2048"
   version="1.1"
   id="svg1"
   sodipodi:docname="neogob_happy.svg"
   inkscape:export-filename="..\png\neogob_happy.png"
   inkscape:export-xdpi="12"
   inkscape:export-ydpi="12"
   inkscape:version="1.3.2 (091e20e, 2023-11-25, custom)"
   xml:space="preserve"
   xmlns:inkscape="http://www.inkscape.org/namespaces/inkscape"
   xmlns:sodipodi="http://sodipodi.sourceforge.net/DTD/sodipodi-0.dtd"
   xmlns="http://www.w3.org/2000/svg"
   xmlns:svg="http://www.w3.org/2000/svg"><defs
     id="defs1" /><sodipodi:namedview
     id="namedview1"
     pagecolor="#ffffff"
     bordercolor="#666666"
     borderopacity="1.0"
     inkscape:showpageshadow="2"
     inkscape:pageopacity="0.0"
     inkscape:pagecheckerboard="0"
     inkscape:deskcolor="#d1d1d1"
     inkscape:zoom="0.25584284"
     inkscape:cx="983.02537"
     inkscape:cy="1162.8233"
     inkscape:window-width="1920"
     inkscape:window-height="1001"
     inkscape:window-x="-9"
     inkscape:window-y="-9"
     inkscape:window-maximized="1"
     inkscape:current-layer="svg1" /><path
     id="outline"
     fill="none"
     stroke="#000"
     stroke-width="130"
     d="M84 119c-9 0-14 11-11 18 30 130 59 260 92 390 8 22 29 38 51 44 41 15 82 30 120 50-34 26-71 49-104 77a70 70 0 0 0-19 59c2 16 7 32 12 48 10 30 22 60 26 92 1 8 0 17-5 24-6 15-13 29-18 45-26 67-39 138-47 209-6 59-4 117-5 176a580 580 0 0 0 528 587c47 4 94 2 141 3l585-1a447 447 0 0 0 425-463c-1-112 1-224-3-336a733 733 0 0 0-52-231c-2-4 1-9 2-13l17-78 62-289 62-293c4-31 37-107 6-112-17-3-92 46-106 55l-160 82a7960 7960 0 0 1-351 166c-55-11-111-20-168-25a1146 1146 0 0 0-374 28c-167-73-333-147-499-222L89 119h-5Z" /><path
     id="body"
     fill="#8bb9a0"
     d="M1432 1877a388 388 0 0 0 359-361c2-21 1-355-1-372-17-181-65-216-53-246 9-24 136-639 143-663 1-4 1-5-1-3-3 2-509 263-545 261-306-71-526-3-549 5-25-9-629-280-629-280s66 289 69 289c88 32 170 66 182 88 9 18 7 41-7 56-13 14-124 88-125 92-6 27 61 139 32 197-41 82-58 174-66 264-2 19-3 161-1 185a518 518 0 0 0 483 488c19 2 694 2 709 0z" /><path
     id="mouth"
     fill="none"
     stroke="#542912"
     stroke-linecap="round"
     stroke-linejoin="round"
     stroke-width="80"
     d="m 635,1379 99,157 127,-162 158,165 193,-162" /><path
     id="tooth"
     fill="#fefbba"
     d="m 1130,1508 65,80 a 6,6 0 0 0 11,-3 l 15,-149 a 6,6 0 0 0 -10,-5 l -80,66 c -3,3 -3,8 -1,11 z" /><path
     style="font-variation-settings:normal;display:inline;fill:none;fill-opacity:1;stroke:#fc5900;stroke-width:102;stroke-linecap:round;stroke-linejoin:round;stroke-miterlimit:4;stroke-dasharray:none;stroke-dashoffset:0;stroke-opacity:1;stop-color:#000000"
     d="m 1376.4228,928.17851 c -96.5404,-21.07703 -205.341,0.39631 -255.8455,95.93889"
     id="path1"
     sodipodi:nodetypes="cc"
     inkscape:label="eye_left" /><path
     style="font-variation-settings:normal;display:inline;fill:none;fill-opacity:1;stroke:#fc5900;stroke-width:102;stroke-linecap:round;stroke-linejoin:round;stroke-miterlimit:4;stroke-dasharray:none;stroke-dashoffset:0;stroke-opacity:1;stop-color:#000000"
     d="m 511.27371,928.13283 c 70.9748,-15.20389 187.0306,3.16014 224.4069,95.93897"
     id="path3"
     sodipodi:nodetypes="cc"
     inkscape:label="eye_right" /></svg>
