<?xml version="1.0" encoding="UTF-8" standalone="no"?>
<svg
   viewBox="0 0 2048 2048"
   version="1.1"
   id="svg1"
   sodipodi:docname="neogob_doubt.svg"
   inkscape:export-filename="../neogob/neogob_authority.png"
   inkscape:export-xdpi="96"
   inkscape:export-ydpi="96"
   inkscape:version="1.3.2 (091e20e, 2023-11-25, custom)"
   xml:space="preserve"
   xmlns:inkscape="http://www.inkscape.org/namespaces/inkscape"
   xmlns:sodipodi="http://sodipodi.sourceforge.net/DTD/sodipodi-0.dtd"
   xmlns:xlink="http://www.w3.org/1999/xlink"
   xmlns="http://www.w3.org/2000/svg"
   xmlns:svg="http://www.w3.org/2000/svg"><defs
     id="defs1"><inkscape:path-effect
       effect="fillet_chamfer"
       id="path-effect6"
       is_visible="true"
       lpeversion="1"
       nodesatellites_param="F,0,0,1,0,0,0,1 @ F,0,0,1,0,0,0,1 @ F,0,0,1,0,20.354361,0,1 @ F,0,0,1,0,0,0,1 @ F,0,0,1,0,0,0,1 @ F,0,0,1,0,0,0,1 @ F,0,0,1,0,0,0,1 @ F,0,0,1,0,24.171759,0,1 @ F,0,0,1,0,0,0,1 @ F,0,0,1,0,0,0,1 @ F,0,0,1,0,0,0,1 @ F,0,0,1,0,0,0,1 @ F,0,0,1,0,25.130702,0,1 @ F,0,0,1,0,0,0,1 @ F,0,0,1,0,0,0,1 @ F,0,0,1,0,0,0,1 @ F,0,0,1,0,0,0,1 @ F,0,0,1,0,21.036697,0,1 @ F,0,0,1,0,0,0,1 @ F,0,0,1,0,0,0,1"
       radius="0"
       unit="px"
       method="auto"
       mode="F"
       chamfer_steps="1"
       flexible="false"
       use_knot_distance="true"
       apply_no_radius="true"
       apply_with_radius="true"
       only_selected="false"
       hide_knots="false" /><inkscape:path-effect
       effect="fillet_chamfer"
       id="path-effect4"
       is_visible="true"
       lpeversion="1"
       nodesatellites_param="F,0,0,1,0,0,0,1 @ F,0,0,1,0,0,0,1 @ F,0,0,1,0,20.354361,0,1 @ F,0,0,1,0,0,0,1 @ F,0,0,1,0,0,0,1 @ F,0,0,1,0,0,0,1 @ F,0,0,1,0,0,0,1 @ F,0,0,1,0,24.171759,0,1 @ F,0,0,1,0,0,0,1 @ F,0,0,1,0,0,0,1 @ F,0,0,1,0,0,0,1 @ F,0,0,1,0,0,0,1 @ F,0,0,1,0,25.130702,0,1 @ F,0,0,1,0,0,0,1 @ F,0,0,1,0,0,0,1 @ F,0,0,1,0,0,0,1 @ F,0,0,1,0,0,0,1 @ F,0,0,1,0,21.036697,0,1 @ F,0,0,1,0,0,0,1 @ F,0,0,1,0,0,0,1"
       radius="0"
       unit="px"
       method="auto"
       mode="F"
       chamfer_steps="1"
       flexible="false"
       use_knot_distance="true"
       apply_no_radius="true"
       apply_with_radius="true"
       only_selected="false"
       hide_knots="false" /></defs><sodipodi:namedview
     id="namedview1"
     pagecolor="#ffffff"
     bordercolor="#666666"
     borderopacity="1.0"
     inkscape:showpageshadow="2"
     inkscape:pageopacity="0.0"
     inkscape:pagecheckerboard="0"
     inkscape:deskcolor="#d1d1d1"
     inkscape:zoom="0.25584284"
     inkscape:cx="771.95829"
     inkscape:cy="928.30427"
     inkscape:window-width="1920"
     inkscape:window-height="1001"
     inkscape:window-x="-9"
     inkscape:window-y="-9"
     inkscape:window-maximized="1"
     inkscape:current-layer="g1" /><style
     id="style1">.iris{fill:#000000}</style><g
     id="g1"
     inkscape:label="neogob"
     style="display:inline"><path
       id="outline"
       fill="none"
       stroke="#000000"
       stroke-width="130"
       d="m 84,119 c -9,0 -14,11 -11,18 30,130 59,260 92,390 8,22 29,38 51,44 41,15 82,30 120,50 -34,26 -71,49 -104,77 a 70,70 0 0 0 -19,59 c 2,16 7,32 12,48 10,30 22,60 26,92 1,8 0,17 -5,24 -6,15 -13,29 -18,45 -26,67 -39,138 -47,209 -6,59 -4,117 -5,176 a 580,580 0 0 0 528,587 c 47,4 94,2 141,3 l 585,-1 a 447,447 0 0 0 425,-463 c -1,-112 1,-224 -3,-336 a 733,733 0 0 0 -52,-231 c -2,-4 1,-9 2,-13 l 17,-78 62,-289 62,-293 c 4,-31 37,-107 6,-112 -17,-3 -92,46 -106,55 l -160,82 a 7960,7960 0 0 1 -351,166 c -55,-11 -111,-20 -168,-25 A 1146,1146 0 0 0 790,431 C 623,358 457,284 291,209 L 89,119 Z" /><path
       id="body"
       fill="#8bb9a0"
       d="m 1432,1877 a 388,388 0 0 0 359,-361 c 2,-21 1,-355 -1,-372 -17,-181 -65,-216 -53,-246 9,-24 136,-639 143,-663 1,-4 1,-5 -1,-3 -3,2 -509,263 -545,261 -306,-71 -526,-3 -549,5 -25,-9 -629,-280 -629,-280 0,0 66,289 69,289 88,32 170,66 182,88 9,18 7,41 -7,56 -13,14 -124,88 -125,92 -6,27 61,139 32,197 -41,82 -58,174 -66,264 -2,19 -3,161 -1,185 a 518,518 0 0 0 483,488 c 19,2 694,2 709,0 z" /><g
       id="g7"
       inkscape:label="mouth"><path
         id="mouth"
         fill="none"
         stroke="#542912"
         stroke-linecap="round"
         stroke-linejoin="round"
         stroke-width="80"
         d="m 783.74899,1592 127,-162 158.00001,165"
         sodipodi:nodetypes="ccc" /><path
         style="fill:#000000;stroke:#000000;stroke-width:1px;stroke-linecap:butt;stroke-linejoin:miter;stroke-opacity:1"
         d="m 917.87245,1389.7734 c 2.47201,71.6881 -431.42857,251.4286 -431.42857,121.4285 0,-168.5714 460.57143,-332.8571 460.57143,-332.8571 0,0 473.71439,252.8572 473.71439,364.2857 0,147.1428 -502.85725,-45.7143 -502.85725,-152.8571 z"
         id="path5027"
         sodipodi:nodetypes="cscsc"
         inkscape:label="mustache" /><path
         id="path6"
         fill="#fefbba"
         d="m 1075.1008,1475.5734 c 10.6712,-8.5321 31.106,-9.5945 30.5565,12.4172 l -0.807,76.5864 c -0.036,3.6601 -4.7306,5.37 -7.2809,2.6521 l -51.1167,-53.5259 c -1.8669,-2.2013 -1.5144,-5.5314 0.083,-7.3938 z"
         style="stroke-width:0.682794"
         sodipodi:nodetypes="ccccccc"
         inkscape:label="tooth" /></g><g
       id="g6"
       inkscape:label="eyes"
       transform="translate(0,60)"><path
         id="left_eye-4"
         fill="#ca51b9"
         d="m 1117.8023,814.0123 c 0,-70.6925 57.3076,-127.99993 128,-127.99993 70.6924,0 128,57.30743 128,127.99993 v 64 c 0,70.6925 -57.3076,127.9999 -128,127.9999 -70.6924,0 -128,-57.3074 -128,-127.9999 z"
         display="inline"
         sodipodi:nodetypes="sssssss"
         transform="translate(-32.702937,82.38892)"
         style="fill:#fc5900;fill-opacity:1" /><use
         id="right_eye"
         href="#left_eye-4"
         x="0"
         y="0"
         transform="translate(-569.00004)" /><path
         style="fill:none;stroke:#000000;stroke-width:80;stroke-linecap:round;stroke-linejoin:miter;stroke-dasharray:none;stroke-opacity:1"
         d="m 1056.526,750.68896 c 98.8071,-61.84076 228.3787,-58.69227 316.418,-0.0457"
         id="path18"
         sodipodi:nodetypes="cc" /><use
         x="0"
         y="0"
         xlink:href="#path18"
         id="use18"
         transform="matrix(-0.99999999,0,0,1,1852.9442,99.61133)"
         style="stroke:#fccfe8;stroke-opacity:1" /></g></g><g
     inkscape:label="vest"
     id="layer1"
     transform="translate(-32.702937,82.38892)"><g
       id="g5"
       transform="translate(80)"><path
         style="display:inline;opacity:1;fill:#ff501a;fill-opacity:1;stroke:none;stroke-width:120;stroke-linecap:round;stroke-linejoin:round;stroke-dasharray:none;stroke-opacity:1"
         d="M 1544.4285,1158.7143 1720.7143,1090 l 147.4285,-5 C 1941,1235 1928,1665.4286 1906.5714,1862.5714 l -198,34.5715 L 1541.4286,1844"
         id="path4-3"
         sodipodi:nodetypes="cccccc" /><path
         style="fill:none;stroke:#d8d8d8;stroke-width:80;stroke-linecap:butt;stroke-linejoin:miter;stroke-dasharray:none;stroke-opacity:1"
         d="m 1885,1486.1429 c -33.5714,0 -270,66.8571 -344.2857,66.1428"
         id="path2-6"
         sodipodi:nodetypes="cc" /><path
         style="fill:none;stroke:#d8d8d8;stroke-width:80;stroke-linecap:butt;stroke-linejoin:miter;stroke-dasharray:none;stroke-opacity:1"
         d="m 1885,1618.1429 c -33.5714,0 -270,66.8571 -344.2857,66.1428"
         id="path5"
         sodipodi:nodetypes="cc" /><path
         style="display:inline;opacity:1;fill:none;fill-opacity:1;stroke:#000000;stroke-width:120;stroke-linecap:round;stroke-linejoin:round;stroke-dasharray:none;stroke-opacity:1"
         d="M 1596.4285,1158.7143 1720.7143,1090 l 147.4285,-5 C 1941,1235 1928,1665.4286 1906.5714,1862.5714 l -198,34.5715 L 1533.4286,1844"
         id="path1-2"
         sodipodi:nodetypes="cccccc" /></g><use
       x="0"
       y="0"
       xlink:href="#g5"
       id="use5"
       transform="matrix(-1,0,0,1,2097.1057,4)" /></g><g
     id="g829"
     transform="matrix(0.78225014,-0.13619517,0.13619517,0.78225014,-259.68369,133.16213)"
     style="display:inline"
     inkscape:label="irony_point"><path
       id="path2"
       style="fill:#000000;fill-opacity:1"
       d="m 1542.8591,117.83803 c -48.0689,12.25707 -62.9177,5.63091 -110.5911,20.13843 -38.2837,10.71305 -61.8807,28.99802 -69.2654,71.62912 -7.3847,42.6311 0.6157,62.14957 30.0666,84.54034 36.778,41.12379 56.399,93.86054 75.1496,144.8951 -60.9136,71.40001 -131.4624,148.24626 -135.1137,247.43672 1.3401,25.8851 8.0709,46.88287 -25.4137,45.67219 -68.3635,26.92482 -87.3295,112.85993 -72.6066,178.38475 13.1494,68.70358 73.8239,121.45552 142.4762,130.25002 63.7999,14.4555 143.7412,-0.3875 175.5106,-63.95332 34.8001,-69.50954 36.9697,-163.52534 -20.179,-222.14779 33.0932,-13.05546 60.3132,-79.30254 94.2407,-46.66874 39.0687,28.42727 98.5672,30.81932 132.1706,-7.6779 42.7777,-48.52538 25.5306,-118.20169 17.5148,-175.83206 12.0313,-37.59976 50.5878,-69.79423 67.5228,-108.90833 13.2062,-30.08934 -10.4313,-73.11706 -35.8991,-94.83065 -38.0189,-39.36666 -83.3249,-88.82794 -117.9206,-114.23142 -34.5957,-25.40348 -38.7598,-54.22938 -56.7596,-79.20695 -8.9515,-24.98049 -69.2553,-2.80543 -90.9031,-9.48951 z"
       sodipodi:nodetypes="cczccccccccccccczcc" /><path
       id="shape06"
       style="fill:#ef7b93;fill-opacity:1"
       d="m 1402.6914,778.5918 c -6.5349,0.10431 -12.6073,3.76347 -16.636,8.76557 -7.2079,8.76101 -9.2414,21.14453 -6.1774,31.95629 3.1906,11.37348 11.565,21.2319 22.4273,25.95176 8.1405,3.69591 17.1366,4.76245 25.9583,5.47239 4.9727,0.4827 10.0266,0.71878 14.8516,2.1118 1.4922,0.47582 3.1198,1.30339 3.5673,2.93615 1.1039,2.9274 1.1163,6.1088 1.356,9.18888 0.1768,5.32266 -0.5824,10.95664 -3.6694,15.43356 -3.0551,4.24718 -8.1288,6.62553 -13.2236,7.29 -0.6892,0.099 -1.1156,0.15304 -1.8173,0.21786 -7.85,0.68406 -15.7316,-1.31361 -22.8223,-4.59575 -5.2456,-2.48793 -10.2284,-5.72129 -14.1912,-10.00014 -5.7977,-6.42682 -9.1234,-14.6162 -11.6017,-22.79967 -3.2316,-10.56449 -5.2662,-21.56552 -9.9962,-31.61816 -3.185,-6.51959 -7.9654,-12.52209 -14.4726,-15.94979 -6.3869,-3.4594 -14.0773,-4.85309 -21.1783,-3.03059 -6.8539,1.89438 -12.5276,6.7594 -16.607,12.45587 -6.1023,8.4092 -9.6263,18.37781 -11.9861,28.41457 -3.3721,14.77263 -3.9014,30.1669 -1.7921,45.16256 2.4171,16.79107 8.5571,33.23826 18.9328,46.75867 7.2439,9.50729 16.5173,17.44577 27.0162,23.1565 8.0272,4.4359 16.7351,7.50805 25.6024,9.77243 16.357,4.37847 33.2442,7.03506 50.2007,7.03784 11.617,-0.0606 23.3748,-1.52245 34.2742,-5.69993 8.7433,-3.39361 16.8617,-8.77214 22.6745,-16.20799 3.3247,-4.17729 5.7381,-8.9838 7.7588,-13.90201 7.2527,-16.7362 11.8224,-34.65784 13.2808,-52.84573 1.3662,-17.33052 -0.2557,-35.14467 -6.6388,-51.41915 -4.6918,-12.01022 -12.1269,-23.01084 -21.9052,-31.45985 -9.0482,-7.91972 -19.9213,-13.59165 -31.3799,-17.13307 -13.4931,-4.2176 -27.7187,-5.58468 -41.8058,-5.42087 z" /><path
       id="shape011"
       style="fill:#ef7b93;fill-opacity:1"
       d="m 1663.5431,278.44492 c -4.7282,1.6328 -9.457,3.27172 -14.1849,4.90893 -2.9937,12.09557 -6.6022,24.05202 -11.1828,35.64644 -1.4445,3.70826 -3.0538,7.59008 -4.695,11.32025 -1.8009,4.1064 -3.7001,8.16893 -5.655,12.20409 -0.3853,0.76334 -0.8922,1.79014 -1.3242,2.65466 -1.827,3.65341 -3.8146,7.44032 -5.8102,11.10294 -2.8814,5.28931 -6.0344,10.7547 -9.1609,15.91707 -3.1384,5.14585 -6.3684,10.2308 -9.6524,15.20844 -13.6521,20.68019 -28.8922,40.40985 -44.6244,59.61048 -25.1576,30.6245 -51.7784,60.03938 -76.9108,90.72108 -17.8432,21.89752 -34.9731,44.54025 -48.8377,69.20964 -10.1981,18.21459 -18.4703,37.69748 -22.6394,58.21822 -3.2878,16.39596 -3.9695,33.41379 -1.1,49.92415 1.402,6.71673 6.8517,12.40642 13.5428,13.99387 5.9535,1.51379 12.2295,0.2873 17.8738,-1.83976 10.0481,-3.75256 19.1996,-9.47442 28.1279,-15.33651 18.908,-12.58822 36.6409,-26.8337 54.056,-41.38852 25.9907,-21.8022 50.9936,-44.76157 75.3813,-68.33528 33.5596,-32.46931 65.8724,-66.24455 96.4854,-101.51149 19.8629,-22.97029 38.9652,-46.63377 56.4756,-71.45628 7.7773,-11.11221 15.152,-22.50802 22.0078,-34.2125 -1.1139,-3.91843 -0.9875,-8.25467 -3.229,-11.79706 -0.7616,-1.16295 -1.9755,-1.95123 -2.9986,-2.87584 -9.9601,-8.48479 -19.2151,-17.77303 -27.8947,-27.55812 -15.2775,-17.19646 -29.1463,-35.66693 -45.5902,-51.80754 -8.4689,-8.35853 -17.7036,-15.90586 -27.3044,-22.92296 -0.3854,0.1338 -0.7709,0.26755 -1.1564,0.40135 z" /><path
       id="path1"
       style="fill:#ef7b93;fill-opacity:1"
       d="m 1436.1467,216.06276 c -0.95,4.91119 -1.8952,9.82594 -2.8412,14.73898 8.9781,8.64046 17.5286,17.74367 25.2793,27.50779 2.4891,3.10516 5.0463,6.43972 7.456,9.72618 2.6558,3.61282 5.2246,7.28879 7.7416,10.99933 0.4685,0.71547 1.1043,1.66777 1.637,2.47414 2.2504,3.40902 4.5362,7.0237 6.7102,10.58332 3.14,5.13993 6.2968,10.60326 9.2042,15.89204 2.8873,5.29088 5.676,10.63059 8.3447,15.96356 11.0835,22.16303 20.5499,45.22619 29.312,68.45106 13.9428,37.09929 26.1065,74.86102 40.1114,111.96717 10.0422,26.40142 21.0865,52.55774 35.5184,76.89958 10.6753,17.93902 23.4119,34.84446 39.0987,48.71539 12.5555,11.04532 26.9524,20.14459 42.6857,25.91464 6.5178,2.14427 14.1701,0.26946 18.8904,-4.73145 4.2878,-4.39899 6.3636,-10.44741 7.3437,-16.39902 1.7742,-10.57821 1.3946,-21.3645 0.7821,-32.02778 -1.4478,-22.66882 -4.9182,-45.1488 -8.8156,-67.50803 -5.8858,-33.40979 -13.2678,-66.54264 -21.4894,-99.44986 -11.3395,-45.29803 -24.4332,-90.16942 -39.6688,-134.31455 -9.9613,-28.68688 -20.9034,-57.06171 -33.6451,-84.63741 -5.7349,-12.29149 -11.9166,-24.37606 -18.625,-36.16556 -3.9504,-0.99459 -7.6426,-3.27206 -11.8311,-3.10216 -1.388,0.0781 -2.6775,0.73524 -3.9899,1.15892 -12.3281,4.3833 -24.9994,7.75426 -37.8134,10.37855 -22.5313,4.63251 -45.4615,7.4079 -67.6617,13.57853 -11.4731,3.15494 -22.6266,7.37878 -33.504,12.18476 -0.077,0.40067 -0.1539,0.80141 -0.2306,1.20212 z" /></g></svg>
