<?xml version="1.0" encoding="UTF-8" standalone="no"?>
<svg
   viewBox="0 0 2048 2048"
   version="1.1"
   id="svg1"
   sodipodi:docname="neogob_!.svg"
   inkscape:export-filename="../neogob/neogob_!.png"
   inkscape:export-xdpi="96"
   inkscape:export-ydpi="96"
   inkscape:version="1.3.2 (091e20e, 2023-11-25, custom)"
   xml:space="preserve"
   xmlns:inkscape="http://www.inkscape.org/namespaces/inkscape"
   xmlns:sodipodi="http://sodipodi.sourceforge.net/DTD/sodipodi-0.dtd"
   xmlns="http://www.w3.org/2000/svg"
   xmlns:svg="http://www.w3.org/2000/svg"><defs
     id="defs1" /><sodipodi:namedview
     id="namedview1"
     pagecolor="#ffffff"
     bordercolor="#666666"
     borderopacity="1.0"
     inkscape:showpageshadow="2"
     inkscape:pageopacity="0.0"
     inkscape:pagecheckerboard="0"
     inkscape:deskcolor="#d1d1d1"
     inkscape:zoom="0.25584284"
     inkscape:cx="349.82413"
     inkscape:cy="1096.3762"
     inkscape:window-width="1920"
     inkscape:window-height="1001"
     inkscape:window-x="-9"
     inkscape:window-y="-9"
     inkscape:window-maximized="1"
     inkscape:current-layer="svg1" /><style
     id="style1">.iris{fill:#000000}</style><g
     id="g1"
     inkscape:label="neogob"
     style="display:inline"><path
       id="outline"
       fill="none"
       stroke="#000000"
       stroke-width="130"
       d="m 84,119 c -9,0 -14,11 -11,18 30,130 59,260 92,390 8,22 29,38 51,44 41,15 82,30 120,50 -34,26 -71,49 -104,77 a 70,70 0 0 0 -19,59 c 2,16 7,32 12,48 10,30 22,60 26,92 1,8 0,17 -5,24 -6,15 -13,29 -18,45 -26,67 -39,138 -47,209 -6,59 -4,117 -5,176 a 580,580 0 0 0 528,587 c 47,4 94,2 141,3 l 585,-1 a 447,447 0 0 0 425,-463 c -1,-112 1,-224 -3,-336 a 733,733 0 0 0 -52,-231 c -2,-4 1,-9 2,-13 l 17,-78 62,-289 62,-293 c 4,-31 37,-107 6,-112 -17,-3 -92,46 -106,55 l -160,82 a 7960,7960 0 0 1 -351,166 c -55,-11 -111,-20 -168,-25 A 1146,1146 0 0 0 790,431 C 623,358 457,284 291,209 L 89,119 Z" /><path
       id="body"
       fill="#8bb9a0"
       d="m 1432,1877 a 388,388 0 0 0 359,-361 c 2,-21 1,-355 -1,-372 -17,-181 -65,-216 -53,-246 9,-24 136,-639 143,-663 1,-4 1,-5 -1,-3 -3,2 -509,263 -545,261 -306,-71 -526,-3 -549,5 -25,-9 -629,-280 -629,-280 0,0 66,289 69,289 88,32 170,66 182,88 9,18 7,41 -7,56 -13,14 -124,88 -125,92 -6,27 61,139 32,197 -41,82 -58,174 -66,264 -2,19 -3,161 -1,185 a 518,518 0 0 0 483,488 c 19,2 694,2 709,0 z" /><path
       id="mouth"
       fill="none"
       stroke="#542912"
       stroke-linecap="round"
       stroke-linejoin="round"
       stroke-width="80"
       d="m 635,1375 99,157 127,-162 158,165 193,-162" /><path
       id="tooth"
       fill="#fefbba"
       d="m 1130,1504 65,80 a 6,6 0 0 0 11,-3 l 15,-149 a 6,6 0 0 0 -10,-5 l -80,66 c -3,3 -3,8 -1,11 z" /><g
       id="left_eye"
       style="display:inline"
       transform="matrix(1.0126406,0,0,1.0126406,4.900408,-27.46072)"><circle
         id="sclera"
         cx="1226"
         cy="1004"
         r="227"
         fill="#fc5900"
         style="display:inline" /><rect
         id="left_eye-9"
         class="iris"
         width="218.6472"
         height="257.73264"
         x="1070.2267"
         y="878.35107"
         ry="106.89419"
         style="display:inline;opacity:1;fill:#000000;fill-opacity:1;stroke-width:0.82426"
         rx="109.53909" /></g><use
       id="#right_eye"
       href="#left_eye"
       transform="translate(-646)"
       x="0"
       y="0" /></g><g
     id="g829"
     transform="matrix(0.78225014,-0.13619517,0.13619517,0.78225014,-259.68369,133.16213)"
     style="display:inline"
     inkscape:label="exclamation_point"><path
       id="path1"
       style="fill:#000000;fill-opacity:1"
       d="m 1408.0078,170.0332 c -4.9241,0.0952 -10.0476,2.3578 -12.6484,6.68555 -3.4102,6.06368 -8.2702,11.21712 -13.1469,16.02745 -8.9655,8.94288 -18.7411,17.21343 -26.2205,27.51968 -5.3251,7.23818 -9.2062,15.80132 -9.775,24.85566 -0.437,6.25895 0.9129,12.51359 3.1708,18.3274 0.8217,2.18636 1.4157,4.39616 2.0751,6.58506 1.1748,3.95502 2.1692,7.82512 3.1243,11.86478 1.7133,7.25217 3.0722,14.58633 4.114,21.9645 0.1346,0.9756 0.2912,2.10037 0.4166,3.11542 1.034,8.0243 1.6774,16.01447 2.0228,24.07826 0.4117,10.23505 0.3562,20.67009 -0.151,30.97683 -0.4795,10.35323 -1.3926,20.63599 -2.5769,30.95931 -0.4604,3.97831 -0.9419,7.82019 -1.475,11.78879 -4.4658,33.07412 -11.4106,65.81618 -17.5054,98.66904 -3.4849,18.59391 -6.5411,37.2652 -9.4766,55.95269 -4.3656,28.65703 -7.3616,57.61767 -6.9085,86.63882 0.4435,27.31092 4.124,54.72354 12.6852,80.72514 0.048,0.50613 0.7212,1.39455 0.3413,1.63937 -25.8683,3.74594 -50.4714,16.33943 -68.2703,35.53659 -10.2696,11.06972 -18.0469,24.44063 -22.5433,38.85838 -2.5341,6.90879 -4.8654,13.90314 -6.5565,21.07118 -8.134,33.26755 -6.5547,68.75638 3.9773,101.30971 8.6159,26.55543 23.4884,51.29813 44.0538,70.30803 13.0339,12.07556 28.2643,21.85106 44.8826,28.20056 27.4078,10.8524 56.5476,17.76 86.0702,18.7383 23.0862,0.7234 46.4597,-2.4417 68.0864,-10.7374 11.8597,-4.508 23.2802,-10.4485 33.1245,-18.5165 14.2619,-11.4872 25.564,-26.39394 33.7089,-42.74106 10.4062,-20.66101 16.2195,-43.34883 19.3527,-66.18501 1.4806,-10.96796 2.4243,-22.01959 2.5745,-33.08918 0.01,-31.62315 -8.3153,-63.45492 -25.1849,-90.31485 -4.9132,-7.7787 -10.5355,-15.1147 -16.8398,-21.81836 27.1733,-53.02464 46.904,-109.50635 63.3527,-166.66663 9.8141,-34.08011 18.5749,-68.45294 27.0385,-102.89014 14.0047,-60.22943 24.9512,-121.41657 27.8474,-183.28173 0.8023,-16.86446 0.9034,-33.75841 0.4938,-50.63611 -14.6056,-11.59616 -28.7067,-24.0061 -44.8453,-33.48509 -13.2403,-7.78432 -28.0791,-13.2202 -43.473,-14.34255 -1.6172,-0.25154 -3.0898,-1.04239 -4.6632,-1.4704 -32.7199,-11.14556 -65.2531,-23.40074 -99.2771,-30.04416 -13.5731,-2.64282 -27.3363,-4.44298 -41.169,-4.8109 -1.8765,-0.22268 -3.577,-0.89973 -5.5001,-1.05588 -1.4237,-0.22954 -2.8651,-0.32971 -4.3067,-0.31055 z" /><path
       id="shape06"
       style="fill:#ef7b93;fill-opacity:1"
       d="m 1402.6914,778.5918 c -6.5349,0.10431 -12.6073,3.76347 -16.636,8.76557 -7.2079,8.76101 -9.2414,21.14453 -6.1774,31.95629 3.1906,11.37348 11.565,21.2319 22.4273,25.95176 8.1405,3.69591 17.1366,4.76245 25.9583,5.47239 4.9727,0.4827 10.0266,0.71878 14.8516,2.1118 1.4922,0.47582 3.1198,1.30339 3.5673,2.93615 1.1039,2.9274 1.1163,6.1088 1.356,9.18888 0.1768,5.32266 -0.5824,10.95664 -3.6694,15.43356 -3.0551,4.24718 -8.1288,6.62553 -13.2236,7.29 -0.6892,0.099 -1.1156,0.15304 -1.8173,0.21786 -7.85,0.68406 -15.7316,-1.31361 -22.8223,-4.59575 -5.2456,-2.48793 -10.2284,-5.72129 -14.1912,-10.00014 -5.7977,-6.42682 -9.1234,-14.6162 -11.6017,-22.79967 -3.2316,-10.56449 -5.2662,-21.56552 -9.9962,-31.61816 -3.185,-6.51959 -7.9654,-12.52209 -14.4726,-15.94979 -6.3869,-3.4594 -14.0773,-4.85309 -21.1783,-3.03059 -6.8539,1.89438 -12.5276,6.7594 -16.607,12.45587 -6.1023,8.4092 -9.6263,18.37781 -11.9861,28.41457 -3.3721,14.77263 -3.9014,30.1669 -1.7921,45.16256 2.4171,16.79107 8.5571,33.23826 18.9328,46.75867 7.2439,9.50729 16.5173,17.44577 27.0162,23.1565 8.0272,4.4359 16.7351,7.50805 25.6024,9.77243 16.357,4.37847 33.2442,7.03506 50.2007,7.03784 11.617,-0.0606 23.3748,-1.52245 34.2742,-5.69993 8.7433,-3.39361 16.8617,-8.77214 22.6745,-16.20799 3.3247,-4.17729 5.7381,-8.9838 7.7588,-13.90201 7.2527,-16.7362 11.8224,-34.65784 13.2808,-52.84573 1.3662,-17.33052 -0.2557,-35.14467 -6.6388,-51.41915 -4.6918,-12.01022 -12.1269,-23.01084 -21.9052,-31.45985 -9.0482,-7.91972 -19.9213,-13.59165 -31.3799,-17.13307 -13.4931,-4.2176 -27.7187,-5.58468 -41.8058,-5.42087 z" /><path
       id="shape011"
       style="fill:#ef7b93;fill-opacity:1"
       d="m 1429.4043,243.61328 c -3.2784,3.77818 -6.5542,7.56193 -9.8301,11.34375 3.4552,11.9719 6.3084,24.13073 8.1387,36.46209 0.6031,3.93373 1.1503,8.10014 1.5941,12.15114 0.4936,4.45668 0.8801,8.92454 1.2047,13.39654 0.048,0.85371 0.1224,1.99641 0.1805,2.96112 0.2445,4.07743 0.4166,8.35082 0.5197,12.52053 0.1493,6.02136 0.1514,12.33104 0.025,18.36501 -0.145,6.02563 -0.3998,12.04434 -0.755,17.99709 -1.483,24.73564 -4.8165,49.44209 -8.8407,73.93644 -6.4748,39.10035 -14.8217,77.88481 -21.2461,117.02212 -4.5039,27.88541 -8.0175,56.05955 -7.6899,84.35617 0.2755,20.87334 2.853,41.88212 9.5028,61.73817 5.3507,15.8432 13.2692,30.92194 24.0095,43.78555 4.5725,5.11588 12.1369,7.31846 18.7253,5.34767 5.9128,-1.66578 10.7347,-5.86593 14.5593,-10.53019 6.8256,-8.27384 11.8901,-17.80486 16.6912,-27.34574 10.0807,-20.35572 18.3151,-41.55912 26.1196,-62.87151 11.6075,-31.8766 21.781,-64.26147 31.1145,-96.87074 12.8288,-44.89904 23.9249,-90.30567 32.8031,-136.15425 5.7166,-29.82429 10.4279,-59.8686 13.1811,-90.12072 1.1793,-13.51215 1.868,-27.06851 1.9531,-40.63282 -2.9239,-2.83649 -4.9825,-6.65502 -8.6949,-8.60207 -1.2411,-0.6263 -2.6865,-0.70203 -4.0348,-0.99124 -12.8681,-2.36799 -25.5273,-5.78433 -37.9366,-9.91867 -21.8289,-7.25384 -43.0749,-16.31531 -65.386,-22.07157 -11.5136,-3.00422 -23.2847,-4.92307 -35.1078,-6.19965 -0.2669,0.30859 -0.5339,0.61719 -0.8008,0.92578 z" /></g></svg>
