<?xml version="1.0" encoding="UTF-8" standalone="no"?>
<svg
   viewBox="0 0 2048 2048"
   version="1.1"
   id="svg1"
   sodipodi:docname="neogob_yell.svg"
   inkscape:export-filename="..\png\neogob_yell.png"
   inkscape:export-xdpi="12"
   inkscape:export-ydpi="12"
   inkscape:version="1.3.2 (091e20e, 2023-11-25, custom)"
   xml:space="preserve"
   xmlns:inkscape="http://www.inkscape.org/namespaces/inkscape"
   xmlns:sodipodi="http://sodipodi.sourceforge.net/DTD/sodipodi-0.dtd"
   xmlns="http://www.w3.org/2000/svg"
   xmlns:svg="http://www.w3.org/2000/svg"><defs
     id="defs1"><clipPath
       clipPathUnits="userSpaceOnUse"
       id="clipPath2"><path
         id="path3"
         style="font-variation-settings:'wght' 400;display:inline;fill:#a01919;fill-opacity:1;stroke:none;stroke-width:55.3196;stroke-linecap:round;stroke-linejoin:round;paint-order:markers fill stroke"
         d="m 789.14081,1341.2756 c -95.89069,-0.4967 -185.62215,47.7828 -206.97848,159.7216 -20.82786,72.3896 26.47158,162.4957 94.27753,202.3428 44.45194,27.7877 78.90508,23.9792 129.78842,22.1093 105.17202,-0.6174 210.41032,1.0062 315.54102,-0.7893 78.4426,-6.8319 147.1854,-70.7702 155.251,-147.4091 15.062,-107.3682 -48.0408,-217.7663 -158.6299,-233.3482 -35.0216,-4.9244 -92.24,-1.6958 -127.60452,-2.6271 z"
         inkscape:label="mouth"
         sodipodi:nodetypes="ccccccccc" /></clipPath></defs><sodipodi:namedview
     id="namedview1"
     pagecolor="#ffffff"
     bordercolor="#666666"
     borderopacity="1.0"
     inkscape:showpageshadow="2"
     inkscape:pageopacity="0.0"
     inkscape:pagecheckerboard="0"
     inkscape:deskcolor="#d1d1d1"
     inkscape:zoom="0.36181641"
     inkscape:cx="1001.8893"
     inkscape:cy="1297.6194"
     inkscape:window-width="1920"
     inkscape:window-height="1001"
     inkscape:window-x="-9"
     inkscape:window-y="-9"
     inkscape:window-maximized="1"
     inkscape:current-layer="svg1" /><path
     id="outline"
     fill="none"
     stroke="#000"
     stroke-width="130"
     d="M84 119c-9 0-14 11-11 18 30 130 59 260 92 390 8 22 29 38 51 44 41 15 82 30 120 50-34 26-71 49-104 77a70 70 0 0 0-19 59c2 16 7 32 12 48 10 30 22 60 26 92 1 8 0 17-5 24-6 15-13 29-18 45-26 67-39 138-47 209-6 59-4 117-5 176a580 580 0 0 0 528 587c47 4 94 2 141 3l585-1a447 447 0 0 0 425-463c-1-112 1-224-3-336a733 733 0 0 0-52-231c-2-4 1-9 2-13l17-78 62-289 62-293c4-31 37-107 6-112-17-3-92 46-106 55l-160 82a7960 7960 0 0 1-351 166c-55-11-111-20-168-25a1146 1146 0 0 0-374 28c-167-73-333-147-499-222L89 119h-5Z" /><path
     id="body"
     fill="#8bb9a0"
     d="M1432 1877a388 388 0 0 0 359-361c2-21 1-355-1-372-17-181-65-216-53-246 9-24 136-639 143-663 1-4 1-5-1-3-3 2-509 263-545 261-306-71-526-3-549 5-25-9-629-280-629-280s66 289 69 289c88 32 170 66 182 88 9 18 7 41-7 56-13 14-124 88-125 92-6 27 61 139 32 197-41 82-58 174-66 264-2 19-3 161-1 185a518 518 0 0 0 483 488c19 2 694 2 709 0z" /><style
     id="style1">.iris{fill:#000000}</style><rect
     id="left_eye-9"
     class="iris"
     width="256"
     height="324"
     x="1085.8839"
     y="830.21594"
     ry="130"
     style="fill:#fc5900;fill-opacity:1" /><use
     id="right_eye"
     href="#left_eye-9"
     transform="translate(-576)"
     x="0"
     y="0" /><path
     id="path2925"
     style="font-variation-settings:'wght' 400;display:inline;fill:#a01919;fill-opacity:1;stroke:none;stroke-width:55.3196;stroke-linecap:round;stroke-linejoin:round;paint-order:markers fill stroke"
     d="m 789.14081,1341.2756 c -95.89069,-0.4967 -185.62215,47.7828 -206.97848,159.7216 -20.82786,72.3896 26.47158,162.4957 94.27753,202.3428 44.45194,27.7877 78.90508,23.9792 129.78842,22.1093 105.17202,-0.6174 210.41032,1.0062 315.54102,-0.7893 78.4426,-6.8319 147.1854,-70.7702 155.251,-147.4091 15.062,-107.3682 -48.0408,-217.7663 -158.6299,-233.3482 -35.0216,-4.9244 -92.24,-1.6958 -127.60452,-2.6271 z"
     inkscape:label="mouth"
     sodipodi:nodetypes="ccccccccc" /><g
     id="g2"
     clip-path="url(#clipPath2)"><ellipse
       style="font-variation-settings:'wght' 400;display:inline;fill:#d84848;fill-opacity:1;stroke:none;stroke-width:96.6754;stroke-linecap:round;stroke-linejoin:round;paint-order:markers fill stroke"
       id="ellipse2927"
       ry="150.5094"
       rx="266.22278"
       cy="1690.9994"
       cx="1162.7631"
       inkscape:label="tongue"
       clip-path="none" /><path
       id="tooth"
       fill="#fefbba"
       d="m 1082.2173,1344.1289 30.8134,98.3643 a 6,6 0 0 0 11.3297,1.2799 l 69.03,-132.8942 a 6,6 0 0 0 -7.4425,-8.3431 l -98.7342,31.7424 c -3.8965,1.6782 -5.7453,6.3238 -4.9964,9.8507 z" /></g></svg>
