<?xml version="1.0" encoding="UTF-8" standalone="no"?>
<svg
   version="2.0"
   viewBox="0 0 2048 2048"
   id="svg5"
   sodipodi:docname="neogob_cute_scar.svg"
   inkscape:export-filename="..\png\neogob_cute_scar.png"
   inkscape:export-xdpi="96"
   inkscape:export-ydpi="96"
   inkscape:version="1.3.2 (091e20e, 2023-11-25, custom)"
   xmlns:inkscape="http://www.inkscape.org/namespaces/inkscape"
   xmlns:sodipodi="http://sodipodi.sourceforge.net/DTD/sodipodi-0.dtd"
   xmlns="http://www.w3.org/2000/svg"
   xmlns:svg="http://www.w3.org/2000/svg">
  <sodipodi:namedview
     id="namedview5"
     pagecolor="#ffffff"
     bordercolor="#666666"
     borderopacity="1.0"
     inkscape:showpageshadow="2"
     inkscape:pageopacity="0.0"
     inkscape:pagecheckerboard="0"
     inkscape:deskcolor="#d1d1d1"
     inkscape:zoom="0.1809082"
     inkscape:cx="1235.4332"
     inkscape:cy="1406.7908"
     inkscape:window-width="1920"
     inkscape:window-height="1001"
     inkscape:window-x="-9"
     inkscape:window-y="-9"
     inkscape:window-maximized="1"
     inkscape:current-layer="svg5" />
  <defs
     id="defs2">
    <marker
       id="stitch"
       markerHeight=".3"
       markerUnits="strokeWidth"
       markerWidth="1"
       orient="auto"
       overflow="visible"
       preserveAspectRatio="none"
       refX="0"
       refY="0"
       viewBox="0 0 1 1">
      <path
         fill="none"
         stroke="#000"
         d="M0 4v-8"
         id="path1" />
    </marker>
    <filter
       id="eye_drain"
       x="0"
       y="0"
       width="1"
       height="1">
      <feFlood
         flood-color="#0FF"
         result="cyan"
         id="feFlood1" />
      <feComposite
         operator="in"
         in="cyan"
         in2="SourceGraphic"
         result="redless"
         id="feComposite1" />
      <feBlend
         in="redless"
         in2="SourceGraphic"
         mode="color-dodge"
         id="feBlend1" />
    </filter>
    <filter
       id="skin_burn"
       x="0"
       y="0"
       width="1"
       height="1">
      <feFlood
         flood-color="#000"
         flood-opacity="0.4"
         result="darken"
         id="feFlood2" />
      <feComposite
         operator="in"
         in="darken"
         in2="SourceGraphic"
         id="feComposite2" />
    </filter>
  </defs>
  <style
     id="style2">
    .fur{fill:#8bb9a0}
    .paw{fill:#8bb9a0}
    .hand{fill:#8bb9a0}
    .outline{stroke:#000}
    .iris{fill:#000}
    .sclera{fill:#ff6a00}
    .mouth{stroke:#542912}
    .tooth{fill:#fefbba}
  </style>
  <path
     id="outline"
     class="outline"
     stroke="#000"
     stroke-width="130"
     d="M84 119c-9 0-14 11-11 18 30 130 59 260 92 390 8 22 29 38 51 44 41 15 82 30 120 50-34 26-71 49-104 77a70 70 0 0 0-19 59c2 16 7 32 12 48 10 30 22 60 26 92 1 8 0 17-5 24-6 15-13 29-18 45-26 67-39 138-47 209-6 59-4 117-5 176a580 580 0 0 0 528 587c47 4 94 2 141 3l585-1a447 447 0 0 0 425-463c-1-112 1-224-3-336a733 733 0 0 0-52-231c-2-4 1-9 2-13l17-78 62-289 62-293c4-31 37-107 6-112-17-3-92 46-106 55l-160 82a7960 7960 0 0 1-351 166c-55-11-111-20-168-25a1146 1146 0 0 0-374 28c-167-73-333-147-499-222L89 119h-5Z" />
  <path
     id="fur"
     class="fur"
     d="M1432 1877a388 388 0 0 0 359-361c2-21 1-355-1-372-17-181-65-216-53-246 9-24 136-639 143-663 1-4 1-5-1-3-3 2-509 263-545 261-306-71-526-3-549 5-25-9-629-280-629-280s66 289 69 289c88 32 170 66 182 88 9 18 7 41-7 56-13 14-124 88-125 92-6 27 61 139 32 197-41 82-58 174-66 264-2 19-3 161-1 185a518 518 0 0 0 483 488c19 2 694 2 709 0z" />
  <path
     id="burned_fur"
     class="fur"
     filter="url(#skin_burn)"
     d="M412 624c-1 10-5 20-12 27-13 14-124 88-125 92-6 27 61 139 32 197-41 82-58 174-66 264-2 19-3 161-1 185a518 518 0 0 0 114 293 895 895 0 0 0 254-644c-13-326-122-400-196-414Z"
     style="mix-blend-mode:darken" />
  <path
     id="mouth"
     class="mouth"
     fill="none"
     stroke-linecap="round"
     stroke-linejoin="round"
     stroke-width="80"
     d="m649 1369 79 121 127-162 158 165 193-162" />
  <path
     id="scar"
     fill="none"
     class="outline"
     stroke-width="72"
     marker-mid="url(#stitch)"
     d="m 344,627c 0,0 76,-29 146,30 57,48 110,154 118,380 3,88 -6,166 -23,236 -16,67 -39,125 -67,177 -29,55 -62,103 -96,144 -35,43 -69,80 -99,112" />
  <g
     id="left_eye">
    <circle
       class="sclera"
       cx="1244"
       cy="1004"
       r="227"
       id="circle2" />
    <circle
       cx="1209"
       cy="1008"
       r="195"
       id="circle3" />
    <ellipse
       cx="142.1"
       cy="1496.9"
       fill="#fff"
       rx="99"
       ry="77"
       transform="rotate(-45)"
       id="ellipse3" />
    <path
       class="fur"
       d="M1294 1024c-8 3-15 9-18 16-9 17-20 29-32 34a32 32 0 1 0 24 60c31-13 52-38 66-64a32 32 0 0 0-40-46Z"
       color="#000"
       style="mix-blend-mode:luminosity"
       id="path3" />
  </g>
  <g
     id="right_eye"
     transform="translate(-646)">
    <circle
       class="sclera"
       cx="1244"
       cy="1004"
       r="227"
       filter="url(#eye_drain)"
       id="circle4" />
    <circle
       cx="1209"
       cy="1008"
       r="195"
       id="circle5" />
    <ellipse
       cx="142.1"
       cy="1496.9"
       fill="#fff"
       rx="99"
       ry="77"
       transform="rotate(-45)"
       id="ellipse5" />
    <path
       class="fur"
       d="M1294 1024c-8 3-15 9-18 16-9 17-20 29-32 34a32 32 0 1 0 24 60c31-13 52-38 66-64a32 32 0 0 0-40-46Z"
       color="#000"
       style="mix-blend-mode:luminosity"
       id="path5" />
  </g>
  <path
     id="tooth"
     class="tooth"
     d="m1124 1462 65 80a6 6 0 0 0 11-3l15-149a6 6 0 0 0-10-5l-80 66c-3 3-3 8-1 11Z" />
</svg>
