<?xml version="1.0" encoding="UTF-8" standalone="no"?>
<svg
   viewBox="0 0 2048 2048"
   version="1.1"
   id="svg1"
   sodipodi:docname="neogob_bongo_alt1.svg"
   inkscape:export-filename="..\png\neogob_bongo_down.png"
   inkscape:export-xdpi="12"
   inkscape:export-ydpi="12"
   inkscape:version="1.3.2 (091e20e, 2023-11-25, custom)"
   xml:space="preserve"
   xmlns:inkscape="http://www.inkscape.org/namespaces/inkscape"
   xmlns:sodipodi="http://sodipodi.sourceforge.net/DTD/sodipodi-0.dtd"
   xmlns="http://www.w3.org/2000/svg"
   xmlns:svg="http://www.w3.org/2000/svg"><defs
     id="defs1"><inkscape:path-effect
       effect="fillet_chamfer"
       id="path-effect32"
       is_visible="true"
       lpeversion="1"
       nodesatellites_param="F,0,0,1,0,40,0,1 @ F,0,0,1,0,40,0,1 @ F,0,0,1,0,40,0,1"
       radius="40"
       unit="px"
       method="auto"
       mode="F"
       chamfer_steps="1"
       flexible="false"
       use_knot_distance="true"
       apply_no_radius="true"
       apply_with_radius="true"
       only_selected="false"
       hide_knots="false" /><inkscape:path-effect
       effect="fillet_chamfer"
       id="path-effect30"
       is_visible="true"
       lpeversion="1"
       nodesatellites_param="F,0,0,1,0,40,0,1 @ F,0,0,1,0,40,0,1 @ F,0,0,1,0,40,0,1"
       radius="40"
       unit="px"
       method="auto"
       mode="F"
       chamfer_steps="1"
       flexible="false"
       use_knot_distance="true"
       apply_no_radius="true"
       apply_with_radius="true"
       only_selected="false"
       hide_knots="false" /><inkscape:path-effect
       effect="fillet_chamfer"
       id="path-effect28"
       is_visible="true"
       lpeversion="1"
       nodesatellites_param="F,0,0,1,0,40,0,1 @ F,0,0,1,0,40,0,1 @ F,0,0,1,0,40,0,1"
       radius="40"
       unit="px"
       method="auto"
       mode="F"
       chamfer_steps="1"
       flexible="false"
       use_knot_distance="true"
       apply_no_radius="true"
       apply_with_radius="true"
       only_selected="false"
       hide_knots="false" /><inkscape:path-effect
       effect="fillet_chamfer"
       id="path-effect26"
       is_visible="true"
       lpeversion="1"
       nodesatellites_param="F,0,0,1,0,40,0,1 @ F,0,0,1,0,40,0,1 @ F,0,0,1,0,40,0,1"
       radius="40"
       unit="px"
       method="auto"
       mode="F"
       chamfer_steps="1"
       flexible="false"
       use_knot_distance="true"
       apply_no_radius="true"
       apply_with_radius="true"
       only_selected="false"
       hide_knots="false" /><inkscape:path-effect
       effect="fillet_chamfer"
       id="path-effect24"
       is_visible="true"
       lpeversion="1"
       nodesatellites_param="F,0,0,1,0,40,0,1 @ F,0,0,1,0,40,0,1 @ F,0,0,1,0,40,0,1"
       radius="40"
       unit="px"
       method="auto"
       mode="F"
       chamfer_steps="1"
       flexible="false"
       use_knot_distance="true"
       apply_no_radius="true"
       apply_with_radius="true"
       only_selected="false"
       hide_knots="false" /><inkscape:path-effect
       effect="fillet_chamfer"
       id="path-effect22"
       is_visible="true"
       lpeversion="1"
       nodesatellites_param="F,0,0,1,0,40,0,1 @ F,0,0,1,0,40,0,1 @ F,0,0,1,0,40,0,1"
       radius="40"
       unit="px"
       method="auto"
       mode="F"
       chamfer_steps="1"
       flexible="false"
       use_knot_distance="true"
       apply_no_radius="true"
       apply_with_radius="true"
       only_selected="false"
       hide_knots="false" /><inkscape:path-effect
       effect="fillet_chamfer"
       id="path-effect16"
       is_visible="true"
       lpeversion="1"
       nodesatellites_param="F,0,0,1,0,40,0,1 @ F,0,0,1,0,40,0,1 @ F,0,0,1,0,40,0,1"
       radius="40"
       unit="px"
       method="auto"
       mode="F"
       chamfer_steps="1"
       flexible="false"
       use_knot_distance="true"
       apply_no_radius="true"
       apply_with_radius="true"
       only_selected="false"
       hide_knots="false" /><inkscape:path-effect
       effect="fillet_chamfer"
       id="path-effect14"
       is_visible="true"
       lpeversion="1"
       nodesatellites_param="F,0,0,1,0,40,0,1 @ F,0,0,1,0,40,0,1 @ F,0,0,1,0,40,0,1"
       radius="40"
       unit="px"
       method="auto"
       mode="F"
       chamfer_steps="1"
       flexible="false"
       use_knot_distance="true"
       apply_no_radius="true"
       apply_with_radius="true"
       only_selected="false"
       hide_knots="false" /><inkscape:path-effect
       effect="fillet_chamfer"
       id="path-effect12"
       is_visible="true"
       lpeversion="1"
       nodesatellites_param="F,0,0,1,0,40,0,1 @ F,0,0,1,0,40,0,1 @ F,0,0,1,0,40,0,1"
       radius="40"
       unit="px"
       method="auto"
       mode="F"
       chamfer_steps="1"
       flexible="false"
       use_knot_distance="true"
       apply_no_radius="true"
       apply_with_radius="true"
       only_selected="false"
       hide_knots="false" /><inkscape:path-effect
       effect="fillet_chamfer"
       id="path-effect10"
       is_visible="true"
       lpeversion="1"
       nodesatellites_param="F,0,0,1,0,40,0,1 @ F,0,0,1,0,40,0,1 @ F,0,0,1,0,40,0,1"
       radius="40"
       unit="px"
       method="auto"
       mode="F"
       chamfer_steps="1"
       flexible="false"
       use_knot_distance="true"
       apply_no_radius="true"
       apply_with_radius="true"
       only_selected="false"
       hide_knots="false" /><inkscape:path-effect
       effect="fillet_chamfer"
       id="path-effect8"
       is_visible="true"
       lpeversion="1"
       nodesatellites_param="F,0,0,1,0,40,0,1 @ F,0,0,1,0,40,0,1 @ F,0,0,1,0,40,0,1"
       radius="40"
       unit="px"
       method="auto"
       mode="F"
       chamfer_steps="1"
       flexible="false"
       use_knot_distance="true"
       apply_no_radius="true"
       apply_with_radius="true"
       only_selected="false"
       hide_knots="false" /><inkscape:path-effect
       effect="fillet_chamfer"
       id="path-effect3"
       is_visible="true"
       lpeversion="1"
       nodesatellites_param="F,0,0,1,0,40,0,1 @ F,0,0,1,0,40,0,1 @ F,0,0,1,0,40,0,1"
       radius="40"
       unit="px"
       method="auto"
       mode="F"
       chamfer_steps="1"
       flexible="false"
       use_knot_distance="true"
       apply_no_radius="true"
       apply_with_radius="true"
       only_selected="false"
       hide_knots="false" /><clipPath
       clipPathUnits="userSpaceOnUse"
       id="clipPath3"><rect
         style="fill:#ffffff;fill-opacity:1;stroke:none;stroke-width:225.203;stroke-linecap:round;stroke-linejoin:round;stroke-dasharray:none;paint-order:markers stroke fill"
         id="rect3"
         width="2609.8523"
         height="1711.4413"
         x="-523.38153"
         y="-1613.9546"
         transform="scale(1,-1)" /></clipPath></defs><sodipodi:namedview
     id="namedview1"
     pagecolor="#ffffff"
     bordercolor="#666666"
     borderopacity="1.0"
     inkscape:showpageshadow="2"
     inkscape:pageopacity="0.0"
     inkscape:pagecheckerboard="0"
     inkscape:deskcolor="#d1d1d1"
     inkscape:zoom="0.25584284"
     inkscape:cx="947.84751"
     inkscape:cy="1350.4384"
     inkscape:window-width="1920"
     inkscape:window-height="1001"
     inkscape:window-x="-9"
     inkscape:window-y="-9"
     inkscape:window-maximized="1"
     inkscape:current-layer="svg1" /><style
     id="style1">.iris{fill:#000000}</style><g
     id="g2"
     transform="matrix(0.78471871,0,0,0.78471871,410.7073,76.499683)"
     inkscape:label="neogob"
     clip-path="url(#clipPath3)"
     style="display:inline"><path
       id="outline"
       fill="none"
       stroke="#000000"
       stroke-width="130"
       d="m 84,119 c -9,0 -14,11 -11,18 30,130 59,260 92,390 8,22 29,38 51,44 41,15 82,30 120,50 -34,26 -71,49 -104,77 a 70,70 0 0 0 -19,59 c 2,16 7,32 12,48 10,30 22,60 26,92 1,8 0,17 -5,24 -6,15 -13,29 -18,45 -26,67 -39,138 -47,209 -6,59 -4,117 -5,176 a 580,580 0 0 0 528,587 c 47,4 94,2 141,3 l 585,-1 a 447,447 0 0 0 425,-463 c -1,-112 1,-224 -3,-336 a 733,733 0 0 0 -52,-231 c -2,-4 1,-9 2,-13 l 17,-78 62,-289 62,-293 c 4,-31 37,-107 6,-112 -17,-3 -92,46 -106,55 l -160,82 a 7960,7960 0 0 1 -351,166 c -55,-11 -111,-20 -168,-25 A 1146,1146 0 0 0 790,431 C 623,358 457,284 291,209 L 89,119 Z"
       style="stroke-width:163.116;stroke-dasharray:none" /><path
       id="body"
       fill="#8bb9a0"
       d="m 1432,1877 a 388,388 0 0 0 359,-361 c 2,-21 1,-355 -1,-372 -17,-181 -65,-216 -53,-246 9,-24 136,-639 143,-663 1,-4 1,-5 -1,-3 -3,2 -509,263 -545,261 -306,-71 -526,-3 -549,5 -25,-9 -629,-280 -629,-280 0,0 66,289 69,289 88,32 170,66 182,88 9,18 7,41 -7,56 -13,14 -124,88 -125,92 -6,27 61,139 32,197 -41,82 -58,174 -66,264 -2,19 -3,161 -1,185 a 518,518 0 0 0 483,488 c 19,2 694,2 709,0 z" /><path
       id="mouth"
       fill="none"
       stroke="#542912"
       stroke-linecap="round"
       stroke-linejoin="round"
       stroke-width="80"
       d="m 635,1283.2474 99,157 127,-162 158,165 193,-162" /><path
       id="tooth"
       fill="#fefbba"
       d="m 1130,1412.2474 65,80 a 6,6 0 0 0 11,-3 l 15,-149 a 6,6 0 0 0 -10,-5 l -80,66 c -3,3 -3,8 -1,11 z" /><rect
       id="left_eye-9"
       class="iris"
       width="256"
       height="324"
       x="1101.1761"
       y="797.08276"
       ry="130"
       style="fill:#fc5900;fill-opacity:1" /><use
       id="right_eye"
       href="#left_eye-9"
       transform="translate(-570.90264)"
       x="0"
       y="0" /></g><style
     id="style1-1">
    .fur{fill:#e3dedb}.paw{fill:#e9afaf}.outline{stroke:#000}
  </style><g
     id="g32"
     inkscape:label="smash"><g
       id="g4"><path
         style="display:inline;fill:#000000;fill-opacity:1;stroke:none;stroke-width:1.36168px;stroke-linecap:butt;stroke-linejoin:miter;stroke-opacity:1"
         d="m 1246.4141,1347.2676 c -35.1627,0.446 -70.3312,0.7111 -105.4825,1.7558 -23.331,1.498 -46.1404,8.7889 -66.4628,20.25 -25.1678,14.2471 -46.5189,35.29 -60.7461,60.5 -13.5775,23.9319 -20.70956,51.4298 -20.71879,78.9317 -0.0752,24.5352 5.51657,49.122 16.59379,71.039 6.6331,13.4986 14.3986,26.3966 21.5195,39.6368 10.1607,18.312 20.212,36.694 31.0586,54.6132 14.9091,23.1645 36.49,41.7118 60.9668,54.1778 8.2395,4.1855 16.8714,7.5762 25.707,10.3086 8.0045,18.1579 19.3513,34.8508 33.3633,48.9023 17.9786,18.1555 40.3844,31.9343 64.7871,39.5527 14.0288,4.5899 28.3656,8.146 42.5215,12.3086 19.7069,5.5567 39.3837,11.2554 59.3027,16.0118 19.8155,4.2016 40.4533,4.0684 60.332,0.3457 18.1483,-3.4276 35.7152,-9.9648 51.6954,-19.2266 31.5691,13.325 67.4332,16.4813 100.7617,8.375 15.2028,-3.612 29.632,-9.9266 43.2871,-17.4414 11.5026,-6.209 22.801,-12.7804 34.2519,-19.084 17.8118,-9.9694 35.7326,-19.7819 52.9727,-30.7246 32.6263,-22.5707 55.7975,-57.9637 64.4844,-96.582 4.2698,-18.8573 5.1099,-38.5011 2.2617,-57.6328 -5.5526,-37.9894 -24.9073,-73.985 -54.2031,-98.9141 -13.8667,-11.7336 -29.5879,-20.943 -44.6739,-30.9688 -21.5791,-14.0606 -43.115,-28.1974 -65.1035,-41.6132 -11.2666,-6.6234 -23.5548,-11.4201 -36.1797,-14.7325 -14.3837,-3.7445 -29.2733,-5.4423 -44.1269,-5.3476 -29.5917,1.0012 -58.8271,10.5295 -83.4356,26.9668 -1.2424,-0.6001 -2.4384,-1.2914 -3.6972,-1.8574 -8.8869,-4.0251 -18.1854,-7.0794 -27.6719,-9.3477 -4.9961,-12.9508 -11.7021,-25.2409 -20,-36.373 -21.7336,-29.2685 -53.7527,-50.9537 -89.2969,-59.377 -14.4111,-3.4277 -29.2735,-4.7426 -44.0683,-4.4531 z"
         id="path32" /><path
         style="display:inline;fill:#ef7c94;fill-opacity:1;stroke:none;stroke-width:1px;stroke-linecap:butt;stroke-linejoin:miter;stroke-opacity:1"
         d="m 1340.5979,1601.6168 -49.3362,54.6341 a 23.948836,23.948836 72.99284 0 0 12.0199,39.2979 l 61.9172,15.3261 a 24.153037,24.153037 135.02735 0 0 29.2543,-29.2265 l -17.473,-70.8812 a 21.237486,21.237486 14.117508 0 0 -36.3822,-9.1504 z"
         id="path3"
         inkscape:path-effect="#path-effect3"
         inkscape:original-d="m 1367.4062,1571.9298 -102.9528,114.0081 139.5736,34.5479 z"
         transform="matrix(1.3630813,0.04636008,-0.04645761,1.3586932,-410.7092,-658.58351)" /><path
         style="display:inline;fill:#ef7c94;fill-opacity:1;stroke:none;stroke-width:1px;stroke-linecap:butt;stroke-linejoin:miter;stroke-opacity:1"
         d="m 1340.5979,1601.6168 -49.3362,54.6341 a 23.948836,23.948836 72.99284 0 0 12.0199,39.2979 l 61.9172,15.3261 a 24.153037,24.153037 135.02735 0 0 29.2543,-29.2265 l -17.473,-70.8812 a 21.237486,21.237486 14.117508 0 0 -36.3822,-9.1504 z"
         id="use4"
         inkscape:path-effect="#path-effect10"
         inkscape:original-d="m 1367.4062,1571.9298 -102.9528,114.0081 139.5736,34.5479 z"
         transform="matrix(0.99662556,-0.9310625,0.92789068,0.99359167,-1332.4483,1245.979)" /><path
         style="display:inline;fill:#ef7c94;fill-opacity:1;stroke:none;stroke-width:1px;stroke-linecap:butt;stroke-linejoin:miter;stroke-opacity:1"
         d="m 1340.5979,1601.6168 -49.3362,54.6341 a 23.948836,23.948836 72.99284 0 0 12.0199,39.2979 l 61.9172,15.3261 a 24.153037,24.153037 135.02735 0 0 29.2543,-29.2265 l -17.473,-70.8812 a 21.237486,21.237486 14.117508 0 0 -36.3822,-9.1504 z"
         id="use5"
         inkscape:path-effect="#path-effect12"
         inkscape:original-d="m 1367.4062,1571.9298 -102.9528,114.0081 139.5736,34.5479 z"
         transform="matrix(0.92717988,1.0002387,-0.99719245,0.92401988,1607.3259,-1345.6512)" /></g><g
       id="g1"
       style="display:none"><path
         style="display:inline;fill:#000000;fill-opacity:1;stroke:none;stroke-width:1.36168px;stroke-linecap:butt;stroke-linejoin:miter;stroke-opacity:1"
         d="m 247.6582,1347.0957 c 0.38021,0.6283 0.76042,1.2565 1.14063,1.8848 -7.39208,0.3181 -14.78411,1.0214 -22.03125,2.5507 -42.13922,8.4422 -80.51082,34.4907 -103.63086,70.7559 -10.98923,17.1446 -18.5603,36.4381 -22.3457,56.4395 -5.154953,27.0996 -3.400512,55.5637 5.59375,81.6757 3.75801,11.0906 9.06404,21.5717 14.60937,31.8575 4.50769,8.308 9.21089,16.4825 13.71289,24.7539 10.52269,18.9032 20.8768,37.9086 32.07813,56.4218 13.4555,21.0953 32.45859,38.4176 54.10546,50.8457 10.38366,5.9501 21.45602,10.6753 32.89258,14.2168 13.83781,31.2647 37.63079,58.1502 67.40821,75.045 13.38861,7.6613 27.96045,13.057 42.82421,17.0625 21.15686,6.0638 42.33258,12.0456 63.53516,17.9472 10.7355,2.9271 21.50192,5.7964 32.42383,7.9512 36.19684,5.7839 74.1419,-1.7653 105.79687,-20.1211 5.67398,2.4057 11.47182,4.5173 17.39063,6.2383 29.18003,8.5499 60.80715,8.8206 90.03125,0.3203 12.74751,-3.6525 24.96881,-9.0216 36.47852,-15.5859 16.70417,-9.1542 33.28484,-18.5283 49.91015,-27.8243 12.29114,-6.9157 24.56851,-13.8753 36.49219,-21.4121 24.90821,-16.7891 44.314,-41.2288 56.17578,-68.7382 11.54424,-26.8282 15.79749,-56.8412 11.60156,-85.7793 -5.84804,-41.2212 -28.25138,-79.9398 -61.42383,-105.1719 -10.34165,-7.7903 -21.47693,-14.4306 -32.24218,-21.6035 -24.06658,-15.5958 -47.97321,-31.4511 -72.49805,-46.3242 -14.85301,-8.2231 -31.22175,-13.5171 -47.91602,-16.4239 -10.13019,-1.7206 -20.42088,-2.4632 -30.69336,-2.2793 -29.45399,0.7778 -58.40663,10.4456 -82.86132,26.7989 -3.39825,-1.6484 -6.8353,-3.2155 -10.35157,-4.6036 -6.91931,-2.7417 -14.04185,-4.9292 -21.27929,-6.6328 -8.71216,-22.4569 -22.70827,-42.8424 -40.54102,-59.0332 -20.24309,-18.4758 -45.35714,-31.649 -72.17969,-37.3965 -13.04104,-2.8462 -26.42288,-3.9462 -39.75781,-3.7558 -34.81636,-0.033 -69.63284,-0.058 -104.44922,-0.08 z"
         id="path16" /><path
         style="display:inline;fill:#ef7c94;fill-opacity:1;stroke:none;stroke-width:1px;stroke-linecap:butt;stroke-linejoin:miter;stroke-opacity:1"
         d="m 1340.5979,1601.6168 -49.3362,54.6341 a 23.948836,23.948836 72.99284 0 0 12.0199,39.2979 l 61.9172,15.3261 a 24.153037,24.153037 135.02735 0 0 29.2543,-29.2265 l -17.473,-70.8812 a 21.237486,21.237486 14.117508 0 0 -36.3822,-9.1504 z"
         id="path5"
         inkscape:path-effect="#path-effect8"
         inkscape:original-d="m 1367.4062,1571.9298 -102.9528,114.0081 139.5736,34.5479 z"
         transform="matrix(1.3630813,0.04636008,-0.04645761,1.3586932,-1305.79,-658.58351)" /><path
         style="display:inline;fill:#ef7c94;fill-opacity:1;stroke:none;stroke-width:1px;stroke-linecap:butt;stroke-linejoin:miter;stroke-opacity:1"
         d="m 1340.5979,1601.6168 -49.3362,54.6341 a 23.948836,23.948836 72.99284 0 0 12.0199,39.2979 l 61.9172,15.3261 a 24.153037,24.153037 135.02735 0 0 29.2543,-29.2265 l -17.473,-70.8812 a 21.237486,21.237486 14.117508 0 0 -36.3822,-9.1504 z"
         id="use6"
         inkscape:path-effect="#path-effect14"
         inkscape:original-d="m 1367.4062,1571.9298 -102.9528,114.0081 139.5736,34.5479 z"
         transform="matrix(0.99662556,-0.9310625,0.92789068,0.99359167,-2227.5291,1245.979)" /><path
         style="display:inline;fill:#ef7c94;fill-opacity:1;stroke:none;stroke-width:1px;stroke-linecap:butt;stroke-linejoin:miter;stroke-opacity:1"
         d="m 1340.5979,1601.6168 -49.3362,54.6341 a 23.948836,23.948836 72.99284 0 0 12.0199,39.2979 l 61.9172,15.3261 a 24.153037,24.153037 135.02735 0 0 29.2543,-29.2265 l -17.473,-70.8812 a 21.237486,21.237486 14.117508 0 0 -36.3822,-9.1504 z"
         id="use7"
         inkscape:path-effect="#path-effect16"
         inkscape:original-d="m 1367.4062,1571.9298 -102.9528,114.0081 139.5736,34.5479 z"
         transform="matrix(0.92717988,1.0002387,-0.99719245,0.92401988,712.2451,-1345.6512)" /></g></g><g
     id="use3-1"
     transform="matrix(1.0199282,0,0,1.0199282,-786.54304,-406.52469)"
     style="display:inline"><path
       id="path1"
       class="fur outline"
       stroke-linecap="butt"
       stroke-linejoin="round"
       stroke-width="144"
       paint-order="markers stroke fill"
       d="M 1584.6092,1536.6092 C 1566.6092,1514.6092 1421,1371 1421,1371 c -29,-30 -56,-40 -83,-41 l -9,1 c -30,2 -62,17 -89,45 -49,48 -47,121 -12,157 0,0 154.6092,156.6092 175.6092,175.6092"
       sodipodi:nodetypes="ccccccc"
       style="fill:#8bb9a0;fill-opacity:1;stroke:#000000" /><path
       id="path3-1"
       class="paw"
       d="m 1297,1602 -69,-69 c -35,-36 -37,-109 12,-157 27,-28 59,-43 89,-45 30,-2 60,7 92,40 l 66,67 c -27,88 -91,158 -190,164 z"
       style="fill:#8bb9a0;fill-opacity:1" /></g><path
     style="display:inline;fill:none;stroke:#000000;stroke-width:128;stroke-linecap:round;stroke-linejoin:miter;stroke-dasharray:none;stroke-opacity:1"
     d="M 65.276653,1342.9312 H 1983.4872"
     id="path2"
     sodipodi:nodetypes="cc"
     inkscape:label="table" /><g
     id="g3"
     transform="matrix(1.0199282,0,0,1.0199282,112.67429,-226.5248)"
     style="display:inline"
     inkscape:label="arms"><g
       id="left_arm"
       transform="matrix(1,0,0,-1,3.0759381e-5,3000.3906)"><path
         id="forearm"
         class="fur outline"
         stroke-linecap="butt"
         stroke-linejoin="round"
         stroke-width="144"
         paint-order="markers stroke fill"
         d="M 1584.6092,1536.6092 C 1566.6092,1514.6092 1421,1371 1421,1371 c -29,-30 -56,-40 -83,-41 l -9,1 c -30,2 -62,17 -89,45 -49,48 -47,121 -12,157 0,0 154.6092,156.6092 175.6092,175.6092"
         sodipodi:nodetypes="ccccccc"
         style="fill:#8bb9a0;fill-opacity:1" /><path
         id="paw"
         class="paw"
         d="m 1297,1602 -69,-69 c -35,-36 -37,-109 12,-157 27,-28 59,-43 89,-45 30,-2 60,7 92,40 l 66,67 c -27,88 -91,158 -190,164 z"
         style="fill:#8bb9a0;fill-opacity:1" /></g></g></svg>
