<svg xmlns="http://www.w3.org/2000/svg" version="1.2" viewBox="0 0 2048 3120">
  <style>
    .fur{fill:#8bb9a0}
    .outline{stroke:#000}
    .iris{fill:#000}
    .sclera{fill:#ff6a00}
    .mouth{stroke:#542912}
    .tooth{fill:#fefbba}
  </style>
  <path id="right_leg_outline" class="outline" stroke-width="256" d="M600 1292v945H464c-93-2-170 73-170 166 0 95 76 170 170 170h299c99 3 179-82 170-181V1292"/>
  <g id="bucket">
    <ellipse id="ellipse11" cx="605.8" cy="2959.7" fill="#5f3e1d" fill-opacity="1" stroke="#000" stroke-dasharray="none" stroke-linejoin="round" stroke-opacity="1" stroke-width="128" paint-order="normal" rx="535.1" ry="98.4"/>
    <path id="path15" fill="#5f3e1d" stroke="#000" stroke-linejoin="round" stroke-width="64" d="m741 2643 182-37 66 436-202 29z" paint-order="markers stroke fill"/>
    <path id="rect11" fill="#5f3e1d" stroke="#000" stroke-linejoin="round" stroke-width="64" d="M493 2643h214l51 430-306 2z" paint-order="markers stroke fill"/>
    <path id="path17" fill="#5f3e1d" stroke="#000" stroke-linejoin="round" stroke-width="64" d="m261 2596-127-67-96 426 148 72Z" paint-order="markers stroke fill"/>
    <path id="path18" fill="#5f3e1d" stroke="#000" stroke-linejoin="round" stroke-width="64" d="m471 2643-182-37-66 436 202 29z" paint-order="markers stroke fill"/>
    <path id="path16" fill="#5f3e1d" stroke="#000" stroke-linejoin="round" stroke-width="64" d="m952 2596 126-67 96 434-148 64z" paint-order="markers stroke fill"/>
    <ellipse id="path11" cx="605.8" cy="2527.7" fill="#5f3e1d" fill-opacity="1" stroke="#000" stroke-dasharray="none" stroke-linejoin="round" stroke-opacity="1" stroke-width="48" paint-order="normal" rx="479.9" ry="88.2"/>
    <path id="path19" fill="none" stroke="#666" stroke-dasharray="none" stroke-linecap="butt" stroke-linejoin="miter" stroke-opacity="1" stroke-width="128" d="M61 2749s275 120 541 120 541-120 541-120"/>
    <path id="ellipse23" fill="none" fill-opacity="1" stroke="#000" stroke-dasharray="none" stroke-linejoin="round" stroke-opacity="1" stroke-width="64" d="M606 2439c-127 0-250 10-340 26-90 17-140 39-140 63 0 4 2 8 5 12l-93 415 39 19c12 14 38 27 79 39l30 14 1-6 38 8-2 13 202 29 2-19 27 2-2 21 306-2-2-19 29-2 2 19 202-29-2-14 38-7 1 6 44-19c21-6 37-13 48-20l56-25-93-423c3-4 4-8 5-12 0-24-51-46-141-63-90-16-212-26-339-26z" paint-order="normal"/>
    <circle id="path20" cx="613.3" cy="2868.6" r="31.3" fill="#1a1a1a" fill-opacity="1" stroke="none" stroke-dasharray="none" stroke-linejoin="round" stroke-opacity="1" stroke-width="268.8" paint-order="markers stroke fill"/>
    <use href="#path20" id="use21" x="0" y="0" transform="translate(-468 -89)"/>
    <use href="#path20" id="use30" x="0" y="0" transform="translate(440 -89)"/>
  </g>
  <path id="left_leg_outline" class="outline"  stroke-width="256" d="M1328 1692v945h-136c-93-2-170 73-170 166 0 95 76 170 170 170h299c99 3 179-82 170-181V1692"/>
  <path id="body_outline" class="outline" stroke-width="128" d="M95 91c-9 0-14 11-11 18 30 130 59 260 92 390 8 22 29 38 51 44 41 15 82 30 120 50-34 26-71 49-104 77a70 70 0 0 0-19 59c2 16 7 32 12 48 10 30 22 60 26 92 1 8 0 17-5 24-6 15-13 29-18 45-26 67-39 138-47 209-6 59-4 117-5 176a580 580 0 0 0 528 587c47 4 94 2 141 3l585-1a447 447 0 0 0 425-463c-1-112 1-224-3-336a733 733 0 0 0-52-231c-2-4 1-9 2-13l17-78 62-289 62-293c4-31 37-107 6-112-17-3-92 46-106 55l-160 82a7960 7960 0 0 1-351 166c-55-11-111-20-168-25a1146 1146 0 0 0-374 28c-167-73-333-147-499-222L100 91z"/>
  <path id="body" class="fur" d="M1443 1849a388 388 0 0 0 359-361c2-21 1-355-1-372-17-181-65-216-53-246 9-24 136-639 143-663 1-4 1-5-1-3-3 2-509 263-545 261-306-71-526-3-549 5-25-9-629-280-629-280s66 289 69 289c88 32 170 66 182 88 9 18 7 41-7 56-13 14-124 88-125 92-6 27 61 139 32 197-41 82-58 174-66 264-2 19-3 161-1 185a518 518 0 0 0 483 488c19 2 694 2 709 0z"/>
  <path id="right_leg_fill" class="fur" d="M600 1212v1025H464c-93-2-170 73-170 166 0 95 76 170 170 170h299c99 3 179-82 170-181V1212" />
  <path id="left_leg_fill" class="fur" d="M1328 1612v1025h-136c-93-2-170 73-170 166 0 95 76 170 170 170h299c99 3 179-82 170-181V1612" />
  <g id="laces">
    <path id="path27" fill="none" stroke="red" stroke-linecap="round" stroke-width="48" d="M869 2835s-117-551-300-602"/>
    <path id="path28" fill="none" stroke="red" stroke-linecap="round" stroke-width="48" d="M342 2834s9-421 118-597"/>
    <use href="#path20" id="use28" x="0" y="0" transform="translate(-271 -32)"/>
    <use href="#path20" id="use29" x="0" y="0" transform="translate(258 -32)"/>
  </g>
  <g id="left_eye">
    <circle id="sclera" class="sclera" cx="1255" cy="976" r="227"/>
    <circle id="iris" class="iris" cx="1220" cy="980" r="195"/>
    <ellipse id="glare" cx="153" cy="1469" fill="#fff" rx="99" ry="77" transform="rotate(-45)"/>
    <path id="gline" d="M1294 1024c-8 3-15 9-18 16-9 17-20 29-32 34a32 32 0 1 0 24 60c31-13 52-38 66-64a32 32 0 0 0-40-46z" class="fur" style="mix-blend-mode:luminosity"/>
  </g>
  <use id="right_eye" href="#left_eye" transform="translate(-646)"/>
  <path id="mouth" class="mouth" fill="none" stroke-linecap="round" stroke-linejoin="round" stroke-width="80" d="m640 1305 99 157 127-162 158 165 193-162"/>
  <path id="tooth" class="tooth" d="m1135 1434 65 80a6 6 0 0 0 11-3l15-149a6 6 0 0 0-10-5l-80 66c-3 3-3 8-1 11z"/>
</svg>
