<?xml version="1.0" encoding="UTF-8" standalone="no"?>
<svg
   width="2048"
   height="2048"
   viewBox="0 0 541.86665 541.86668"
   version="1.1"
   id="svg864"
   inkscape:version="1.3.2 (091e20e, 2023-11-25, custom)"
   sodipodi:docname="neogob_cave_angler.svg"
   inkscape:export-filename="..\png\neocat_cave_angler.png"
   inkscape:export-xdpi="96"
   inkscape:export-ydpi="96"
   xml:space="preserve"
   xmlns:inkscape="http://www.inkscape.org/namespaces/inkscape"
   xmlns:sodipodi="http://sodipodi.sourceforge.net/DTD/sodipodi-0.dtd"
   xmlns:xlink="http://www.w3.org/1999/xlink"
   xmlns="http://www.w3.org/2000/svg"
   xmlns:svg="http://www.w3.org/2000/svg"
   xmlns:rdf="http://www.w3.org/1999/02/22-rdf-syntax-ns#"
   xmlns:cc="http://creativecommons.org/ns#"
   xmlns:dc="http://purl.org/dc/elements/1.1/"><defs
     id="defs858"><inkscape:path-effect
       effect="fillet_chamfer"
       id="path-effect12"
       is_visible="true"
       lpeversion="1"
       nodesatellites_param="F,0,0,1,0,0,0,1 @ F,0,0,1,0,30.216457,0,1 @ F,0,1,1,0,0,0,1"
       radius="0"
       unit="px"
       method="auto"
       mode="F"
       chamfer_steps="1"
       flexible="false"
       use_knot_distance="true"
       apply_no_radius="true"
       apply_with_radius="true"
       only_selected="false"
       hide_knots="false" /><inkscape:path-effect
       effect="fillet_chamfer"
       id="path-effect10"
       is_visible="true"
       lpeversion="1"
       nodesatellites_param="F,0,0,1,0,0,0,1 @ F,0,0,1,0,26.720721,0,1 @ F,0,0,1,0,0,0,1"
       radius="0"
       unit="px"
       method="auto"
       mode="F"
       chamfer_steps="1"
       flexible="false"
       use_knot_distance="true"
       apply_no_radius="true"
       apply_with_radius="true"
       only_selected="false"
       hide_knots="false" /><inkscape:path-effect
       effect="fillet_chamfer"
       id="path-effect8"
       is_visible="true"
       lpeversion="1"
       nodesatellites_param="F,0,0,1,0,0,0,1 @ F,0,0,1,0,9.424857,0,1 @ F,0,0,1,0,0,0,1"
       radius="0"
       unit="px"
       method="auto"
       mode="F"
       chamfer_steps="1"
       flexible="false"
       use_knot_distance="true"
       apply_no_radius="true"
       apply_with_radius="true"
       only_selected="false"
       hide_knots="false" /><inkscape:path-effect
       effect="fillet_chamfer"
       id="path-effect6"
       is_visible="true"
       lpeversion="1"
       nodesatellites_param="F,0,0,1,0,0,0,1 @ F,0,0,1,0,9.424857,0,1 @ F,0,0,1,0,0,0,1"
       radius="0"
       unit="px"
       method="auto"
       mode="F"
       chamfer_steps="1"
       flexible="false"
       use_knot_distance="true"
       apply_no_radius="true"
       apply_with_radius="true"
       only_selected="false"
       hide_knots="false" /><inkscape:path-effect
       effect="fillet_chamfer"
       id="path-effect30-0-3-9"
       is_visible="true"
       lpeversion="1"
       nodesatellites_param="F,0,0,1,0,0,0,1 @ F,0,0,1,0,0,0,1 @ F,0,0,1,0,8.2056445,0,1 @ F,0,0,1,0,0,0,1 @ F,0,0,1,0,0,0,1"
       radius="0"
       unit="px"
       method="auto"
       mode="F"
       chamfer_steps="1"
       flexible="false"
       use_knot_distance="true"
       apply_no_radius="true"
       apply_with_radius="true"
       only_selected="false"
       hide_knots="false" /><inkscape:path-effect
       effect="fillet_chamfer"
       id="path-effect30-0-3-9-6"
       is_visible="true"
       lpeversion="1"
       nodesatellites_param="F,0,0,1,0,0,0,1 @ F,0,0,1,0,0,0,1 @ F,0,0,1,0,8.2056445,0,1 @ F,0,0,1,0,0,0,1 @ F,0,0,1,0,0,0,1"
       radius="0"
       unit="px"
       method="auto"
       mode="F"
       chamfer_steps="1"
       flexible="false"
       use_knot_distance="true"
       apply_no_radius="true"
       apply_with_radius="true"
       only_selected="false"
       hide_knots="false" /></defs><sodipodi:namedview
     id="base"
     pagecolor="#ffffff"
     bordercolor="#666666"
     borderopacity="1.0"
     inkscape:pageopacity="0.0"
     inkscape:pageshadow="2"
     inkscape:zoom="0.24748737"
     inkscape:cx="321.22851"
     inkscape:cy="1258.6501"
     inkscape:document-units="px"
     inkscape:current-layer="svg864"
     inkscape:document-rotation="0"
     showgrid="false"
     units="px"
     inkscape:window-width="1920"
     inkscape:window-height="1001"
     inkscape:window-x="-9"
     inkscape:window-y="-9"
     inkscape:window-maximized="1"
     inkscape:showpageshadow="2"
     inkscape:pagecheckerboard="0"
     inkscape:deskcolor="#d1d1d1"
     showguides="true" /><metadata
     id="metadata861"><rdf:RDF><cc:Work
         rdf:about=""><dc:format>image/svg+xml</dc:format><dc:type
           rdf:resource="http://purl.org/dc/dcmitype/StillImage" /></cc:Work></rdf:RDF></metadata><path
     id="path63"
     style="display:inline;opacity:1;fill:#917453;fill-opacity:1;stroke:#000000;stroke-width:19.05;stroke-linecap:butt;stroke-linejoin:miter;stroke-dasharray:none;stroke-opacity:1"
     d="m 195.79167,52.822615 c 2.85759,0.07849 5.78397,0.272388 8.84442,0.698666 63.32217,8.819885 67.88474,43.741538 67.88474,61.383329 h 43.31622 c 0,-43.871564 -25.11764,-88.980611 -119.42682,-88.980611 -0.21191,0 -0.40748,0.01524 -0.61856,0.01602"
     sodipodi:nodetypes="csccsc" /><g
     id="g17"
     inkscape:label="body"
     style="display:inline;opacity:1"><path
       id="path61"
       style="display:inline;fill:#000000;stroke-width:0.264583"
       d="M 470.51973,68.665605 C 427.36911,67.547101 381.7334,78.194677 340.65579,90.45792 320.43651,92.703456 300.96622,83.324005 280.59885,83.567657 254.94758,81.755992 228.57071,81.576253 203.68164,88.265625 175.42378,82.709925 147.23018,75.749802 118.25486,74.283262 88.786667,72.08846 52.225726,68.421722 15.793256,84.083451 c -29.094109,24.212299 12.036823,40.589089 21.445111,57.918779 16.593204,20.65063 5.295772,47.84742 9.560688,71.73868 10.596185,22.40375 -9.266193,41.38121 -11.158499,63.5416 -6.805823,57.54093 -13.243477,107.91926 28.066679,170.03552 41.310155,62.11626 79.018615,76.63031 142.811485,76.09577 63.79288,-0.53454 49.8794,0 159.98301,0 110.10361,0 143.9548,-85.93381 142.36214,-128.12189 -1.59266,-42.18808 5.71145,-111.46702 -10.49473,-155.49503 24.21865,-15.31102 12.70147,-52.95673 -2.82835,-75.16059 -6.38024,-46.47967 36.22997,-55.83336 29.20064,-74.700131 0.21129,-18.722371 -26.21427,-9.00398 -54.2217,-21.270554 z"
       sodipodi:nodetypes="ccccccccczzzzcccc"
       inkscape:label="outline" /><path
       id="path60"
       style="display:inline;fill:#705636;stroke-width:0.264583"
       d="m 379.51592,112.25128 c -21.80798,7.47792 -45.38716,15.83162 -68.29282,7.45631 -28.50202,-5.94995 -58.38933,-6.99933 -87.36993,-3.85501 -18.61258,8.53229 -36.1815,2.66106 -55.08721,-2.83035 -37.44552,-6.79047 -76.191248,-11.57075 -114.031671,-4.97115 7.399423,17.73632 24.209061,32.96189 23.408714,54.11693 1.664464,22.5743 -5.433385,47.01846 6.379486,67.88457 -4.06115,22.1583 -19.789374,40.87152 -18.458296,64.48834 -3.337204,31.52239 -2.731826,64.20748 5.213597,94.90428 9.253295,26.33964 22.30323,52.08945 44.73216,69.69264 30.79899,26.3736 72.68412,35.01493 112.28077,31.60607 53.78812,-0.40866 107.69046,1.62425 161.40109,-1.3353 50.07749,-7.45998 88.79046,-57.31208 84.24154,-107.65673 3.96779,-19.43449 3.68231,-39.51272 3.05254,-59.38557 0.0397,-29.00266 -4.07639,-58.03618 -12.30697,-85.76642 3.36519,-15.52222 25.92946,-28.72589 7.76877,-44.03583 -9.5324,-18.51037 -14.13691,-40.12829 -7.2119,-60.39078 1.2862,-13.66551 24.76901,-34.15088 -2.22967,-29.93939 -28.15598,-1.47456 -56.17808,3.70113 -83.4902,10.01739 z"
       sodipodi:nodetypes="ccccsccccccsccccccc"
       inkscape:label="body" /></g><g
     id="g1"
     transform="matrix(0.26458333,0,0,0.26458333,2.0221742,35.324141)"
     style="display:inline;opacity:1"
     inkscape:label="mouth"><path
       style="fill:#ffffff;fill-opacity:1;stroke:none;stroke-width:1px;stroke-linecap:butt;stroke-linejoin:miter;stroke-opacity:1"
       d="m 766.76724,1329.727 50.91429,-148.7391 a 3.5228018,3.5228018 11.385949 0 1 6.84769,1.379 l -12.56636,185.4983 z"
       id="path8"
       inkscape:path-effect="#path-effect10"
       inkscape:original-d="m 766.76724,1329.727 59.568,-174.0197 -14.37238,212.1579 z"
       sodipodi:nodetypes="cccc"
       transform="matrix(1,0,0,-1,393.78468,2787.712)"
       inkscape:label="tooth4" /><path
       style="fill:#ffffff;fill-opacity:1;stroke:none;stroke-width:1px;stroke-linecap:butt;stroke-linejoin:miter;stroke-opacity:1"
       d="m 753.8878,1395.6395 20.78885,-168.9586 a 2.2013799,2.2013799 173.8675 0 1 4.26282,-0.458 l 59.79243,170.9367 z"
       id="path7"
       inkscape:path-effect="#path-effect8"
       inkscape:original-d="m 753.8878,1395.6395 21.93981,-178.3129 62.90429,179.833 z"
       sodipodi:nodetypes="cccc"
       transform="translate(220.21326,92.934035)"
       inkscape:label="tooth3" /><path
       style="fill:#ffffff;fill-opacity:1;stroke:none;stroke-width:1px;stroke-linecap:butt;stroke-linejoin:miter;stroke-opacity:1"
       d="m 791.3878,1412.7824 -19.06555,-156.8141 a 2.0819462,2.0819462 160.6114 0 1 3.8353,-1.3498 l 70.78864,113.9697 z"
       id="path6"
       inkscape:path-effect="#path-effect6"
       inkscape:original-d="m 791.3878,1412.7824 -20.20305,-166.1701 75.76144,121.9759 z"
       sodipodi:nodetypes="cccc"
       inkscape:label="tooth2" /><path
       style="fill:#ffffff;fill-opacity:1;stroke:none;stroke-width:1px;stroke-linecap:butt;stroke-linejoin:miter;stroke-opacity:1"
       d="m 736.43556,1380.0689 -32.10474,-142.1031 a 3.9209579,3.9209579 159.87562 0 1 7.30193,-2.6756 l 80.47601,154.4751 z"
       id="path10"
       inkscape:path-effect="#path-effect12"
       inkscape:original-d="m 736.43556,1380.0689 -38.76359,-171.5767 94.43679,181.2731 z"
       sodipodi:nodetypes="cccc"
       transform="rotate(-131.38534,746.88555,1460.9293)"
       inkscape:label="tooth1" /><path
       fill="none"
       stroke="#542912"
       stroke-linecap="round"
       stroke-linejoin="round"
       stroke-width="80"
       d="m 639,1376 99,157 127,-162 158,165 193,-162"
       id="path1"
       inkscape:label="lips"
       style="display:inline;stroke:#3b2300;stroke-opacity:1" /></g><g
     id="g16"
     inkscape:label="left_eye"
     style="display:inline"><circle
       style="display:inline;fill:#f2fc24;fill-opacity:1;stroke:none;stroke-width:15.1067;stroke-linejoin:round;paint-order:markers stroke fill"
       id="path12"
       cx="333.30939"
       cy="254.30844"
       r="50.103775" /><ellipse
       style="display:inline;fill:#000000;fill-opacity:1;stroke:none;stroke-width:21.2691;stroke-linejoin:round;paint-order:markers stroke fill"
       id="ellipse13"
       cx="319.73087"
       cy="254.84149"
       rx="16.523293"
       ry="45.569454" /><path
       id="path13"
       style="display:inline;fill:#ff0c00;stroke-width:14.2789;stroke-linejoin:round;paint-order:markers stroke fill"
       d="m 328.08332,253.1685 c 0,21.82107 -7.843,36.55167 -7.843,36.55167 0,0 -7.84301,-15.09234 -7.84301,-36.55167 0,-21.45933 7.84301,-33.20568 7.84301,-33.20568 0,0 7.843,11.38461 7.843,33.20568 z"
       sodipodi:nodetypes="zczcz" /></g><use
     x="0"
     y="0"
     xlink:href="#g16"
     id="use16"
     transform="translate(-173.72519)"
     inkscape:label="right_eye"
     style="display:inline" /><path
     id="path62"
     style="display:inline;opacity:1;fill:#917453;fill-opacity:1;stroke:#000000;stroke-width:19.05;stroke-linecap:butt;stroke-linejoin:miter;stroke-dasharray:none;stroke-opacity:1"
     d="M 195.79167,25.940019 C 102.06351,26.284224 90.185193,102.91307 90.185193,149.67872 h 31.825447 c 0,-34.95499 17.5137,-98.401668 73.78103,-96.856105"
     sodipodi:nodetypes="cccc" /><circle
     style="display:inline;opacity:1;fill:#00ff00;fill-opacity:1;stroke:#000000;stroke-width:19.4335;stroke-linejoin:round;stroke-dasharray:none;stroke-opacity:1;paint-order:markers stroke fill"
     id="path64"
     cx="97.224129"
     cy="172.07568"
     r="38.17094" /></svg>
