<?xml version="1.0" encoding="UTF-8" standalone="no"?>
<svg
   viewBox="0 0 2048 2048"
   version="1.1"
   id="svg1"
   sodipodi:docname="neogob_bongo_up.svg"
   inkscape:export-filename="..\png\neogob_bongo_up.png"
   inkscape:export-xdpi="12"
   inkscape:export-ydpi="12"
   inkscape:version="1.3.2 (091e20e, 2023-11-25, custom)"
   xml:space="preserve"
   xmlns:inkscape="http://www.inkscape.org/namespaces/inkscape"
   xmlns:sodipodi="http://sodipodi.sourceforge.net/DTD/sodipodi-0.dtd"
   xmlns:xlink="http://www.w3.org/1999/xlink"
   xmlns="http://www.w3.org/2000/svg"
   xmlns:svg="http://www.w3.org/2000/svg"><defs
     id="defs1"><inkscape:path-effect
       effect="fillet_chamfer"
       id="path-effect32"
       is_visible="true"
       lpeversion="1"
       nodesatellites_param="F,0,0,1,0,40,0,1 @ F,0,0,1,0,40,0,1 @ F,0,0,1,0,40,0,1"
       radius="40"
       unit="px"
       method="auto"
       mode="F"
       chamfer_steps="1"
       flexible="false"
       use_knot_distance="true"
       apply_no_radius="true"
       apply_with_radius="true"
       only_selected="false"
       hide_knots="false" /><inkscape:path-effect
       effect="fillet_chamfer"
       id="path-effect30"
       is_visible="true"
       lpeversion="1"
       nodesatellites_param="F,0,0,1,0,40,0,1 @ F,0,0,1,0,40,0,1 @ F,0,0,1,0,40,0,1"
       radius="40"
       unit="px"
       method="auto"
       mode="F"
       chamfer_steps="1"
       flexible="false"
       use_knot_distance="true"
       apply_no_radius="true"
       apply_with_radius="true"
       only_selected="false"
       hide_knots="false" /><inkscape:path-effect
       effect="fillet_chamfer"
       id="path-effect28"
       is_visible="true"
       lpeversion="1"
       nodesatellites_param="F,0,0,1,0,40,0,1 @ F,0,0,1,0,40,0,1 @ F,0,0,1,0,40,0,1"
       radius="40"
       unit="px"
       method="auto"
       mode="F"
       chamfer_steps="1"
       flexible="false"
       use_knot_distance="true"
       apply_no_radius="true"
       apply_with_radius="true"
       only_selected="false"
       hide_knots="false" /><inkscape:path-effect
       effect="fillet_chamfer"
       id="path-effect26"
       is_visible="true"
       lpeversion="1"
       nodesatellites_param="F,0,0,1,0,40,0,1 @ F,0,0,1,0,40,0,1 @ F,0,0,1,0,40,0,1"
       radius="40"
       unit="px"
       method="auto"
       mode="F"
       chamfer_steps="1"
       flexible="false"
       use_knot_distance="true"
       apply_no_radius="true"
       apply_with_radius="true"
       only_selected="false"
       hide_knots="false" /><inkscape:path-effect
       effect="fillet_chamfer"
       id="path-effect24"
       is_visible="true"
       lpeversion="1"
       nodesatellites_param="F,0,0,1,0,40,0,1 @ F,0,0,1,0,40,0,1 @ F,0,0,1,0,40,0,1"
       radius="40"
       unit="px"
       method="auto"
       mode="F"
       chamfer_steps="1"
       flexible="false"
       use_knot_distance="true"
       apply_no_radius="true"
       apply_with_radius="true"
       only_selected="false"
       hide_knots="false" /><inkscape:path-effect
       effect="fillet_chamfer"
       id="path-effect22"
       is_visible="true"
       lpeversion="1"
       nodesatellites_param="F,0,0,1,0,40,0,1 @ F,0,0,1,0,40,0,1 @ F,0,0,1,0,40,0,1"
       radius="40"
       unit="px"
       method="auto"
       mode="F"
       chamfer_steps="1"
       flexible="false"
       use_knot_distance="true"
       apply_no_radius="true"
       apply_with_radius="true"
       only_selected="false"
       hide_knots="false" /><inkscape:path-effect
       effect="fillet_chamfer"
       id="path-effect16"
       is_visible="true"
       lpeversion="1"
       nodesatellites_param="F,0,0,1,0,40,0,1 @ F,0,0,1,0,40,0,1 @ F,0,0,1,0,40,0,1"
       radius="40"
       unit="px"
       method="auto"
       mode="F"
       chamfer_steps="1"
       flexible="false"
       use_knot_distance="true"
       apply_no_radius="true"
       apply_with_radius="true"
       only_selected="false"
       hide_knots="false" /><inkscape:path-effect
       effect="fillet_chamfer"
       id="path-effect14"
       is_visible="true"
       lpeversion="1"
       nodesatellites_param="F,0,0,1,0,40,0,1 @ F,0,0,1,0,40,0,1 @ F,0,0,1,0,40,0,1"
       radius="40"
       unit="px"
       method="auto"
       mode="F"
       chamfer_steps="1"
       flexible="false"
       use_knot_distance="true"
       apply_no_radius="true"
       apply_with_radius="true"
       only_selected="false"
       hide_knots="false" /><inkscape:path-effect
       effect="fillet_chamfer"
       id="path-effect12"
       is_visible="true"
       lpeversion="1"
       nodesatellites_param="F,0,0,1,0,40,0,1 @ F,0,0,1,0,40,0,1 @ F,0,0,1,0,40,0,1"
       radius="40"
       unit="px"
       method="auto"
       mode="F"
       chamfer_steps="1"
       flexible="false"
       use_knot_distance="true"
       apply_no_radius="true"
       apply_with_radius="true"
       only_selected="false"
       hide_knots="false" /><inkscape:path-effect
       effect="fillet_chamfer"
       id="path-effect10"
       is_visible="true"
       lpeversion="1"
       nodesatellites_param="F,0,0,1,0,40,0,1 @ F,0,0,1,0,40,0,1 @ F,0,0,1,0,40,0,1"
       radius="40"
       unit="px"
       method="auto"
       mode="F"
       chamfer_steps="1"
       flexible="false"
       use_knot_distance="true"
       apply_no_radius="true"
       apply_with_radius="true"
       only_selected="false"
       hide_knots="false" /><inkscape:path-effect
       effect="fillet_chamfer"
       id="path-effect8"
       is_visible="true"
       lpeversion="1"
       nodesatellites_param="F,0,0,1,0,40,0,1 @ F,0,0,1,0,40,0,1 @ F,0,0,1,0,40,0,1"
       radius="40"
       unit="px"
       method="auto"
       mode="F"
       chamfer_steps="1"
       flexible="false"
       use_knot_distance="true"
       apply_no_radius="true"
       apply_with_radius="true"
       only_selected="false"
       hide_knots="false" /><inkscape:path-effect
       effect="fillet_chamfer"
       id="path-effect3"
       is_visible="true"
       lpeversion="1"
       nodesatellites_param="F,0,0,1,0,40,0,1 @ F,0,0,1,0,40,0,1 @ F,0,0,1,0,40,0,1"
       radius="40"
       unit="px"
       method="auto"
       mode="F"
       chamfer_steps="1"
       flexible="false"
       use_knot_distance="true"
       apply_no_radius="true"
       apply_with_radius="true"
       only_selected="false"
       hide_knots="false" /><clipPath
       clipPathUnits="userSpaceOnUse"
       id="clipPath3"><rect
         style="fill:#ffffff;fill-opacity:1;stroke:none;stroke-width:225.203;stroke-linecap:round;stroke-linejoin:round;stroke-dasharray:none;paint-order:markers stroke fill"
         id="rect3"
         width="2609.8523"
         height="1711.4413"
         x="-523.38153"
         y="-1613.9546"
         transform="scale(1,-1)" /></clipPath></defs><sodipodi:namedview
     id="namedview1"
     pagecolor="#ffffff"
     bordercolor="#666666"
     borderopacity="1.0"
     inkscape:showpageshadow="2"
     inkscape:pageopacity="0.0"
     inkscape:pagecheckerboard="0"
     inkscape:deskcolor="#d1d1d1"
     inkscape:zoom="0.36181641"
     inkscape:cx="993.59783"
     inkscape:cy="1059.9298"
     inkscape:window-width="1920"
     inkscape:window-height="1001"
     inkscape:window-x="-9"
     inkscape:window-y="-9"
     inkscape:window-maximized="1"
     inkscape:current-layer="svg1" /><style
     id="style1">.iris{fill:#000000}</style><g
     id="g2"
     transform="matrix(0.78471871,0,0,0.78471871,410.7073,76.499683)"
     inkscape:label="neogob"
     clip-path="url(#clipPath3)"
     style="display:inline"><path
       id="outline"
       fill="none"
       stroke="#000000"
       stroke-width="130"
       d="m 84,119 c -9,0 -14,11 -11,18 30,130 59,260 92,390 8,22 29,38 51,44 41,15 82,30 120,50 -34,26 -71,49 -104,77 a 70,70 0 0 0 -19,59 c 2,16 7,32 12,48 10,30 22,60 26,92 1,8 0,17 -5,24 -6,15 -13,29 -18,45 -26,67 -39,138 -47,209 -6,59 -4,117 -5,176 a 580,580 0 0 0 528,587 c 47,4 94,2 141,3 l 585,-1 a 447,447 0 0 0 425,-463 c -1,-112 1,-224 -3,-336 a 733,733 0 0 0 -52,-231 c -2,-4 1,-9 2,-13 l 17,-78 62,-289 62,-293 c 4,-31 37,-107 6,-112 -17,-3 -92,46 -106,55 l -160,82 a 7960,7960 0 0 1 -351,166 c -55,-11 -111,-20 -168,-25 A 1146,1146 0 0 0 790,431 C 623,358 457,284 291,209 L 89,119 Z"
       style="stroke-width:163.116;stroke-dasharray:none" /><path
       id="body"
       fill="#8bb9a0"
       d="m 1432,1877 a 388,388 0 0 0 359,-361 c 2,-21 1,-355 -1,-372 -17,-181 -65,-216 -53,-246 9,-24 136,-639 143,-663 1,-4 1,-5 -1,-3 -3,2 -509,263 -545,261 -306,-71 -526,-3 -549,5 -25,-9 -629,-280 -629,-280 0,0 66,289 69,289 88,32 170,66 182,88 9,18 7,41 -7,56 -13,14 -124,88 -125,92 -6,27 61,139 32,197 -41,82 -58,174 -66,264 -2,19 -3,161 -1,185 a 518,518 0 0 0 483,488 c 19,2 694,2 709,0 z" /><path
       id="mouth"
       fill="none"
       stroke="#542912"
       stroke-linecap="round"
       stroke-linejoin="round"
       stroke-width="80"
       d="m 635,1283.2474 99,157 127,-162 158,165 193,-162" /><path
       id="tooth"
       fill="#fefbba"
       d="m 1130,1412.2474 65,80 a 6,6 0 0 0 11,-3 l 15,-149 a 6,6 0 0 0 -10,-5 l -80,66 c -3,3 -3,8 -1,11 z" /><rect
       id="left_eye-9"
       class="iris"
       width="256"
       height="324"
       x="1101.1761"
       y="797.08276"
       ry="130"
       style="fill:#fc5900;fill-opacity:1" /><use
       id="right_eye"
       href="#left_eye-9"
       transform="translate(-570.90264)"
       x="0"
       y="0" /></g><style
     id="style1-1">
    .fur{fill:#e3dedb}.paw{fill:#e9afaf}.outline{stroke:#000}
  </style><g
     id="g3"
     transform="matrix(1.0199282,0,0,-1.0199282,112.67425,2653.6582)"
     style="display:inline"
     inkscape:label="arms"><g
       id="left_arm"
       transform="matrix(1,0,0,-1,3.0759381e-5,3000.3906)"><path
         id="forearm"
         class="fur outline"
         stroke-linecap="butt"
         stroke-linejoin="round"
         stroke-width="144"
         paint-order="markers stroke fill"
         d="M 1584.6092,1536.6092 C 1566.6092,1514.6092 1421,1371 1421,1371 c -29,-30 -56,-40 -83,-41 l -9,1 c -30,2 -62,17 -89,45 -49,48 -47,121 -12,157 0,0 154.6092,156.6092 175.6092,175.6092"
         sodipodi:nodetypes="ccccccc"
         style="fill:#8bb9a0;fill-opacity:1" /><path
         id="paw"
         class="paw"
         d="m 1297,1602 -69,-69 c -35,-36 -37,-109 12,-157 27,-28 59,-43 89,-45 30,-2 60,7 92,40 l 66,67 c -27,88 -91,158 -190,164 z"
         style="fill:#8bb9a0;fill-opacity:1" /></g><use
       x="0"
       y="0"
       xlink:href="#left_arm"
       id="use3"
       transform="translate(-881.64813)"
       inkscape:label="right_arm" /></g><path
     style="display:inline;fill:none;stroke:#000000;stroke-width:128;stroke-linecap:round;stroke-linejoin:miter;stroke-dasharray:none;stroke-opacity:1"
     d="M 65.276653,1342.9312 H 1983.4872"
     id="path2"
     sodipodi:nodetypes="cc"
     inkscape:label="table" /></svg>
