<?xml version="1.0" encoding="UTF-8" standalone="no"?>
<svg
   viewBox="0 0 2048 2048"
   version="1.1"
   id="svg1"
   sodipodi:docname="neogob_conviction.svg"
   inkscape:export-filename="../neogob/neogob_conviction.png"
   inkscape:export-xdpi="96"
   inkscape:export-ydpi="96"
   inkscape:version="1.3.2 (091e20e, 2023-11-25, custom)"
   xml:space="preserve"
   xmlns:inkscape="http://www.inkscape.org/namespaces/inkscape"
   xmlns:sodipodi="http://sodipodi.sourceforge.net/DTD/sodipodi-0.dtd"
   xmlns="http://www.w3.org/2000/svg"
   xmlns:svg="http://www.w3.org/2000/svg"
   xmlns:serif="http://www.serif.com/"><defs
     id="defs1"><inkscape:path-effect
       effect="skeletal"
       id="path-effect27"
       is_visible="true"
       lpeversion="1"
       pattern="M 794.77863,400.0714 C 805.87051,335.9119 811.14031,260.8421 811.62074,199.852 813.49209,144.3385 814.73966,90.7164 814.73966,32 M 884.5573,399.4572 C 906.741,338.0828 917.2806,254.8876 918.2415,199.852 921.9842,144.7756 924.4793,93.4821 924.4793,32 m 49.8566,366.8431 c 33.2756,-58.5894 49.085,-149.91 50.5263,-198.9911 5.6141,-54.6393 9.3568,-103.6042 9.3568,-167.852 m 29.8955,366.2289 c 44.3675,-55.8043 65.4467,-155.2503 67.3685,-198.3769 7.4854,-54.2021 12.4756,-100.8385 12.4756,-167.852 m 9.9346,365.6147 c 55.4594,-53.0192 81.8084,-160.5906 84.2105,-197.7627 9.3567,-53.765 15.5946,-98.0728 15.5946,-167.852 m -10.0265,365.0005 c 66.5513,-50.2341 98.1701,-165.9309 101.0527,-197.1485 11.228,-53.3279 18.7134,-95.307 18.7134,-167.852 m -29.9875,364.3864 c 77.6432,-47.4492 114.5318,-171.2712 117.8948,-196.5344 13.0994,-52.8908 21.8324,-92.5413 21.8324,-167.852 m -49.9485,363.7722 c 88.735,-44.6641 130.8934,-176.6115 134.7369,-195.9202 14.9707,-52.4536 24.9512,-89.7756 24.9512,-167.852 m -69.9095,363.158 c 99.8269,-41.879 147.2551,-181.9518 151.579,-195.306 16.8421,-52.0165 28.0702,-87.0099 28.0702,-167.852 M 705,400.6856 c 0,-66.9445 0,-133.8891 0,-200.8336 C 705,143.9013 705,87.9507 705,32 M 622.77485,399.7643 C 606.13702,336.9974 598.23232,257.8647 597.5117,199.852 594.70468,144.557 592.83333,92.0992 592.83333,32 M 540.5497,398.8431 C 507.27405,340.2537 491.46464,248.933 490.02339,199.852 484.40936,145.2127 480.66667,96.2478 480.66667,32 M 458.32456,397.9218 C 408.41107,343.51 384.69697,240.0012 382.53509,199.852 374.11404,145.8684 368.5,100.3964 368.5,32 m 7.59941,365.0005 C 309.54809,346.7664 277.92929,231.0694 275.04678,199.852 263.81871,146.5241 256.33333,104.545 256.33333,32 m 37.54093,364.0793 C 210.68512,350.0227 171.16161,222.1376 167.55848,199.852 153.52339,147.1798 144.16667,108.6935 144.16667,32 m 67.48244,363.158 C 111.82214,353.279 64.39393,213.2058 60.07017,199.852 43.22807,147.8355 32,112.8421 32,32"
       copytype="single_stretched"
       prop_scale="1"
       scale_y_rel="false"
       spacing="0"
       normal_offset="0"
       tang_offset="0"
       prop_units="false"
       vertical_pattern="false"
       hide_knot="false"
       fuse_tolerance="0" /><inkscape:path-effect
       effect="skeletal"
       id="path-effect25"
       is_visible="true"
       lpeversion="1"
       pattern="M 794.77863,400.0714 C 805.87051,335.9119 811.14031,260.8421 811.62074,199.852 813.49209,144.3385 814.73966,90.7164 814.73966,32 M 884.5573,399.4572 C 906.741,338.0828 917.2806,254.8876 918.2415,199.852 921.9842,144.7756 924.4793,93.4821 924.4793,32 m 49.8566,366.8431 c 33.2756,-58.5894 49.085,-149.91 50.5263,-198.9911 5.6141,-54.6393 9.3568,-103.6042 9.3568,-167.852 m 29.8955,366.2289 c 44.3675,-55.8043 65.4467,-155.2503 67.3685,-198.3769 7.4854,-54.2021 12.4756,-100.8385 12.4756,-167.852 m 9.9346,365.6147 c 55.4594,-53.0192 81.8084,-160.5906 84.2105,-197.7627 9.3567,-53.765 15.5946,-98.0728 15.5946,-167.852 m -10.0265,365.0005 c 66.5513,-50.2341 98.1701,-165.9309 101.0527,-197.1485 11.228,-53.3279 18.7134,-95.307 18.7134,-167.852 m -29.9875,364.3864 c 77.6432,-47.4492 114.5318,-171.2712 117.8948,-196.5344 13.0994,-52.8908 21.8324,-92.5413 21.8324,-167.852 m -49.9485,363.7722 c 88.735,-44.6641 130.8934,-176.6115 134.7369,-195.9202 14.9707,-52.4536 24.9512,-89.7756 24.9512,-167.852 m -69.9095,363.158 c 99.8269,-41.879 147.2551,-181.9518 151.579,-195.306 16.8421,-52.0165 28.0702,-87.0099 28.0702,-167.852 M 705,400.6856 c 0,-66.9445 0,-133.8891 0,-200.8336 C 705,143.9013 705,87.9507 705,32 M 622.77485,399.7643 C 606.13702,336.9974 598.23232,257.8647 597.5117,199.852 594.70468,144.557 592.83333,92.0992 592.83333,32 M 540.5497,398.8431 C 507.27405,340.2537 491.46464,248.933 490.02339,199.852 484.40936,145.2127 480.66667,96.2478 480.66667,32 M 458.32456,397.9218 C 408.41107,343.51 384.69697,240.0012 382.53509,199.852 374.11404,145.8684 368.5,100.3964 368.5,32 m 7.59941,365.0005 C 309.54809,346.7664 277.92929,231.0694 275.04678,199.852 263.81871,146.5241 256.33333,104.545 256.33333,32 m 37.54093,364.0793 C 210.68512,350.0227 171.16161,222.1376 167.55848,199.852 153.52339,147.1798 144.16667,108.6935 144.16667,32 m 67.48244,363.158 C 111.82214,353.279 64.39393,213.2058 60.07017,199.852 43.22807,147.8355 32,112.8421 32,32"
       copytype="single_stretched"
       prop_scale="1"
       scale_y_rel="false"
       spacing="0"
       normal_offset="0"
       tang_offset="0"
       prop_units="false"
       vertical_pattern="false"
       hide_knot="false"
       fuse_tolerance="0" /><inkscape:path-effect
       effect="skeletal"
       id="path-effect23"
       is_visible="true"
       lpeversion="1"
       pattern="M 794.77863,400.0714 C 805.87051,335.9119 811.14031,260.8421 811.62074,199.852 813.49209,144.3385 814.73966,90.7164 814.73966,32 M 884.5573,399.4572 C 906.741,338.0828 917.2806,254.8876 918.2415,199.852 921.9842,144.7756 924.4793,93.4821 924.4793,32 m 49.8566,366.8431 c 33.2756,-58.5894 49.085,-149.91 50.5263,-198.9911 5.6141,-54.6393 9.3568,-103.6042 9.3568,-167.852 m 29.8955,366.2289 c 44.3675,-55.8043 65.4467,-155.2503 67.3685,-198.3769 7.4854,-54.2021 12.4756,-100.8385 12.4756,-167.852 m 9.9346,365.6147 c 55.4594,-53.0192 81.8084,-160.5906 84.2105,-197.7627 9.3567,-53.765 15.5946,-98.0728 15.5946,-167.852 m -10.0265,365.0005 c 66.5513,-50.2341 98.1701,-165.9309 101.0527,-197.1485 11.228,-53.3279 18.7134,-95.307 18.7134,-167.852 m -29.9875,364.3864 c 77.6432,-47.4492 114.5318,-171.2712 117.8948,-196.5344 13.0994,-52.8908 21.8324,-92.5413 21.8324,-167.852 m -49.9485,363.7722 c 88.735,-44.6641 130.8934,-176.6115 134.7369,-195.9202 14.9707,-52.4536 24.9512,-89.7756 24.9512,-167.852 m -69.9095,363.158 c 99.8269,-41.879 147.2551,-181.9518 151.579,-195.306 16.8421,-52.0165 28.0702,-87.0099 28.0702,-167.852 M 705,400.6856 c 0,-66.9445 0,-133.8891 0,-200.8336 C 705,143.9013 705,87.9507 705,32 M 622.77485,399.7643 C 606.13702,336.9974 598.23232,257.8647 597.5117,199.852 594.70468,144.557 592.83333,92.0992 592.83333,32 M 540.5497,398.8431 C 507.27405,340.2537 491.46464,248.933 490.02339,199.852 484.40936,145.2127 480.66667,96.2478 480.66667,32 M 458.32456,397.9218 C 408.41107,343.51 384.69697,240.0012 382.53509,199.852 374.11404,145.8684 368.5,100.3964 368.5,32 m 7.59941,365.0005 C 309.54809,346.7664 277.92929,231.0694 275.04678,199.852 263.81871,146.5241 256.33333,104.545 256.33333,32 m 37.54093,364.0793 C 210.68512,350.0227 171.16161,222.1376 167.55848,199.852 153.52339,147.1798 144.16667,108.6935 144.16667,32 m 67.48244,363.158 C 111.82214,353.279 64.39393,213.2058 60.07017,199.852 43.22807,147.8355 32,112.8421 32,32"
       copytype="single_stretched"
       prop_scale="1"
       scale_y_rel="false"
       spacing="0"
       normal_offset="0"
       tang_offset="0"
       prop_units="false"
       vertical_pattern="false"
       hide_knot="false"
       fuse_tolerance="0" /><inkscape:path-effect
       effect="skeletal"
       id="path-effect22"
       is_visible="true"
       lpeversion="1"
       pattern="M 0,0 H 1"
       copytype="single_stretched"
       prop_scale="1"
       scale_y_rel="false"
       spacing="0"
       normal_offset="0"
       tang_offset="0"
       prop_units="false"
       vertical_pattern="false"
       hide_knot="false"
       fuse_tolerance="0" /><inkscape:path-effect
       effect="interpolate"
       id="path-effect7"
       is_visible="true"
       lpeversion="1"
       trajectory="m 861,1810.6572 897.8323,2.7638"
       equidistant_spacing="true"
       steps="10" /><inkscape:path-effect
       effect="interpolate"
       id="path-effect5"
       is_visible="true"
       lpeversion="1"
       trajectory="m 861,1810.6572 -583.17544,2.7638"
       equidistant_spacing="true"
       steps="7" /><inkscape:path-effect
       effect="interpolate"
       id="path-effect3"
       is_visible="true"
       lpeversion="1"
       trajectory="M 861,1807.5465 214.19702,1793.7274"
       equidistant_spacing="true"
       steps="8" /><inkscape:path-effect
       effect="fillet_chamfer"
       id="path-effect6"
       is_visible="true"
       lpeversion="1"
       nodesatellites_param="F,0,0,1,0,0,0,1 @ F,0,0,1,0,0,0,1 @ F,0,0,1,0,20.354361,0,1 @ F,0,0,1,0,0,0,1 @ F,0,0,1,0,0,0,1 @ F,0,0,1,0,0,0,1 @ F,0,0,1,0,0,0,1 @ F,0,0,1,0,24.171759,0,1 @ F,0,0,1,0,0,0,1 @ F,0,0,1,0,0,0,1 @ F,0,0,1,0,0,0,1 @ F,0,0,1,0,0,0,1 @ F,0,0,1,0,25.130702,0,1 @ F,0,0,1,0,0,0,1 @ F,0,0,1,0,0,0,1 @ F,0,0,1,0,0,0,1 @ F,0,0,1,0,0,0,1 @ F,0,0,1,0,21.036697,0,1 @ F,0,0,1,0,0,0,1 @ F,0,0,1,0,0,0,1"
       radius="0"
       unit="px"
       method="auto"
       mode="F"
       chamfer_steps="1"
       flexible="false"
       use_knot_distance="true"
       apply_no_radius="true"
       apply_with_radius="true"
       only_selected="false"
       hide_knots="false" /><inkscape:path-effect
       effect="fillet_chamfer"
       id="path-effect4"
       is_visible="true"
       lpeversion="1"
       nodesatellites_param="F,0,0,1,0,0,0,1 @ F,0,0,1,0,0,0,1 @ F,0,0,1,0,20.354361,0,1 @ F,0,0,1,0,0,0,1 @ F,0,0,1,0,0,0,1 @ F,0,0,1,0,0,0,1 @ F,0,0,1,0,0,0,1 @ F,0,0,1,0,24.171759,0,1 @ F,0,0,1,0,0,0,1 @ F,0,0,1,0,0,0,1 @ F,0,0,1,0,0,0,1 @ F,0,0,1,0,0,0,1 @ F,0,0,1,0,25.130702,0,1 @ F,0,0,1,0,0,0,1 @ F,0,0,1,0,0,0,1 @ F,0,0,1,0,0,0,1 @ F,0,0,1,0,0,0,1 @ F,0,0,1,0,21.036697,0,1 @ F,0,0,1,0,0,0,1 @ F,0,0,1,0,0,0,1"
       radius="0"
       unit="px"
       method="auto"
       mode="F"
       chamfer_steps="1"
       flexible="false"
       use_knot_distance="true"
       apply_no_radius="true"
       apply_with_radius="true"
       only_selected="false"
       hide_knots="false" /></defs><sodipodi:namedview
     id="namedview1"
     pagecolor="#ffffff"
     bordercolor="#666666"
     borderopacity="1.0"
     inkscape:showpageshadow="2"
     inkscape:pageopacity="0.0"
     inkscape:pagecheckerboard="0"
     inkscape:deskcolor="#d1d1d1"
     inkscape:zoom="0.36181643"
     inkscape:cx="888.57214"
     inkscape:cy="971.48712"
     inkscape:window-width="1920"
     inkscape:window-height="1001"
     inkscape:window-x="-9"
     inkscape:window-y="-9"
     inkscape:window-maximized="1"
     inkscape:current-layer="g68" /><style
     id="style1">.iris{fill:#000000}</style><g
     id="g1"
     inkscape:label="neogob"
     style="display:inline"><path
       id="outline"
       fill="none"
       stroke="#000000"
       stroke-width="130"
       d="m 84,119 c -9,0 -14,11 -11,18 30,130 59,260 92,390 8,22 29,38 51,44 41,15 82,30 120,50 -34,26 -71,49 -104,77 a 70,70 0 0 0 -19,59 c 2,16 7,32 12,48 10,30 22,60 26,92 1,8 0,17 -5,24 -6,15 -13,29 -18,45 -26,67 -39,138 -47,209 -6,59 -4,117 -5,176 a 580,580 0 0 0 528,587 c 47,4 94,2 141,3 l 585,-1 a 447,447 0 0 0 425,-463 c -1,-112 1,-224 -3,-336 a 733,733 0 0 0 -52,-231 c -2,-4 1,-9 2,-13 l 17,-78 62,-289 62,-293 c 4,-31 37,-107 6,-112 -17,-3 -92,46 -106,55 l -160,82 a 7960,7960 0 0 1 -351,166 c -55,-11 -111,-20 -168,-25 A 1146,1146 0 0 0 790,431 C 623,358 457,284 291,209 L 89,119 Z" /><path
       id="body"
       fill="#8bb9a0"
       d="m 1432,1877 a 388,388 0 0 0 359,-361 c 2,-21 1,-355 -1,-372 -17,-181 -65,-216 -53,-246 9,-24 136,-639 143,-663 1,-4 1,-5 -1,-3 -3,2 -509,263 -545,261 -306,-71 -526,-3 -549,5 -25,-9 -629,-280 -629,-280 0,0 66,289 69,289 88,32 170,66 182,88 9,18 7,41 -7,56 -13,14 -124,88 -125,92 -6,27 61,139 32,197 -41,82 -58,174 -66,264 -2,19 -3,161 -1,185 a 518,518 0 0 0 483,488 c 19,2 694,2 709,0 z" /><path
       id="path68"
       fill="#fefbba"
       d="m 712.41322,1444.9074 -39.76772,-87.9433 c -3.49619,-4.6208 0.93976,-11.0223 6.49407,-9.3716 l 65.48245,15.5085 c 5.30048,1.3412 6.55788,5.074 4.19127,11.9496 l -25.69553,72.5795 c -3.82821,1.8288 -8.54244,0.1627 -10.70454,-2.7227 z"
       sodipodi:nodetypes="ccccccc" /><path
       id="mouth"
       fill="none"
       stroke="#542912"
       stroke-linecap="round"
       stroke-linejoin="round"
       stroke-width="80"
       d="m 635,1375 99,157 127,-162 158,165 193,-162" /><path
       id="tooth"
       fill="#fefbba"
       d="m 1130,1504 65,80 a 6,6 0 0 0 11,-3 l 15,-149 a 6,6 0 0 0 -10,-5 l -80,66 c -3,3 -3,8 -1,11 z" /><g
       id="Eyes-5"
       style="clip-rule:evenodd;display:inline;fill-rule:evenodd;stroke-linecap:round;stroke-linejoin:round;stroke-miterlimit:1.5"
       transform="matrix(8,0,0,8,150.67134,88.17067)">
            <path
   id="Right-eye-4"
   serif:id="Right eye"
   d="m 122.939,119.18394 c -0.411,-8.841 5.208,-17.889 14.862,-18.076 9.066,-0.176 17.72,6.913 17.756,18.83"
   style="fill:none;stroke:#fc5900;stroke-width:12px;stroke-opacity:1" />
            <path
   id="Left-eye-8"
   serif:id="Left eye"
   d="m 72.141,119.21294 c 0.411,-8.84 -5.208,-17.889 -14.862,-18.076 -9.065,-0.175 -17.72,6.913 -17.756,18.83"
   style="fill:none;stroke:#fc5900;stroke-width:12px;stroke-opacity:1" />
        <path
   style="display:inline;fill:none;stroke:#000000;stroke-width:8;stroke-linecap:round;stroke-linejoin:miter;stroke-dasharray:none;stroke-opacity:1"
   d="m 85.145663,91.922132 c 0,0 -47.755647,-14.494485 -53.663418,2.723422"
   id="path58"
   sodipodi:nodetypes="cc" /><path
   style="display:inline;fill:none;stroke:#000000;stroke-width:8;stroke-linecap:round;stroke-linejoin:miter;stroke-dasharray:none;stroke-opacity:1"
   d="m 109.10844,91.922132 c 0,0 47.75565,-14.494485 53.66342,2.723422"
   id="path59"
   sodipodi:nodetypes="cc" /></g></g><g
     id="g3"
     inkscape:label="shawl"
     transform="matrix(0.6699645,0,0,0.714162,166.90693,575.05306)"><g
       id="g109"
       transform="matrix(-0.96592582,0.24280145,0.27589332,0.96592582,1654.5655,-406.37914)"><path
         style="display:inline;fill:none;stroke:#ffa500;stroke-width:79.2747;stroke-linecap:round;stroke-linejoin:round;stroke-dasharray:none;stroke-opacity:1"
         d="m 2398.3294,1830.4052 c -25.89,-12.8331 -48.7885,-35.1633 -72.0357,-56.3391 0,0 0,0 0,0 -15.7683,-13.6811 -30.922,-29.5937 -47.2979,-43.9216 -16.9876,-14.863 -33.1604,-26.7036 -50.534,-37.3357 -26.445,-16.3963 -49.8595,-25.7687 -55.5006,-28.1169 -10.1063,-4.2066 -20.1995,-7.7445 -30.3745,-10.7861 0,0 0,0 0,0 -31.3923,-9.2662 -62.2642,-13.432 -96.3896,-18.6064 -32.5918,-4.9419 -73.4827,-11.5407 -119.0249,-27.3685"
         id="path130" /><path
         style="display:inline;fill:none;stroke:#ffa500;stroke-width:79.2747;stroke-linecap:round;stroke-linejoin:round;stroke-dasharray:none;stroke-opacity:1"
         d="m 1913.1915,1624.8143 c 36.7796,12.4731 74.8601,37.1338 108.7505,60.9459 23.7968,16.5308 54.069,39.7593 71.707,53.4398 20.5154,15.9122 35.2584,27.7684 40.898,33.2606 24.4425,19.8245 47.1019,36.4173 70.4369,55.7144 22.9335,18.9652 47.8354,41.6219 74.2705,72.0904"
         id="path129" /><path
         style="display:inline;fill:none;stroke:#ffa500;stroke-width:79.2747;stroke-linecap:round;stroke-linejoin:round;stroke-dasharray:none;stroke-opacity:1"
         d="m 1846.2554,1623.1343 c 30.2532,14.9219 59.6047,37.9509 85.4174,61.759 43.1544,39.8796 79.7099,85.4862 88.7524,101.5678 33.0481,44.1926 61.4128,80.3037 89.9806,142.3588"
         id="path128" /><path
         style="display:inline;fill:none;stroke:#ffa500;stroke-width:79.2747;stroke-linecap:round;stroke-linejoin:round;stroke-dasharray:none;stroke-opacity:1"
         d="m 1778.1708,1659.9571 c 31.5091,23.2294 60.529,57.8735 82.9975,90.122 22.7244,32.6161 39.2731,63.5762 45.3907,81.1943 23.1718,46.5569 42.6181,86.5732 59.6481,146.2138"
         id="path127" /><path
         style="display:inline;fill:none;stroke:#ffa500;stroke-width:79.2747;stroke-linecap:round;stroke-linejoin:round;stroke-dasharray:none;stroke-opacity:1"
         d="m 1662.4775,1659.9851 c 43.3339,51.0998 76.2634,132.9106 84.8042,175.3167 14.6828,47.8064 27.1471,91.3609 36.5687,147.6539"
         id="path126" /><path
         style="display:inline;fill:none;stroke:#ffa500;stroke-width:79.2747;stroke-linecap:round;stroke-linejoin:round;stroke-dasharray:none;stroke-opacity:1"
         d="m 1583.4559,1684.5224 c 22.4679,55.5722 38.0031,125.7124 42.9531,176.5655 7.3896,48.4959 13.7799,95.0816 18.1328,147.7159"
         id="path125" /><path
         style="display:inline;fill:none;stroke:#daa520;stroke-width:79.2746;stroke-linecap:round;stroke-linejoin:round;stroke-dasharray:none;stroke-opacity:1"
         d="m 2467.2522,1732.7001 c -27.8891,-8.1072 -54.4798,-26.0299 -81.2136,-42.762 0,0 0,0 0,0 -18.0137,-10.6813 -35.8096,-23.6534 -54.5385,-34.8634 -19.4282,-11.6285 -37.52,-20.4377 -56.5892,-27.8567 -29.0631,-11.5009 -53.8942,-16.6457 -59.8924,-17.9735 -10.7461,-2.3785 -21.3619,-4.1045 -31.9718,-5.3303 0,0 0,0 0,0 -32.7133,-3.6665 -64.0176,-2.4281 -98.7207,-1.617 -33.1436,0.7746 -74.7965,1.3562 -122.6732,-6.2984"
         id="path136" /><path
         style="display:inline;fill:none;stroke:#daa520;stroke-width:79.2746;stroke-linecap:round;stroke-linejoin:round;stroke-dasharray:none;stroke-opacity:1"
         d="m 1918.7827,1614.6721 c 38.3868,5.8969 80.171,23.5703 117.6814,41.1356 26.3059,12.1475 60.1518,29.7663 79.8974,40.1762 22.9668,12.108 39.5447,21.2239 46.0524,25.6535 27.5136,15.2789 52.71,27.6848 79.0414,42.6367 25.8784,14.6946 54.3363,32.683 85.6606,58.0982"
         id="path135" /><path
         style="display:inline;fill:none;stroke:#daa520;stroke-width:79.2746;stroke-linecap:round;stroke-linejoin:round;stroke-dasharray:none;stroke-opacity:1"
         d="m 1866.2854,1638.4251 c 32.3848,9.4418 65.2894,27.0241 94.8441,45.9881 49.4238,31.78 93.3434,70.346 105.0412,84.613 40.2199,37.7826 74.4243,68.4195 113.3339,124.5711"
         id="path134" /><path
         style="display:inline;fill:none;stroke:#daa520;stroke-width:79.2746;stroke-linecap:round;stroke-linejoin:round;stroke-dasharray:none;stroke-opacity:1"
         d="m 1791.2351,1692.352 c 35.0642,17.405 69.6591,46.4835 97.3861,74.3404 28.043,28.1746 49.7163,55.7907 58.8004,72.0788 30.9043,41.8259 57.0039,77.8574 84.1317,133.6348"
         id="path133" /><path
         style="display:inline;fill:none;stroke:#daa520;stroke-width:79.2746;stroke-linecap:round;stroke-linejoin:round;stroke-dasharray:none;stroke-opacity:1"
         d="m 1676.7255,1661.51 c 51.549,42.7986 98.1845,117.6485 113.9593,157.9272 22.7612,44.5305 42.5993,85.2588 61.6529,139.0606"
         id="path132" /><path
         style="display:inline;fill:none;stroke:#daa520;stroke-width:79.2746;stroke-linecap:round;stroke-linejoin:round;stroke-dasharray:none;stroke-opacity:1"
         d="m 1576.1012,1671.0809 c 31.7765,50.8264 59.2554,117.2034 72.9607,166.4243 15.6986,46.476 30.0813,91.2443 43.5079,142.3231"
         id="path131" /><path
         style="display:inline;fill:none;stroke:#ffd700;stroke-width:79.2747;stroke-linecap:round;stroke-linejoin:round;stroke-dasharray:none;stroke-opacity:1"
         d="m 2406.7944,1765.7083 c -26.9923,-10.5102 -51.8315,-30.7136 -76.9173,-49.7399 0,0 0,0 0,0 -16.9555,-12.2278 -33.4933,-26.7253 -51.1128,-39.543 -18.2774,-13.2963 -35.4751,-23.6607 -53.7661,-32.7207 -27.8602,-14.0019 -52.0751,-21.2882 -57.9169,-23.1331 -10.466,-3.3053 -20.8601,-5.9473 -31.2923,-8.0891 0,0 0,0 0,0 -32.1752,-6.491 -63.3822,-7.9603 -97.9277,-10.1503 -32.9933,-2.0916 -74.4227,-5.1118 -121.3107,-16.8978"
         id="path108" /><path
         style="display:inline;fill:none;stroke:#ffd700;stroke-width:79.2747;stroke-linecap:round;stroke-linejoin:round;stroke-dasharray:none;stroke-opacity:1"
         d="m 1861.2149,1613.6599 c 37.7267,9.2201 77.8117,30.468 113.6485,51.2358 25.1469,14.3938 57.3286,34.8955 76.0917,46.9867 21.8241,14.0637 37.5445,24.5898 43.6412,29.5696 26.0774,17.6188 50.0967,32.1734 75.0247,49.3634 24.4992,16.8942 51.281,37.2944 80.271,65.3429"
         id="path107" /><path
         style="display:inline;fill:none;stroke:#ffd700;stroke-width:79.2747;stroke-linecap:round;stroke-linejoin:round;stroke-dasharray:none;stroke-opacity:1"
         d="m 1777.5476,1626.1609 c 31.4387,12.2283 62.6856,32.6116 90.4751,54.0792 46.4659,35.9668 86.8572,78.2138 97.267,93.4461 36.7738,41.1442 68.1779,74.6457 102.0455,133.9748"
         id="path106" /><path
         style="display:inline;fill:none;stroke:#ffd700;stroke-width:79.2747;stroke-linecap:round;stroke-linejoin:round;stroke-dasharray:none;stroke-opacity:1"
         d="m 1689.3415,1635.8089 c 33.414,20.3949 65.3429,52.3779 90.5364,82.5454 25.4807,30.5114 44.6647,59.9114 52.2946,76.9293 27.1412,44.3602 50.0013,82.5293 72.1645,140.4587"
         id="path105" /><path
         style="display:inline;fill:none;stroke:#ffd700;stroke-width:79.2747;stroke-linecap:round;stroke-linejoin:round;stroke-dasharray:none;stroke-opacity:1"
         d="m 1597.4862,1643.1951 c 47.6226,47.1284 87.5571,125.758 99.7614,167.2584 18.7935,46.3448 35.0064,88.6472 49.2983,143.9048"
         id="path104" /><path
         style="display:inline;fill:none;stroke:#ffd700;stroke-width:79.2747;stroke-linecap:round;stroke-linejoin:round;stroke-dasharray:none;stroke-opacity:1"
         d="m 1503.3178,1648.6843 c 27.2258,53.4025 48.815,121.9218 58.1783,172.15 11.5882,47.6673 22.0143,93.5188 30.9379,145.5735"
         id="path103" /></g><g
       id="g108"
       transform="matrix(-0.89420297,-0.22477273,-0.27763415,0.97202063,2992.3169,91.57048)"><path
         style="display:inline;fill:none;stroke:#ffa500;stroke-width:79.2747;stroke-linecap:round;stroke-linejoin:round;stroke-dasharray:none;stroke-opacity:1"
         d="m -559.66465,1767.9201 c 27.88828,-8.1071 54.4781,-26.029 81.21102,-42.7605 0,0 2e-5,-10e-5 2e-5,-10e-5 18.01314,-10.6809 35.80852,-23.6527 54.53692,-34.8625 19.42769,-11.6283 37.51894,-20.4376 56.5881,-27.8565 29.06571,-11.5022 53.89878,-16.647 59.89781,-17.9748 10.74316,-2.3779 21.35628,-4.1034 31.96339,-5.3289 0,0 2e-5,0 2e-5,0 32.71492,-3.667 64.02038,-2.4281 98.72446,-1.6163 33.14442,0.7753 74.79884,1.3582 122.677741,-6.2958"
         id="path124"
         transform="translate(236.13145)" /><path
         style="display:inline;fill:none;stroke:#ffa500;stroke-width:79.2747;stroke-linecap:round;stroke-linejoin:round;stroke-dasharray:none;stroke-opacity:1"
         d="m -2.4063536,1598.6446 c -41.8387714,5.1268 -87.1339644,23.8125 -127.1971064,42.0212 -26.14627,11.7205 -60.68726,29.0829 -79.82318,38.769 -22.81616,11.5488 -38.69412,19.8591 -44.59184,23.5696 -28.02576,14.9316 -53.55817,26.7917 -80.33006,41.3551 -26.28429,14.2981 -55.3724,32.0658 -87.61172,57.7572"
         id="path123"
         transform="translate(236.13145)" /><path
         style="display:inline;fill:none;stroke:#ffa500;stroke-width:79.2747;stroke-linecap:round;stroke-linejoin:round;stroke-dasharray:none;stroke-opacity:1"
         d="m 88.236504,1620.2026 c -39.615076,8.5992 -79.6961076,28.5609 -114.542553,49.625 -50.189862,30.3992 -93.223881,65.7906 -102.812731,76.3748 -42.35791,36.7482 -77.4055,64.8312 -118.4471,122.9606"
         id="path122"
         transform="translate(236.13145)" /><path
         style="display:inline;fill:none;stroke:#ffa500;stroke-width:79.2747;stroke-linecap:round;stroke-linejoin:round;stroke-dasharray:none;stroke-opacity:1"
         d="m 184.21102,1638.8899 c -43.17745,14.2308 -85.053666,43.7721 -117.878562,71.8063 -33.241736,28.3902 -57.9637616,55.9739 -65.8356616,68.504 -34.2345014,40.4981 -61.7751874,72.8955 -91.1165344,131.9791"
         id="path121"
         transform="translate(236.13145)" /><path
         style="display:inline;fill:none;stroke:#ffa500;stroke-width:79.2747;stroke-linecap:round;stroke-linejoin:round;stroke-dasharray:none;stroke-opacity:1"
         d="m 224.90089,1683.4879 c -0.87746,0.4104 -1.75283,0.8275 -2.62612,1.2513 -36.8864,17.7059 -70.77415,47.8866 -97.01662,76.7172 -26.456938,29.0663 -45.613468,57.3134 -52.501278,72.5552 -27.295208,42.9379 -49.443724,78.9718 -70.68177,137.3507"
         id="path120"
         transform="translate(236.13145)" /><path
         style="display:inline;fill:none;stroke:#ffa500;stroke-width:79.2747;stroke-linecap:round;stroke-linejoin:round;stroke-dasharray:none;stroke-opacity:1"
         d="m 327.14885,1697.8453 c -60.32877,40.6517 -109.25757,122.3327 -121.17709,158.3048 -21.45405,44.6742 -39.02559,83.6813 -54.50406,140.6283"
         id="path119"
         transform="translate(236.13145)" /><path
         style="display:inline;fill:none;stroke:#ffa500;stroke-width:79.2747;stroke-linecap:round;stroke-linejoin:round;stroke-dasharray:none;stroke-opacity:1"
         d="m 519.99402,1682.0007 c -45.93922,46.0171 -80.75923,122.8778 -90.45363,164.6089 -15.87814,46.0495 -29.1608,87.8953 -39.88385,143.0603"
         id="path118"
         transform="translate(236.13145)" /><path
         style="display:inline;fill:none;stroke:#ffa500;stroke-width:79.2747;stroke-linecap:round;stroke-linejoin:round;stroke-dasharray:none;stroke-opacity:1"
         d="m 624.16188,1692.1077 c -31.04967,50.7879 -53.08914,122.0975 -60.03039,169.5576 -10.45648,47.1894 -19.37686,91.6995 -25.98701,144.9011"
         id="path117"
         transform="translate(236.13145)" /><path
         style="display:inline;fill:none;stroke:#ffa500;stroke-width:79.2747;stroke-linecap:round;stroke-linejoin:round;stroke-dasharray:none;stroke-opacity:1"
         d="m 698.88185,1700.2007 c -15.55422,55.085 -26.00037,120.1728 -29.68512,173.3446 -5.15359,48.1117 -9.64529,95.1403 -12.6931,146.2218"
         id="path23"
         transform="translate(236.13145)" /><path
         style="display:inline;fill:none;stroke:#daa520;stroke-width:79.2747;stroke-linecap:round;stroke-linejoin:round;stroke-dasharray:none;stroke-opacity:1"
         d="m -522.55696,1833.7592 c 25.88917,-12.8328 48.78691,-35.1622 72.03338,-56.3372 0,0 2e-5,0 2e-5,0 15.76782,-13.6808 30.92097,-29.5928 47.29657,-43.9205 16.98701,-14.8627 33.15934,-26.7032 50.53286,-37.3354 26.44724,-16.398 49.86369,-25.7707 55.5056,-28.1191 10.10363,-4.2055 20.19422,-7.7425 30.36657,-10.7833 0,0 2e-5,0 2e-5,0 31.39375,-9.2669 62.26695,-13.4324 96.39344,-18.6063 32.59279,-4.9413 73.485314,-11.5392 119.029805,-27.3668"
         id="path116"
         transform="translate(236.13145)" /><path
         style="display:inline;fill:none;stroke:#daa520;stroke-width:79.2747;stroke-linecap:round;stroke-linejoin:round;stroke-dasharray:none;stroke-opacity:1"
         d="m -60.835722,1655.5872 c -40.312878,12.3142 -81.675198,38.5814 -117.967778,63.4704 -23.71381,16.0826 -54.7151,39.1793 -71.87833,52.0411 -20.46407,15.3354 -34.65774,26.2766 -39.82153,30.9549 -25.00716,19.5713 -48.09218,35.6849 -71.92844,54.6759 -23.40212,18.6452 -48.963,41.194 -76.25126,72.0934"
         id="path115"
         transform="translate(236.13145)" /><path
         style="display:inline;fill:none;stroke:#daa520;stroke-width:79.2747;stroke-linecap:round;stroke-linejoin:round;stroke-dasharray:none;stroke-opacity:1"
         d="m 32.173598,1691.8832 c -37.52001,15.3476 -73.52582,41.966 -104.18513,68.7611 -44.148608,38.6528 -80.383188,80.9793 -87.988428,93.0677 -35.33314,43.5454 -64.9717,77.2877 -95.29572,141.6607"
         id="path114"
         transform="translate(236.13145)" /><path
         style="display:inline;fill:none;stroke:#daa520;stroke-width:79.2747;stroke-linecap:round;stroke-linejoin:round;stroke-dasharray:none;stroke-opacity:1"
         d="m 129.93506,1693.6207 c -40.050332,21.5123 -76.160572,57.8765 -103.618702,91.1848 -27.80682,33.7313 -47.36341,65.1888 -52.93989,78.8955 -26.68199,45.8276 -48.17851,82.5153 -66.81436,145.7963"
         id="path113"
         transform="translate(236.13145)" /><path
         style="display:inline;fill:none;stroke:#daa520;stroke-width:79.2747;stroke-linecap:round;stroke-linejoin:round;stroke-dasharray:none;stroke-opacity:1"
         d="m 261.53807,1692.5285 c -0.79287,0.5565 -1.58251,1.1193 -2.36895,1.6882 -33.2514,23.8422 -61.3835,59.4489 -82.22091,92.3985 -21.0077,33.2189 -34.96814,64.3633 -39.1046,80.5696 -19.42444,47.0254 -34.97925,86.3579 -45.757278,147.5378"
         id="path112"
         transform="translate(236.13145)" /><path
         style="display:inline;fill:none;stroke:#daa520;stroke-width:79.2747;stroke-linecap:round;stroke-linejoin:round;stroke-dasharray:none;stroke-opacity:1"
         d="m 364.72578,1688.9126 c -52.35315,50.51 -86.35485,139.4465 -91.8468,176.9419 -13.37052,47.721 -23.90159,89.1868 -29.25617,147.9564"
         id="path111"
         transform="translate(236.13145)" /><path
         style="display:inline;fill:none;stroke:#daa520;stroke-width:79.2747;stroke-linecap:round;stroke-linejoin:round;stroke-dasharray:none;stroke-opacity:1"
         d="m 644.98316,1682.9522 c -37.2505,53.2953 -58.1948,135.0348 -60.49538,177.8153 -7.64052,48.1071 -13.45493,91.6237 -14.43576,147.8127"
         transform="translate(1.005057e-5)"
         id="path110" /><path
         style="display:inline;fill:none;stroke:#daa520;stroke-width:79.2747;stroke-linecap:round;stroke-linejoin:round;stroke-dasharray:none;stroke-opacity:1"
         d="m 483.33983,1674.8172 c -21.75878,55.408 -31.08063,129.4614 -29.67506,177.4058 -2.10327,48.2882 -3.15904,93.6711 -0.4304,147.2123"
         id="path109"
         transform="translate(236.13145)" /><path
         style="display:inline;fill:none;stroke:#daa520;stroke-width:79.2747;stroke-linecap:round;stroke-linejoin:round;stroke-dasharray:none;stroke-opacity:1"
         d="m 587.72885,1664.6284 c -5.7525,56.9492 -4.7376,122.8621 0.8668,175.8659 3.2792,48.2757 7.0222,95.3698 12.8909,146.2045"
         id="path25"
         transform="translate(236.13145)" /><path
         style="display:inline;fill:none;stroke:#ffd700;stroke-width:79.2747;stroke-linecap:round;stroke-linejoin:round;stroke-dasharray:none;stroke-opacity:1"
         d="m -241.72029,1795.8878 c 26.7596,-11.0193 51.15773,-31.6885 75.82803,-51.1857 0,0 1e-5,0 1e-5,0 16.68822,-12.5462 32.90985,-27.3537 50.24923,-40.5026 17.986803,-13.6399 34.957334,-24.328 53.049404,-33.7329 27.555262,-14.5285 51.610294,-22.2725 57.4120788,-24.2279 10.389899,-3.5019 20.7222842,-6.3397 31.1034782,-8.6782 4e-6,0 6e-6,0 10e-6,0 32.030392,-7.1003 63.200495,-9.1603 97.692999,-12.004 32.94243,-2.7158 74.30007,-6.5194 120.92677,-19.1915"
         id="path101" /><path
         style="display:inline;fill:none;stroke:#ffd700;stroke-width:79.2747;stroke-linecap:round;stroke-linejoin:round;stroke-dasharray:none;stroke-opacity:1"
         d="m 334.49451,1615.2281 c -41.23273,8.7539 -84.72701,31.3162 -123.0507,52.9474 -25.02528,13.9546 -57.9216,34.2614 -76.1405,45.5784 -21.72277,13.4935 -36.816024,23.156 -42.367903,27.3664 -26.617753,17.3174 -51.019318,31.3577 -76.420037,48.1989 -24.938105,16.5346 -52.366963,36.7698 -82.244452,65.1733"
         id="path100" /><path
         style="display:inline;fill:none;stroke:#ffd700;stroke-width:79.2747;stroke-linecap:round;stroke-linejoin:round;stroke-dasharray:none;stroke-opacity:1"
         d="m 426.67137,1628.8041 c -38.71486,12.0192 -76.90362,35.3982 -109.78161,59.4191 -47.34941,34.6579 -87.13512,73.6653 -95.765,85.0449 -38.99391,40.3002 -71.46053,71.3309 -107.27964,132.8162"
         id="path99" /><path
         style="display:inline;fill:none;stroke:#ffd700;stroke-width:79.2747;stroke-linecap:round;stroke-linejoin:round;stroke-dasharray:none;stroke-opacity:1"
         d="m 523.90938,1639.0555 c -41.77286,17.9399 -80.91503,51.0185 -111.17168,81.8069 -30.64088,31.1794 -52.86476,60.8127 -59.61464,73.9813 -30.57458,43.3277 -55.18685,78.0022 -79.26709,139.4181"
         id="path98" /><path
         style="display:inline;fill:none;stroke:#ffd700;stroke-width:79.2747;stroke-linecap:round;stroke-linejoin:round;stroke-dasharray:none;stroke-opacity:1"
         d="m 625.36805,1646.8356 c -0.83834,0.4853 -1.67403,0.9771 -2.50706,1.4753 -35.20285,20.8535 -66.33124,53.8728 -89.96109,84.8809 -23.82298,31.2616 -40.44472,61.0707 -45.97791,76.8548 -23.44905,45.1536 -42.37273,82.9807 -58.44192,142.9884"
         id="path97" /><path
         style="display:inline;fill:none;stroke:#ffd700;stroke-width:79.2747;stroke-linecap:round;stroke-linejoin:round;stroke-dasharray:none;stroke-opacity:1"
         d="m 728.47826,1652.2268 c -56.55618,45.755 -98.17981,131.3896 -106.91881,168.2637 -17.47879,46.374 -31.58377,86.7642 -42.04008,144.8435"
         id="path96" /><path
         style="display:inline;fill:none;stroke:#ffd700;stroke-width:79.2747;stroke-linecap:round;stroke-linejoin:round;stroke-dasharray:none;stroke-opacity:1"
         d="m 832.43324,1655.3387 c -41.75375,49.8458 -69.74242,129.4488 -75.76281,171.8661 -11.80426,47.258 -21.38926,90.1023 -27.26355,145.992"
         id="path95" /><path
         style="display:inline;fill:none;stroke:#ffd700;stroke-width:79.2747;stroke-linecap:round;stroke-linejoin:round;stroke-dasharray:none;stroke-opacity:1"
         d="m 937.0856,1656.3285 c -26.50508,53.3006 -42.24563,126.2598 -45.02405,174.1443 -6.30385,47.9212 -11.31099,93.0393 -13.25915,146.6146"
         id="path94" /></g></g><g
     id="g68"
     transform="matrix(0,1,1,0,-94.995322,120.89515)"
     style="display:inline"
     inkscape:label="left_hand"><path
       id="path78"
       style="fill:none;stroke:#000000;stroke-width:100;stroke-linejoin:round;stroke-dasharray:none;stroke-opacity:1;paint-order:markers stroke fill"
       d="m 901.9995,1664.0009 c 0,-36 28.00009,-64 64,-64 h 223.7988 92.8203 c 0,-58.4304 37.8431,-67.8496 84.4922,-67.8496 46.6491,0 110.8887,14.2552 110.8887,67.8496 v 229 c 0,49.9997 -48.0003,91 -98,91 h -30.3106 -94.6894 c -52,0 -97,-43.0003 -97,-94 v -97 l -192,-1 c -35.99991,0 -64,-28.0003 -64,-64 z"
       sodipodi:nodetypes="sscczssscssccs" /><path
       id="path72"
       style="fill:#8bb9a0;fill-opacity:1;stroke-width:150;stroke-linejoin:round;paint-order:markers stroke fill"
       d="m 901.9995,1664.0009 c 0,-36 28.00009,-64 64,-64 h 223.7988 92.8203 c 0,-58.4304 37.8431,-67.8496 84.4922,-67.8496 46.6491,0 110.8887,14.2552 110.8887,67.8496 v 229 c 0,49.9997 -48.0003,91 -98,91 h -30.3106 -94.6894 c -52,0 -97,-43.0003 -97,-94 v -97 l -192,-1 c -35.99991,0 -64,-28.0003 -64,-64 z"
       sodipodi:nodetypes="sscczssscssccs" /><path
       id="path79"
       style="fill:none;stroke:#000000;stroke-width:100;stroke-linejoin:round;stroke-dasharray:none;stroke-opacity:1;paint-order:markers stroke fill"
       d="m 1369.9995,1646.2938 0.4687,172.0274 c -67.9366,-48.9526 -87.8496,-90.9426 -87.8496,-125.5719 v -92.911"
       sodipodi:nodetypes="cccc" /><path
       id="path76"
       style="fill:#8bb9a0;fill-opacity:1;stroke-width:150;stroke-linejoin:round;paint-order:markers stroke fill"
       d="m 1282.6186,1598.0009 h 87.3809 l 0.4687,220.3203 c -67.9366,-48.9526 -87.8496,-90.9426 -87.8496,-125.5719 z"
       sodipodi:nodetypes="ccccc" /></g><g
     id="g829"
     transform="matrix(0.78225014,-0.13619517,0.13619517,0.78225014,-259.68369,133.16213)"
     style="display:inline"
     inkscape:label="authority_point"><path
       id="path1"
       style="fill:#000000;fill-opacity:1"
       d="m 1400.2344,169.57422 c -16.0255,29.32892 -66.0214,51.1528 -53.6132,86.82208 10.9851,32.78103 15.9686,67.42504 13.7204,101.96112 -69.294,-3.63312 -147.1901,-3.80001 -204.7075,40.71683 -53.3064,46.17022 -47.2764,145.6869 19.6658,176.46701 46.6407,21.54023 97.7838,30.55218 147.5319,42.10132 -2.1199,37.38752 0.6596,75.54354 12.7618,111.18945 -64.6047,3.26924 -101.8018,71.06415 -102.3846,129.78348 -6.3637,77.57634 45.0489,157.32269 122.7729,174.63529 64.6565,18.765 148.5949,14.78 188.8385,-47.30425 39.9483,-68.37499 45.1108,-165.51424 -11.1311,-226.74928 22.7211,-27.25421 22.926,-85.35909 51.1169,-97.00408 56.9259,6.50661 114.3447,14.75607 171.6879,11.91251 36.9341,-9.36128 69.0272,-47.79805 74.3158,-83.45349 2.7706,-41.1736 26.254,-80.48193 18.1477,-123.29131 -3.9196,-50.60109 -54.0234,-94.63608 -105.5102,-82.44143 -30.4437,0.7681 -80.7744,12.55168 -99.1051,-3.42654 4.0628,-37.12711 11.2621,-75.31255 5.0478,-112.46341 -14.8209,-48.04689 -66.2404,-56.76945 -107.7888,-68.96978 -44.9764,-18.02886 -93.6639,-29.69851 -141.3669,-30.48552 z" /><path
       id="shape06"
       style="fill:#ef7b93;fill-opacity:1"
       d="m 1402.6914,778.5918 c -6.5349,0.10431 -12.6073,3.76347 -16.636,8.76557 -7.2079,8.76101 -9.2414,21.14453 -6.1774,31.95629 3.1906,11.37348 11.565,21.2319 22.4273,25.95176 8.1405,3.69591 17.1366,4.76245 25.9583,5.47239 4.9727,0.4827 10.0266,0.71878 14.8516,2.1118 1.4922,0.47582 3.1198,1.30339 3.5673,2.93615 1.1039,2.9274 1.1163,6.1088 1.356,9.18888 0.1768,5.32266 -0.5824,10.95664 -3.6694,15.43356 -3.0551,4.24718 -8.1288,6.62553 -13.2236,7.29 -0.6892,0.099 -1.1156,0.15304 -1.8173,0.21786 -7.85,0.68406 -15.7316,-1.31361 -22.8223,-4.59575 -5.2456,-2.48793 -10.2284,-5.72129 -14.1912,-10.00014 -5.7977,-6.42682 -9.1234,-14.6162 -11.6017,-22.79967 -3.2316,-10.56449 -5.2662,-21.56552 -9.9962,-31.61816 -3.185,-6.51959 -7.9654,-12.52209 -14.4726,-15.94979 -6.3869,-3.4594 -14.0773,-4.85309 -21.1783,-3.03059 -6.8539,1.89438 -12.5276,6.7594 -16.607,12.45587 -6.1023,8.4092 -9.6263,18.37781 -11.9861,28.41457 -3.3721,14.77263 -3.9014,30.1669 -1.7921,45.16256 2.4171,16.79107 8.5571,33.23826 18.9328,46.75867 7.2439,9.50729 16.5173,17.44577 27.0162,23.1565 8.0272,4.4359 16.7351,7.50805 25.6024,9.77243 16.357,4.37847 33.2442,7.03506 50.2007,7.03784 11.617,-0.0606 23.3748,-1.52245 34.2742,-5.69993 8.7433,-3.39361 16.8617,-8.77214 22.6745,-16.20799 3.3247,-4.17729 5.7381,-8.9838 7.7588,-13.90201 7.2527,-16.7362 11.8224,-34.65784 13.2808,-52.84573 1.3662,-17.33052 -0.2557,-35.14467 -6.6388,-51.41915 -4.6918,-12.01022 -12.1269,-23.01084 -21.9052,-31.45985 -9.0482,-7.91972 -19.9213,-13.59165 -31.3799,-17.13307 -13.4931,-4.2176 -27.7187,-5.58468 -41.8058,-5.42087 z" /><path
       id="shape011"
       style="fill:#ef7b93;fill-opacity:1"
       d="m 1429.4043,243.61328 c -3.2784,3.77818 -6.5542,7.56193 -9.8301,11.34375 3.4552,11.9719 6.3084,24.13073 8.1387,36.46209 0.6031,3.93373 1.1503,8.10014 1.5941,12.15114 0.4936,4.45668 0.8801,8.92454 1.2047,13.39654 0.048,0.85371 0.1224,1.99641 0.1805,2.96112 0.2445,4.07743 0.4166,8.35082 0.5197,12.52053 0.1493,6.02136 0.1514,12.33104 0.025,18.36501 -0.145,6.02563 -0.3998,12.04434 -0.755,17.99709 -1.483,24.73564 -4.8165,49.44209 -8.8407,73.93644 -6.4748,39.10035 -14.8217,77.88481 -21.2461,117.02212 -4.5039,27.88541 -8.0175,56.05955 -7.6899,84.35617 0.2755,20.87334 2.853,41.88212 9.5028,61.73817 5.3507,15.8432 13.2692,30.92194 24.0095,43.78555 4.5725,5.11588 12.1369,7.31846 18.7253,5.34767 5.9128,-1.66578 10.7347,-5.86593 14.5593,-10.53019 6.8256,-8.27384 11.8901,-17.80486 16.6912,-27.34574 10.0807,-20.35572 18.3151,-41.55912 26.1196,-62.87151 11.6075,-31.8766 21.781,-64.26147 31.1145,-96.87074 12.8288,-44.89904 23.9249,-90.30567 32.8031,-136.15425 5.7166,-29.82429 10.4279,-59.8686 13.1811,-90.12072 1.1793,-13.51215 1.868,-27.06851 1.9531,-40.63282 -2.9239,-2.83649 -4.9825,-6.65502 -8.6949,-8.60207 -1.2411,-0.6263 -2.6865,-0.70203 -4.0348,-0.99124 -12.8681,-2.36799 -25.5273,-5.78433 -37.9366,-9.91867 -21.8289,-7.25384 -43.0749,-16.31531 -65.386,-22.07157 -11.5136,-3.00422 -23.2847,-4.92307 -35.1078,-6.19965 -0.2669,0.30859 -0.5339,0.61719 -0.8008,0.92578 z" /><path
       id="shape0111"
       style="fill:#ef7b93;fill-opacity:1;stroke-width:1.15145"
       d="m 1395.9181,560.58829 c 75.4291,14.29482 151.272,26.50967 227.6611,35.40284 39.4451,4.56548 79.0925,7.95847 119.0445,8.91788 1.1249,0.13357 2.2037,-1.00209 2.9698,-2.28093 4.9219,-6.59684 9.8203,-13.23625 14.7335,-19.84907 0.034,-4.91881 7e-4,-10.11804 0.4312,-14.92344 0.3784,-4.65676 1.2857,-9.33559 2.7385,-13.77373 4.1431,-13.86012 9.8577,-27.05265 12.8685,-41.38327 2.9266,-13.74381 4.0584,-28.16421 2.0961,-41.27024 -1.4132,-5.94725 -4.8109,-9.88836 -8.0342,-13.62478 -2.1853,-2.8114 -5.2529,-4.00366 -8.3839,-3.80566 -5.5952,-0.16836 -11.3056,1.41278 -16.943,1.81977 -8.0935,0.89394 -16.1786,1.71253 -24.2627,2.22919 -19.9167,1.34069 -39.7213,1.53905 -59.363,1.02629 -15.7383,-0.39543 -31.4347,-1.26052 -47.1065,-2.42404 -55.742,-4.1145 -110.9956,-11.95982 -166.3795,-18.71036 -40.0998,-4.87653 -80.2609,-9.61231 -120.9264,-10.57002 -17.1809,-0.36379 -34.4533,-0.0794 -51.8296,1.73403 -14.904,1.58403 -29.9041,4.22347 -44.834,9.07306 -8.3265,2.75096 -16.6533,6.14672 -24.7447,10.95537 -9.143,6.18104 -15.8956,20.95616 -15.538,34.62968 0.1095,10.13437 3.9407,18.9043 9.4998,23.82623 4.0898,3.72114 8.8629,5.8109 13.5312,8.00791 7.9866,3.45145 16.2442,5.9277 24.4529,8.55133 22.9742,7.03932 46.3189,12.49491 69.6533,17.94296 29.445,6.70346 59.0275,12.7462 88.6651,18.499 z" /></g><style
     id="style1-7">
    .iris{fill:#000}
  </style><style
     id="style1-4">
    .fur{fill:#e3dedb}.paw{fill:#e9afaf}.outline{stroke:#000}.hand{fill:#e9afaf}
  </style></svg>
