<?xml version="1.0" encoding="UTF-8" standalone="no"?>
<svg
   width="2048"
   height="2048"
   viewBox="0 0 2048 2048"
   version="1.1"
   id="svg8"
   inkscape:version="1.3.2 (091e20e, 2023-11-25, custom)"
   xml:space="preserve"
   sodipodi:docname="neogob_cave_albino.svg"
   xmlns:inkscape="http://www.inkscape.org/namespaces/inkscape"
   xmlns:sodipodi="http://sodipodi.sourceforge.net/DTD/sodipodi-0.dtd"
   xmlns:xlink="http://www.w3.org/1999/xlink"
   xmlns="http://www.w3.org/2000/svg"
   xmlns:svg="http://www.w3.org/2000/svg"
   xmlns:rdf="http://www.w3.org/1999/02/22-rdf-syntax-ns#"
   xmlns:cc="http://creativecommons.org/ns#"
   xmlns:dc="http://purl.org/dc/elements/1.1/"><defs
     id="defs2" /><sodipodi:namedview
     id="base"
     pagecolor="#ffffff"
     bordercolor="#666666"
     borderopacity="1.0"
     inkscape:pageopacity="0.0"
     inkscape:pageshadow="2"
     inkscape:zoom="0.35"
     inkscape:cx="1031.4286"
     inkscape:cy="1055.7143"
     inkscape:document-units="px"
     inkscape:current-layer="layer1"
     inkscape:document-rotation="0"
     showgrid="false"
     units="px"
     scale-x="1"
     inkscape:showpageshadow="2"
     inkscape:pagecheckerboard="0"
     inkscape:deskcolor="#d1d1d1"
     inkscape:window-width="1920"
     inkscape:window-height="1001"
     inkscape:window-x="-9"
     inkscape:window-y="-9"
     inkscape:window-maximized="1" /><metadata
     id="metadata5"><rdf:RDF><cc:Work
         rdf:about=""><dc:format>image/svg+xml</dc:format><dc:type
           rdf:resource="http://purl.org/dc/dcmitype/StillImage" /><cc:license
           rdf:resource="http://creativecommons.org/licenses/by-nc-sa/4.0/" /></cc:Work><cc:License
         rdf:about="http://creativecommons.org/licenses/by-nc-sa/4.0/"><cc:permits
           rdf:resource="http://creativecommons.org/ns#Reproduction" /><cc:permits
           rdf:resource="http://creativecommons.org/ns#Distribution" /><cc:requires
           rdf:resource="http://creativecommons.org/ns#Notice" /><cc:requires
           rdf:resource="http://creativecommons.org/ns#Attribution" /><cc:prohibits
           rdf:resource="http://creativecommons.org/ns#CommercialUse" /><cc:permits
           rdf:resource="http://creativecommons.org/ns#DerivativeWorks" /><cc:requires
           rdf:resource="http://creativecommons.org/ns#ShareAlike" /></cc:License></rdf:RDF></metadata><g
     inkscape:label="Layer 1"
     inkscape:groupmode="layer"
     id="layer1"><path
       id="path2"
       d="m 1692.2051,133.66211 c -149.6405,0 -357.6015,53.52917 -360.7773,287.76562 l -73.7589,62.34517 C 980.15448,436.52376 848.11835,473.1463 816.84179,483.2832 l -80.41406,-60.42578 c 0,0 39.99937,-212.14412 -168.57143,-269.28683 -52.67301,-14.43097 -106.96443,-20.40039 -155.88169,-20.90262 -146.7518,-1.50669 -261.25977,39.47461 -261.25977,39.47461 -48.48732,310.11683 162.31961,694.47326 162.31961,694.47326 l -0.42117,63.95447 c -0.0489,7.41807 -52.50002,77.21429 -63,183.99999 -2,19 -2,243 0,267 14.58768,261.3317 238.19727,481.9147 423.89087,491.1117 h 830.10915 c 135.4363,-23.7635 276.6917,-189.6656 291,-284.1117 2,-21 2,-435 0,-452 -17,-180.99966 -44,-201.76782 -37.0508,-221.16116 l 18.7338,-48.26851 c 100,-72.14286 139.4186,-327.85433 139.4186,-418.56836 0,-257.14261 -27.1426,-284.28711 -27.1426,-284.28711 -47.7805,-26.49638 -110.3122,-30.62305 -196.3672,-30.62305 z"
       style="fill:none;fill-opacity:1;stroke:#000000;stroke-width:256;stroke-dasharray:none;stroke-opacity:1"
       sodipodi:nodetypes="sccccssccsccccccccscs"
       inkscape:label="outline" /><path
       id="body"
       d="m 1692.2051,133.66211 c -149.6405,0 -357.6015,53.52917 -360.7773,287.76562 l -73.7589,62.34517 C 980.15448,436.52376 848.11835,473.1463 816.84179,483.2832 l -80.41406,-60.42578 c 0,0 39.99937,-212.14412 -168.57143,-269.28683 -52.67301,-14.43097 -106.96443,-20.40039 -155.88169,-20.90262 -146.7518,-1.50669 -261.25977,39.47461 -261.25977,39.47461 -48.48732,310.11683 162.31961,694.47326 162.31961,694.47326 l -0.42117,63.95447 c -0.0489,7.41807 -52.50002,77.21429 -63,183.99999 -2,19 -2,243 0,267 14.58768,261.3317 238.19727,481.9147 423.89087,491.1117 h 830.10915 c 135.4363,-23.7635 276.6917,-189.6656 291,-284.1117 2,-21 2,-435 0,-452 -17,-180.99966 -44,-201.76782 -37.0508,-221.16116 l 18.7338,-48.26851 c 100,-72.14286 139.4186,-327.85433 139.4186,-418.56836 0,-257.14261 -27.1426,-284.28711 -27.1426,-284.28711 -47.7805,-26.49638 -110.3122,-30.62305 -196.3672,-30.62305 z"
       style="fill:#cccccc;fill-opacity:1"
       sodipodi:nodetypes="sccccssccsccccccccscs" /><path
       id="mouth"
       fill="none"
       stroke="#542912"
       stroke-linecap="round"
       stroke-linejoin="round"
       stroke-width="80"
       d="m 654.61278,1525.5708 99,157 127,-162 158.00002,165 193,-162" /><path
       style="fill:#000000;stroke:none;stroke-width:1px;stroke-linecap:butt;stroke-linejoin:miter;stroke-opacity:1"
       d="m 711.78571,1359.6428 c -9.63269,-29.9817 -9.37406,-85.4008 26.42858,-106.0714 82.15352,-47.4314 141.55517,39.2857 153.21429,39.2857 11.65912,0 47.1785,-84.5461 134.64602,-53.1135 49.8262,17.9057 57.9319,90.7608 46.7826,124.5422 -17.8679,54.138 -47.0915,42.5914 -66.7857,26.7856 -20.24902,-16.2509 25.5539,-90.2512 -22.14292,-84.6428 -14.93116,1.7556 -49.89628,64.2696 -61.78572,79.3571 -13.79944,17.5113 -44.8469,12.9917 -53.07143,-1.2143 C 859.25,1367.6072 850.71429,1345 815,1320.7143 c -35.71428,-24.2857 -44.64286,-5.3572 -35.71428,21.4286 8.92857,26.7857 -2.14286,48.2142 -18.92858,51.7857 -16.78571,3.5714 -39.15946,-4.9911 -48.57143,-34.2858 z"
       id="path3"
       sodipodi:nodetypes="sszssssssssss"
       inkscape:label="nose" /><ellipse
       style="fill:#ffffff;fill-opacity:1;stroke:#000000;stroke-width:72;stroke-linecap:round;stroke-linejoin:round;stroke-dasharray:none;stroke-opacity:1;paint-order:normal"
       id="path4"
       cx="1259.0129"
       cy="981.30225"
       rx="200.96722"
       ry="190.2775"
       inkscape:label="left_eye" /><use
       x="0"
       y="0"
       xlink:href="#path4"
       id="use4"
       transform="translate(-655.06906,5)"
       inkscape:label="right_eye" /></g><style
     id="style1">.iris{fill:#000000}</style></svg>
