<?xml version="1.0" encoding="UTF-8" standalone="no"?>
<svg
   version="1.2"
   viewBox="0 0 2048 2048"
   id="svg1"
   sodipodi:docname="neogob_super.svg"
   inkscape:version="1.3.2 (091e20e, 2023-11-25, custom)"
   xmlns:inkscape="http://www.inkscape.org/namespaces/inkscape"
   xmlns:sodipodi="http://sodipodi.sourceforge.net/DTD/sodipodi-0.dtd"
   xmlns="http://www.w3.org/2000/svg"
   xmlns:svg="http://www.w3.org/2000/svg">
  <defs
     id="defs1" />
  <sodipodi:namedview
     id="namedview1"
     pagecolor="#ffffff"
     bordercolor="#666666"
     borderopacity="1.0"
     inkscape:showpageshadow="2"
     inkscape:pageopacity="0.0"
     inkscape:pagecheckerboard="0"
     inkscape:deskcolor="#d1d1d1"
     inkscape:zoom="0.25584283"
     inkscape:cx="1467.6979"
     inkscape:cy="1209.7271"
     inkscape:window-width="1920"
     inkscape:window-height="1001"
     inkscape:window-x="-9"
     inkscape:window-y="-9"
     inkscape:window-maximized="1"
     inkscape:current-layer="super" />
  <style
     id="style1">
    .fur{fill:#8bb9a0}
    .paw{fill:#8bb9a0}
    .hand{fill:#8bb9a0}
    .outline{stroke:#000}
    .iris{fill:#ff6a00}
    .sclera{fill:#ff6a00}
    .lips{stroke:#542912}
    .tooth{fill:#fefbba}
    .tongue{fill:#cf4d4c}
  </style>
  <path
     id="cape"
     fill="#cd4232"
     stroke="none"
     d="m 1744.3507,1209.2 182.1061,82.9115 122.6013,757.9593 -2035.5482,7.8639 100.09814,-774.0137 z"
     transform="translate(-0.5099,-0.19996)"
     style="fill:#23a1c6;fill-opacity:1"
     sodipodi:nodetypes="cccccc" />
  <path
     id="outline"
     class="outline"
     fill="none"
     stroke-width="130"
     d="M84 119c-9 0-14 11-11 18 30 130 59 260 92 390 8 22 29 38 51 44 41 15 82 30 120 50-34 26-71 49-104 77a70 70 0 0 0-19 59c2 16 7 32 12 48 10 30 22 60 26 92 1 8 0 17-5 24-6 15-13 29-18 45-26 67-39 138-47 209-6 59-4 117-5 176a580 580 0 0 0 528 587c47 4 94 2 141 3l585-1a447 447 0 0 0 425-463c-1-112 1-224-3-336a733 733 0 0 0-52-231c-2-4 1-9 2-13l17-78 62-289 62-293c4-31 37-107 6-112-17-3-92 46-106 55l-160 82a7960 7960 0 0 1-351 166c-55-11-111-20-168-25a1146 1146 0 0 0-374 28c-167-73-333-147-499-222L89 119h-5Z" />
  <path
     id="body"
     class="fur"
     d="M1432 1877a388 388 0 0 0 359-361c2-21 1-355-1-372-17-181-65-216-53-246 9-24 136-639 143-663 1-4 1-5-1-3-3 2-509 263-545 261-306-71-526-3-549 5-25-9-629-280-629-280s66 289 69 289c88 32 170 66 182 88 9 18 7 41-7 56-13 14-124 88-125 92-6 27 61 139 32 197-41 82-58 174-66 264-2 19-3 161-1 185a518 518 0 0 0 483 488c19 2 694 2 709 0z" />
  <path
     id="mouth"
     class="lips"
     fill="none"
     stroke-linecap="round"
     stroke-linejoin="round"
     stroke-width="80"
     d="m 675,1215 99,157 127,-162 158,165 193,-162" />
  <path
     id="tooth"
     class="tooth"
     d="m 1170,1344 65,80 a 6,6 0 0 0 11,-3 l 15,-149 a 6,6 0 0 0 -10,-5 l -80,66 c -3,3 -3,8 -1,11 z" />
  <rect
     id="left_eye"
     class="iris"
     width="256"
     height="324"
     x="1126"
     y="750"
     ry="130" />
  <use
     id="right_eye"
     x="0"
     y="0"
     href="#left_eye"
     transform="translate(-576)" />
  <g
     id="super"
     transform="translate(-0.5099,-0.19996)">
    <path
       id="hair_curl"
       fill="#000000"
       stroke="none"
       d="m 1060.64,481.60098 c 0,0 -69.2431,4.32764 -14.4257,69.24298 54.8173,64.91527 12.9831,95.20909 -24.5235,118.29008 -37.5066,23.08098 -116.8475,-5.77025 -119.73263,-31.73638 0,0 53.37482,21.63844 86.55373,0 33.1789,-21.63843 60.5877,-40.39172 -62.03016,-100.97933 L 789.43831,442.65178 1017.3631,392.16212 c 0,0 158.6819,25.96612 158.6819,36.06407 0,10.0979 -115.405,53.37479 -115.405,53.37479 z"
       style="stroke-width:1.17717" />
    <path
       id="shield"
       fill="#ffea98"
       stroke="#cd4232"
       stroke-width="72"
       stroke-linejoin="bevel"
       d="m 677.09961,1491.8809 c 0,18.4603 -10.4158,36.3052 -29.16427,47.9967 l 208.31624,288.5952 c 13.19336,-7.9994 96.51988,-12.3069 113.18517,-12.3069 16.66529,0 99.99175,4.3075 113.18515,12.3069 l 208.3162,-288.5952 c -18.0541,-11.0762 -29.1642,-28.9211 -29.1642,-47.9967 z"
       style="stroke:#23a1c6;stroke-opacity:1" />
    <path
       id="left_pauldron"
       fill="#cd4232"
       stroke="none"
       d="m 1467.1488,1409.8577 39.9076,70.5339 189.6634,453.3331 -24.91,90.8018 300.1789,-44.3263 -46.5901,-698.4587 c -235.2495,-27.8184 -362.3828,-73.2046 -458.2498,128.1162 z"
       style="fill:#23a1c6;fill-opacity:1" />
    <use
       id="right_pauldron"
       href="#left_pauldron"
       width="100%"
       height="100%"
       transform="matrix(-1,0,0,1,2036.4986,0)" />
    <g
       id="left_eye-3"
       transform="rotate(30,1497.7165,982.43233)">
      <circle
         id="sclera"
         cx="1244"
         cy="1004"
         r="227"
         fill="#fc5900" />
      <circle
         id="iris"
         cx="1209"
         cy="1008"
         r="195"
         fill="#000000" />
      <ellipse
         id="glare"
         cx="-656.21112"
         cy="1353.9886"
         fill="#ffffff"
         rx="99"
         ry="77"
         transform="rotate(-75)" />
      <path
         id="glint"
         fill="#8bb9a0"
         d="m 1287.9261,973.94698 c -5.4282,6.59807 -8.4904,15.29423 -7.5884,22.8564 0.7057,19.22242 -2.8206,35.11472 -10.7129,45.44482 a 32.310989,32.310989 0 1 0 50.7846,39.9616 c 20.3468,-26.7584 26.0334,-58.909 25.1577,-88.42565 a 32,32 0 0 0 -57.641,-19.83717 z"
         color="#000000"
         style="mix-blend-mode:luminosity" />
    </g>
    <use
       id="#right_eye"
       href="#left_eye-3"
       transform="translate(-645.99999)"
       x="0"
       y="0" />
    <path
       id="path2"
       style="opacity:1;fill:#23a1c6;fill-opacity:1;stroke:none;stroke-width:889.958;stroke-linecap:round;stroke-linejoin:round;stroke-opacity:1"
       d="m 992.05678,1542.8718 c -16.75385,-0.1765 -32.63539,1.5157 -45.76368,5.7618 -59.846,19.5295 -129.24071,115.87 -118.39453,130.7597 9.01431,12.3748 121.10938,-23.2265 121.10938,-23.2265 22.47474,40.3079 -1.92336,96.5564 -1.92336,96.5564 l 72.94291,16.633 c 0,0 27.2704,-84.183 -5.7088,-137.9269 0,0 100.6243,-26.4713 104.8748,-46.3582 3.6553,-17.1027 -67.3016,-41.5688 -127.13672,-42.1993 z"
       sodipodi:nodetypes="scsccccss" />
  </g>
</svg>
