<svg xmlns="http://www.w3.org/2000/svg" version="2.0" viewBox="0 0 2048 2048">
  <defs>
    <clipPath id="mouth_clip" clipPathUnits="userSpaceOnUse">
      <path fill="#a01919" d="M 834 1212c -124 2-248 79-295 195-25 75-40 163-1 237 40 68 126 90 200 91 165-3 316 1 480-3 75-6 146-52 173-126 26-74 14-153-26-226-39-73-149-171-267-167-82-2-181 0-264-1z"/>
    </clipPath>
  </defs>
  <style>
    .fur{fill:#8bb9a0}
    .paw{fill:#8bb9a0}
    .hand{fill:#8bb9a0}
    .outline{stroke:#000}
    .iris{fill:#000}
    .sclera{stroke:#ff6a00}
    .lips{stroke:#542912}
    .mouth{fill:#a01919}
    .tooth{fill:#fefbba}
    .tongue{fill:#cf4d4c}
  </style>
  <path id="outline" class="outline" stroke-width="130" d="M84 119c-9 0-14 11-11 18 30 130 59 260 92 390 8 22 29 38 51 44 41 15 82 30 120 50-34 26-71 49-104 77a70 70 0 0 0-19 59c2 16 7 32 12 48 10 30 22 60 26 92 1 8 0 17-5 24-6 15-13 29-18 45-26 67-39 138-47 209-6 59-4 117-5 176a580 580 0 0 0 528 587c47 4 94 2 141 3l585-1a447 447 0 0 0 425-463c-1-112 1-224-3-336a733 733 0 0 0-52-231c-2-4 1-9 2-13l17-78 62-289 62-293c4-31 37-107 6-112-17-3-92 46-106 55l-160 82a7960 7960 0 0 1-351 166c-55-11-111-20-168-25a1146 1146 0 0 0-374 28c-167-73-333-147-499-222L89 119h-5Z"/>
  <path id="body" class="fur" d="M1432 1877a388 388 0 0 0 359-361c2-21 1-355-1-372-17-181-65-216-53-246 9-24 136-639 143-663 1-4 1-5-1-3-3 2-509 263-545 261-306-71-526-3-549 5-25-9-629-280-629-280s66 289 69 289c88 32 170 66 182 88 9 18 7 41-7 56-13 14-124 88-125 92-6 27 61 139 32 197-41 82-58 174-66 264-2 19-3 161-1 185a518 518 0 0 0 483 488c19 2 694 2 709 0z"/>
  <path id="left_eye" class="sclera" fill="none" stroke-linecap="round" stroke-width="72" d="M1304 901c-24-24-2-61 22-73 47-24 100 10 116 55 25 68-23 140-88 159-89 27-179-35-202-122-29-109 48-218 155-244 130-31 258 61 287 188 4 17 6 34 6 52"/>
  <use href="#left_eye" id="right_eye" x="-2002" y="0" transform="scale(-1 1)"/>
  <path id="mouth_inside" class="mouth" d="M 834 1212c -124 2-248 79-295 195-25 75-40 163-1 237 40 68 126 90 200 91 165-3 316 1 480-3 75-6 146-52 173-126 26-74 14-153-26-226-39-73-149-171-267-167-82-2-181 0-264-1z"/>
  <ellipse id="tongue" cx="1221" cy="1673" class="tongue" clip-path="url(#mouth_clip)" rx="328" ry="204"/>
  <path id="tooth" class="tooth" clip-path="url(#mouth_clip)" d="M1113 1193c-5 3-7 29-5 33l32 114c1 5 8 6 10 1l42-86c4-8 23-39 16-46-24-9-69-15-95-16z"/>
</svg>
