<?xml version="1.0" standalone="no"?>
<!DOCTYPE svg PUBLIC "-//W3C//DTD SVG 20010904//EN" "http://www.w3.org/TR/2001/REC-SVG-20010904/DTD/svg10.dtd">
<!-- Created using Krita: https://krita.org -->
<svg xmlns="http://www.w3.org/2000/svg" 
    xmlns:xlink="http://www.w3.org/1999/xlink"
    xmlns:krita="http://krita.org/namespaces/svg/krita"
    xmlns:sodipodi="http://sodipodi.sourceforge.net/DTD/sodipodi-0.dtd"
    width="175.04pt"
    height="256.059pt"
    viewBox="0 0 175.04 256.059">
<defs/>
<path id="shape0" transform="matrix(-2.93897764349621 -0.0917991345338356 -0.0917991345338357 2.93897764349621 159.257065702772 6.62759016329972)" fill="#000000" fill-rule="evenodd" stroke="none" stroke-width="35.0080346492921" stroke-linecap="square" stroke-linejoin="bevel" d="M3.81671 19.9336C7.38929 14.3083 11.1889 0.896854 19.3571 0.083954C26.8928 -0.665996 33.7226 3.73459 46.7813 8.24763C46.2041 9.00309 46.7288 12.3683 46.4179 12.8081C44.9323 14.9094 44.9477 11.4172 42.6578 15.7099C34.7566 11.2616 22.5675 7.92848 19.9884 10.6923C13.9012 17.2155 8.7656 29.4314 10.3119 31.5674C12.0981 34.0348 24.6189 41.1469 27.9255 42.3499C30.7081 43.3622 36.1554 42.5713 36.8912 51.8751C37.0579 53.9826 36.8872 57.6614 36.5161 64.503C35.4649 64.2993 32.842 65.3094 31.6791 65.1844C29.987 65.0023 29.7149 63.7043 27.9944 63.4588C26.9857 58.9356 27.4106 61.4056 27.3756 56.6514C27.3442 52.39 27.3556 53.0909 23.8882 49.9997C19.7143 46.2785 8.58553 43.1375 4.83657 39.2153C-2.93298 32.4633 0.138122 25.7258 3.81671 19.9336Z" sodipodi:nodetypes="cscccsssscccsscc"/><path id="shape1" transform="matrix(2.9383765967257 0.109360165903535 -0.109360165903535 2.9383765967257 43.3750374657933 202.399440453204)" fill="#000000" fill-rule="evenodd" stroke="none" stroke-width="35.0080346492921" stroke-linecap="square" stroke-linejoin="bevel" d="M1.49511 2.46402C1.06211 2.79665 0.947595 3.90142 0.382615 4.21575C-0.170929 4.52372 -0.0526558 6.97766 0.288634 7.52067C0.67531 8.13588 1.01358 8.28018 1.30261 8.85404C1.5079 9.26163 0.121865 12.331 1.55399 12.3845C2.93472 12.4361 4.35406 11.2822 5.00229 10.6093C5.26931 10.332 6.07769 9.59278 6.34078 9.27358C6.84012 8.66776 7.83548 8.81159 8.29154 8.20352C8.70274 7.65526 10.5553 5.04396 10.1424 4.6519C9.56471 4.10345 7.33042 3.22732 6.85048 2.688C6.47721 2.26854 6.48854 0.655831 6.11889 0.258608C5.80997 -0.0733541 3.20827 -0.135755 2.84391 0.370959C2.5014 0.847283 1.91386 2.14233 1.49511 2.46402Z" sodipodi:nodetypes="csssssssssscc"/>
</svg>
