<?xml version="1.0" encoding="UTF-8" standalone="no"?>
<!-- Created using Krita: https://krita.org -->

<svg
   width="175.04pt"
   height="256.059pt"
   viewBox="0 0 175.04 256.059"
   version="1.1"
   id="svg12"
   sodipodi:docname="questionmark1.svg"
   inkscape:version="1.1.2 (0a00cf5339, 2022-02-04)"
   xmlns:inkscape="http://www.inkscape.org/namespaces/inkscape"
   xmlns:sodipodi="http://sodipodi.sourceforge.net/DTD/sodipodi-0.dtd"
   xmlns="http://www.w3.org/2000/svg"
   xmlns:svg="http://www.w3.org/2000/svg">
  <sodipodi:namedview
     id="namedview14"
     pagecolor="#ffffff"
     bordercolor="#666666"
     borderopacity="1.0"
     inkscape:pageshadow="2"
     inkscape:pageopacity="0.0"
     inkscape:pagecheckerboard="0"
     inkscape:document-units="pt"
     showgrid="false"
     inkscape:zoom="0.77765284"
     inkscape:cx="129.23505"
     inkscape:cy="165.24083"
     inkscape:window-width="1366"
     inkscape:window-height="713"
     inkscape:window-x="0"
     inkscape:window-y="0"
     inkscape:window-maximized="1"
     inkscape:current-layer="svg12" />
  <defs
     id="defs2" />
  <path
     id="shape0"
     fill="#000000"
     fill-rule="evenodd"
     stroke="none"
     stroke-width="100.495"
     stroke-linecap="square"
     stroke-linejoin="bevel"
     d="m 53.527459,216.83642 c -1.34261,0.86404 -1.811768,3.86821 -3.550182,4.66887 -1.703229,0.78447 -1.622009,7.49529 -0.654103,9.01227 1.096623,1.7187 2.100159,2.14698 2.907064,3.74287 0.573123,1.1335 -3.949486,9.37149 0.361694,9.66303 4.156464,0.28115 8.564568,-2.72458 10.594171,-4.49562 0.836051,-0.72985 3.355874,-2.66565 4.184778,-3.51028 1.573246,-1.60304 4.557652,-1.10928 6.000679,-2.72287 1.301088,-1.45487 7.178659,-8.39501 5.977945,-9.5072 -1.67993,-1.55586 -8.316968,-4.17454 -9.703252,-5.69555 -1.078173,-1.18296 -0.86308,-5.5842 -1.932836,-6.70611 -0.894004,-0.93758 -8.729905,-1.37225 -9.885129,-0.026 -1.085949,1.26547 -3.002402,4.74103 -4.300829,5.57663 z"
     sodipodi:nodetypes="csssssssssscc" />
  <g
     id="group0"
     transform="matrix(1.0259168,0,0,0.92902077,8.9239486,12.004428)"
     fill="none">
    <path
       id="shape1"
       transform="matrix(-1.2534338,-2.6598723,-2.6598723,1.2534338,150.48026,133.76934)"
       fill="#000000"
       fill-rule="evenodd"
       stroke="none"
       stroke-width="35.008"
       stroke-linecap="square"
       stroke-linejoin="bevel"
       d="M 0.82789,2.15448 C 4.40047,-3.47081 8.466,3.79182 16.6342,2.97892 24.1699,2.22897 31.9034,2.97881 44.9621,7.49184 44.3849,8.2473 51.9831,10.0344 49.9427,9.597 48.4571,11.6983 40.3981,6.42897 38.1081,10.7217 30.207,6.27342 31.6754,10.162 23.9696,8.17122 5.88311,5.96131 -2.8507,7.9467 0.82789,2.15448 Z"
       sodipodi:nodetypes="csccccc" />
    <path
       id="path6"
       transform="matrix(-0.97624398,-2.7736193,-2.7736193,0.97624398,156.42696,125.66435)"
       fill="#000000"
       fill-rule="evenodd"
       stroke-opacity="0"
       stroke="#000000"
       stroke-width="0"
       stroke-linecap="square"
       stroke-linejoin="bevel"
       d="M 0.982293,3.32789 C 4.55487,-2.29741 8.79045,1.09906 16.9586,0.286158 24.4943,-0.463793 31.3241,3.9368 44.3828,8.44983 43.8056,9.20529 44.3303,12.5705 44.0194,13.0103 42.5338,15.1116 42.5492,11.6194 40.2593,15.9121 32.3581,11.4639 29.6753,7.13666 21.9695,5.14589 3.88305,2.93598 -2.69629,9.1201 0.982293,3.32789 Z"
       sodipodi:nodetypes="csccccc" />
    <path
       id="shape01"
       transform="matrix(-2.9389776,-0.09179913,-0.09179913,2.9389776,131.85082,23.414085)"
       fill="#000000"
       fill-rule="evenodd"
       stroke-opacity="0"
       stroke="#000000"
       stroke-width="0"
       stroke-linecap="square"
       stroke-linejoin="bevel"
       d="M 1.00095,2.18497 C 4.57353,-3.44033 8.41043,3.66878 16.5786,2.85587 24.1143,2.10592 31.3428,2.79388 44.4015,7.30691 43.8243,8.06237 44.349,11.4276 44.0381,11.8674 42.5525,13.9687 42.5679,10.4765 40.278,14.7692 32.3768,10.321 29.4734,9.41888 21.7676,7.42811 3.68115,5.2182 -2.67763,7.97718 1.00095,2.18497 Z"
       sodipodi:nodetypes="csccccc" />
    <path
       id="shape02"
       transform="matrix(2.633675,-1.3075826,-1.3075826,-2.633675,52.833429,173.74057)"
       fill="#000000"
       fill-rule="evenodd"
       stroke-opacity="0"
       stroke="#000000"
       stroke-width="0"
       stroke-linecap="square"
       stroke-linejoin="bevel"
       d="M 0,9.67074 C 3.57258,4.04544 6.91562,0.896856 15.0838,0.0839541 22.6195,-0.665997 29.4493,3.7346 42.508,8.24763 c -0.5772,0.75546 2.7409,6.58647 2.43,7.02627 -1.4856,2.1013 -4.2636,-3.8567 -6.5535,0.436 C 30.4833,11.2617 25.3623,8.21228 17.6565,6.22151 -0.429923,4.0116 7.04698,15.265 0,9.67074 Z"
       sodipodi:nodetypes="csccccc" />
    <path
       id="shape03"
       transform="matrix(-1.3253628,2.6247723,2.6247723,1.3253628,41.503432,126.73529)"
       fill="#000000"
       fill-rule="evenodd"
       stroke-opacity="0"
       stroke="#000000"
       stroke-width="0"
       stroke-linecap="square"
       stroke-linejoin="bevel"
       d="M 0,7.67417 C 3.57258,2.04887 -3.24313,0.89331 4.92506,0.0804077 12.4608,-0.669543 10.8395,3.95822 23.8982,8.47125 23.321,9.22671 23.8457,12.5919 23.5348,13.0317 22.0492,15.133 23.9549,13.5767 21.665,17.8694 13.7638,13.4212 12.8308,12.5896 5.12497,10.5988 3.12186,9.46024 0.758919,11.7534 0,7.67417 Z"
       sodipodi:nodetypes="csccccc" />
  </g>
</svg>
