<?xml version="1.0" standalone="no"?>
<!DOCTYPE svg PUBLIC "-//W3C//DTD SVG 20010904//EN" "http://www.w3.org/TR/2001/REC-SVG-20010904/DTD/svg10.dtd">
<!-- Created using Krita: https://krita.org -->
<svg xmlns="http://www.w3.org/2000/svg" 
    xmlns:xlink="http://www.w3.org/1999/xlink"
    xmlns:krita="http://krita.org/namespaces/svg/krita"
    xmlns:sodipodi="http://sodipodi.sourceforge.net/DTD/sodipodi-0.dtd"
    width="639pt"
    height="958.5pt"
    viewBox="0 0 639 958.5">
<defs/>
<path id="shape06" transform="matrix(-0.422228787243764 -0.906489131538497 -0.906489131538497 0.422228787243764 392.239643077014 833.834264982055)" fill="#000000" fill-rule="evenodd" stroke-opacity="0" stroke="#000000" stroke-width="0" stroke-linecap="square" stroke-linejoin="bevel" d="M100.487 33.0027C75.8899 -22.0173 26.7709 2.50429 4.61416 29.393C-8.42836 45.221 8.89879 73.2545 22.8971 88.7414C56.5422 125.964 112.144 84.6977 104.768 71.0835C96.5454 55.9063 72.4511 76.3645 51.3329 64.3808C30.6523 52.6454 23.5631 25.4309 51.4469 17.5247C71.0273 11.9728 67.4345 45.286 89.2651 44.0799C97.9958 43.2082 101.781 35.8979 100.487 33.0027Z" sodipodi:nodetypes="cssssscs"/><path id="shape0112" transform="matrix(-0.197416149142932 0.980319602173691 0.980319602173691 0.197416149142932 371.5241928484 34.7279383717282)" fill="#000000" fill-rule="evenodd" stroke-opacity="0" stroke="#000000" stroke-width="0" stroke-linecap="square" stroke-linejoin="bevel" d="M568.994 15.9468C388.384 -5.03575 -27.239 -4.00283 1.40915 11.4211C99.7927 64.39 384.89 35.2586 570.21 80.4146C579.309 57.7249 597.721 35.2318 568.994 15.9468Z" sodipodi:nodetypes="cscc"/><path id="shape011" transform="matrix(-0.395275191314066 -0.918562573294644 -0.918562573294644 0.395275191314066 367.617811432447 730.851600927586)" fill="#000000" fill-rule="evenodd" stroke-opacity="0" stroke="#000000" stroke-width="0" stroke-linecap="square" stroke-linejoin="bevel" d="M568.994 15.9468C388.384 -5.03575 -27.239 -4.00283 1.40915 11.4211C99.7927 64.39 384.89 35.2586 570.21 80.4146C579.309 57.7249 562.93 40.9483 568.994 15.9468Z" sodipodi:nodetypes="cscc"/><path id="shape0111" transform="matrix(0.418691233674317 -0.908128465137321 -0.908128465137321 -0.418691233674317 285.673966228163 726.766861001545)" fill="#000000" fill-rule="evenodd" stroke-opacity="0" stroke="#000000" stroke-width="0" stroke-linecap="square" stroke-linejoin="bevel" d="M568.994 15.9468C388.384 -5.03575 -27.239 -4.00283 1.40915 11.4211C99.7927 64.39 360.025 28.0355 545.345 73.1915C554.444 50.5018 562.93 40.9483 568.994 15.9468Z" sodipodi:nodetypes="cscc"/><path id="shape01121" transform="matrix(0.989994110924881 -0.141107472099921 -0.141107472099921 -0.989994110924881 65.1210834737836 295.612467296817)" fill="#000000" fill-rule="evenodd" stroke-opacity="0" stroke="#000000" stroke-width="0" stroke-linecap="square" stroke-linejoin="bevel" d="M568.994 15.9468C388.384 -5.03575 -27.239 -4.00283 1.40915 11.4211C99.7927 64.39 384.89 35.2586 570.21 80.4146C579.309 57.7249 597.721 35.2318 568.994 15.9468Z" sodipodi:nodetypes="cscc"/>
</svg>
